<?xml version="1.0" encoding="UTF-8"?>
<svg id="Capa_1" xmlns="http://www.w3.org/2000/svg" version="1.1" viewBox="0 0 512 512">
  <!-- Generator: Adobe Illustrator 29.5.1, SVG Export Plug-In . SVG Version: 2.1.0 Build 141)  -->
  <defs>
    <style>
      .st0 {
        fill: #959595;
      }
    </style>
  </defs>
  <path class="st0" d="M510.46,150.44h-.02c-1.81-39.57-12.84-78.89-41.43-107.48C440.42,14.37,400.98,3.33,361.54,1.54c-27.31-1.24-36.03-1.54-105.56-1.54s-78.25.3-105.56,1.54c-39.57,1.81-78.87,12.82-107.48,41.43C14.33,71.58,3.33,110.89,1.52,150.44.28,177.75-.02,186.47-.02,256s.3,78.25,1.54,105.56c1.81,39.53,12.86,78.93,41.43,107.48,28.69,28.69,67.97,39.62,107.48,41.43,27.31,1.24,36.03,1.54,105.56,1.54,16.28,0,29.23-.02,39.86-.06,34.77-.13,44.78-.53,65.7-1.48,39.55-1.81,78.89-12.84,107.48-41.43s39.62-67.93,41.43-107.48c1.24-27.31,1.54-36.03,1.54-105.56s-.3-78.25-1.54-105.56ZM365.2,170.47h-32.19c-31.7,0-41.6,19.67-41.6,39.87v47.89h70.83l-11.33,73.81h-59.5v178.41l-79.79-.02v-178.41h-64.83v-73.81h64.83v-56.26c0-63.98,38.1-99.33,96.43-99.33,27.93,0,57.15,4.99,57.15,4.99v62.85h0Z"/>
</svg>