<?xml version="1.0" encoding="UTF-8"?>
<svg id="Capa_1" xmlns="http://www.w3.org/2000/svg" version="1.1" viewBox="0 0 512 512">
  <!-- Generator: Adobe Illustrator 29.5.1, SVG Export Plug-In . SVG Version: 2.1.0 Build 141)  -->
  <defs>
    <style>
      .st0 {
        fill: #959595;
      }
    </style>
  </defs>
  <path class="st0" d="M510.46,151.21c-1.81-39.57-12.84-78.89-41.43-107.48S401,4.09,361.56,2.3c-27.31-1.24-36.03-1.54-105.56-1.54s-78.25.3-105.56,1.54c-39.57,1.81-78.87,12.82-107.48,41.43C14.25,72.45,3.35,111.66,1.54,151.21c-1.24,27.31-1.54,36.03-1.54,105.56s.3,78.25,1.54,105.56c1.81,39.53,12.86,78.93,41.43,107.48,28.69,28.69,67.97,39.62,107.48,41.43h211.11c39.55-1.81,78.89-12.84,107.48-41.43s39.62-67.93,41.43-107.48c1.24-27.31,1.54-36.03,1.54-105.56s-.3-78.25-1.54-105.56ZM185.55,352.74v-193.47l170,96.74-170,96.74Z"/>
</svg>