<?xml version="1.0" encoding="UTF-8"?>
<svg id="Layer_1" data-name="Layer 1" xmlns="http://www.w3.org/2000/svg" viewBox="0 0 200 239">
  <defs>
    <style>
      .cls-1 {
        fill: #8e0c0b;
      }
    </style>
  </defs>
  <path class="cls-1" d="M3.34,136.95l.4-.14c2.64-.9,5.21.23,6.18,3.09.97,2.86-.39,5.32-3.03,6.21l-.4.13c-2.64.9-5.21-.23-6.18-3.09-.97-2.86.39-5.32,3.02-6.21Z"/>
  <path class="cls-1" d="M4.58,160.88l1.28,1.85,15.08-10.44-1.28-1.85,1.76-1.22,13.34,19.26-1.76,1.22-1.26-1.82-15.08,10.44,1.26,1.82-1.76,1.22-5.52-7.97,1.76-1.22,1.28,1.85,14.92-10.33-4.86-7.02-14.92,10.33,1.28,1.85-1.76,1.22-5.52-7.97,1.76-1.22Z"/>
  <path class="cls-1" d="M27.64,177.14c4.91-5.69,11.06-5.91,15.61-1.98,4.55,3.92,5.25,10.04.34,15.73-4.91,5.69-11.06,5.91-15.61,1.99-4.55-3.92-5.25-10.04-.34-15.73ZM36.87,189.93l4.78-5.55c2.58-2.99,2.03-5.7.03-7.41-1.99-1.72-4.75-1.87-7.33,1.13l-4.78,5.55c-2.58,2.99-2.03,5.7-.03,7.41,1.99,1.72,4.75,1.87,7.33-1.13Z"/>
  <path class="cls-1" d="M46.51,192.68c3.51-6.79,9.41-8.34,13.92-6.01,2.42,1.25,3.16,2.98,3.15,4.18l.17.09.86-1.67,3.31,1.71-3.3,6.39-3.31-1.71.67-1.3c1-1.93.37-3.93-2.05-5.19-2.54-1.31-4.9-.53-6.67,2.9l-3.02,5.84c-1.85,3.57-.7,6.1,1.96,7.47,2.42,1.25,4.88.77,6.86-.98l1.13,1.79c-2.52,2.42-6.43,3.35-10.17,1.42-5.67-2.93-6.53-9.11-3.51-14.95Z"/>
  <path class="cls-1" d="M62.25,210c.44-1.79,1.7-2.62,3.26-2.23,1.5.37,2.19,1.57,1.86,2.89-.19.75-.76,1.35-1.25,1.46l-.05.22c.12.06.21.09.3.11.5.12.95.03,1.5-.3,1.32-.81,3.2-3.72,5.61-13.5l.89-3.62-2.65-.65.51-2.08,17.36,4.28-.51,2.08-2.18-.54-4.39,17.81,2.18.54-.51,2.08-9.41-2.32.51-2.08,2.18.54,4.33-17.59-4.99-1.23-.84,3.4c-2.41,9.78-4.12,12.97-6.57,14.47-1.28.78-2.61.93-4.2.53-2.59-.64-3.34-2.69-2.95-4.26Z"/>
  <path class="cls-1" d="M91.51,215.89c0-1.52.91-2.65,2.52-2.65,1.35,0,2.34.92,2.33,2.18,0,.84-.36,1.49-.81,1.75v.16c.26.1.58.13.83.13,1.19,0,2.09-.64,3.03-2.93l.16-.45-9.11-15.5h-1.61s0-2.15,0-2.15l9.95.04v2.14s-2.58-.01-2.58-.01l3.69,6.69,1.69,3.38h.16s1.3-3.14,1.3-3.14l2.95-6.89h-2.54s0-2.15,0-2.15l6.93.03v2.14s-1.65,0-1.65,0l-7.1,16.52c-1.39,3.2-3.16,4.29-5.6,4.28-2.95-.01-4.58-1.71-4.57-3.58Z"/>
  <path class="cls-1" d="M114.64,217.06l2.16-.61-5.01-17.65-2.16.61-.58-2.06,9.02-2.56.59,2.06-1.85.53,4.96,17.46,5.13-1.46-4.96-17.46-1.85.53-.59-2.06,8.71-2.47.59,2.06-1.85.53,4.96,17.46,5.13-1.46-4.96-17.46-1.85.53-.59-2.06,8.98-2.55.59,2.06-2.16.61,5.01,17.64,2.16-.61.59,2.06-29.55,8.39-.58-2.06Z"/>
  <path class="cls-1" d="M148.04,206.23l1.36-.85-4.98-21.04,3.75-2.36,16.79,13.64,1.36-.85,1.14,1.81-7.97,5-1.14-1.81,2.18-1.36-3.84-3.22-6.2,3.89,1.23,4.85,2.18-1.36,1.14,1.81-5.85,3.67-1.14-1.81ZM149.84,196.84l5.17-3.24-7.62-6.46-.11.07,2.56,9.64Z"/>
  <path class="cls-1" d="M170.86,190.53l2.2-2.12-12.59-13.06-3,2.9,2.56,2.66-2.68,2.59-4.18-4.34,15.12-14.58,4.18,4.34-2.68,2.58-2.56-2.66-3,2.9,12.59,13.06,2.2-2.12,1.49,1.54-8.14,7.84-1.49-1.54Z"/>
  <path class="cls-1" d="M185.15,175.9l1.23-1.88-15.32-10.07-1.23,1.88-1.79-1.17,5.33-8.1,1.79,1.18-1.23,1.88,5.52,3.63,2.22-3.38c2.89-4.4,6.24-5.01,9.84-2.64,3.93,2.58,4.47,6.13,1.75,10.26l-6.31,9.6-1.79-1.18ZM190.56,167.32c1.22-1.85,1.12-3.65-.99-5.03l-1.68-1.1c-2.11-1.39-3.8-.77-5.01,1.08l-1.48,2.25,7.69,5.05,1.48-2.25Z"/>
  <path class="cls-1" d="M193.49,146.18l-.4-.14c-2.64-.91-3.98-3.37-3.01-6.22.98-2.85,3.55-3.97,6.19-3.07l.4.14c2.64.91,3.98,3.37,3.01,6.22-.98,2.85-3.55,3.97-6.19,3.07Z"/>
</svg>