<?xml version="1.0" encoding="UTF-8"?>
<svg id="Layer_1" data-name="Layer 1" xmlns="http://www.w3.org/2000/svg" viewBox="0 0 200 239">
  <defs>
    <style>
      .cls-1 {
        fill: #8e0c0b;
      }
    </style>
  </defs>
  <path class="cls-1" d="M3.03,143.24l.4-.18c2.62-1.17,5.37-.25,6.64,2.59,1.26,2.84.1,5.5-2.52,6.67l-.4.18c-2.62,1.17-5.37.25-6.64-2.59-1.26-2.84-.1-5.5,2.52-6.67Z"/>
  <path class="cls-1" d="M6.63,167.22l1.42,1.83,14.93-11.62-1.42-1.83,1.74-1.35,10.84,13.93-4.91,3.82-2.36-3.03,3.01-2.34-3.76-4.83-14.77,11.49,1.93,2.48-1.74,1.35-6.65-8.54,1.74-1.36Z"/>
  <path class="cls-1" d="M23.03,185.25c1.01-1.21,2.47-1.51,3.74-.45,1.07.89,1.26,2.27.43,3.27-.56.67-1.26.95-1.79.86l-.11.13c.14.25.37.48.58.65.94.78,2.08.86,4.34-.35l.43-.25,2.92-18.31-1.27-1.06,1.41-1.69,7.89,6.57-1.41,1.7-2.04-1.69-1.45,7.75-.88,3.79.13.11,3.09-1.64,6.87-3.54-2.01-1.67,1.41-1.69,5.5,4.58-1.41,1.69-1.3-1.08-16.5,8.48c-3.21,1.63-5.34,1.34-7.27-.27-2.34-1.95-2.53-4.36-1.29-5.85ZM43.28,168.01l8.19,6.82-1.92,2.31-8.19-6.82,1.92-2.31Z"/>
  <path class="cls-1" d="M40.71,201.37l2.13.92,7.53-17.35-2.13-.92.88-2.02,8.87,3.85-.88,2.02-1.82-.79-7.45,17.17,5.04,2.19,7.45-17.16-1.82-.79.88-2.02,8.56,3.72-.88,2.02-1.82-.79-7.45,17.16,5.04,2.19,7.45-17.16-1.82-.79.88-2.02,8.84,3.83-.88,2.02-2.13-.92-7.53,17.35,2.13.92-.88,2.02-29.06-12.62.88-2.02Z"/>
  <path class="cls-1" d="M83.66,216.28l2.32.1.84-18.89-2.32-.1.1-2.2,9.99.44-.1,2.2-2.31-.1-.35,7.98,2.98.13,2.37-4.91c2.01-4.16,3.72-5.42,6.03-5.32,1.85.08,3.02,1.37,2.95,3.07-.08,1.84-1.29,2.92-2.91,2.85-1.45-.06-2.21-1-2.39-2.08h-.13c-.42.58-1,1.52-1.54,2.67l-2.19,4.45c2.21.3,3.42,1.26,4.5,3.78l2.98,6.85,2.05.09-.1,2.2-6.88-.31-4.84-11.05-2.98-.13-.38,8.61,2.31.1-.1,2.2-9.99-.44.1-2.2Z"/>
  <path class="cls-1" d="M112.05,215.41c-.29-1.54.4-2.86,2.03-3.17,1.37-.26,2.55.47,2.79,1.75.16.85-.07,1.58-.48,1.93l.03.16c.28.05.61.02.87-.03,1.2-.23,1.99-1.05,2.5-3.56l.08-.49-12.26-13.91-1.63.31-.41-2.17,10.09-1.9.41,2.17-2.6.49,5.05,6.06,2.37,3.09.16-.03.7-3.43,1.64-7.55-2.57.48-.41-2.17,7.03-1.32.41,2.17-1.66.31-3.96,18.12c-.79,3.51-2.37,4.97-4.84,5.43-2.99.56-4.97-.83-5.33-2.74Z"/>
  <path class="cls-1" d="M135.18,211.75l2.1-.97-7.92-17.17-2.1.97-.92-2,9.08-4.19.92,2-2.1.97,3.32,7.19,8-3.69-3.31-7.19-2.1.97-.92-2,9.08-4.18.92,2-2.1.97,7.92,17.17,2.1-.97.92,2-9.08,4.18-.92-2,2.1-.97-3.6-7.8-8,3.69,3.6,7.8,2.1-.97.92,2-9.08,4.18-.92-2Z"/>
  <path class="cls-1" d="M161.25,198.73l1.82-1.44-11.74-14.83-1.82,1.44-1.37-1.73,14.46-11.45,3.86,4.87-3.01,2.38-2.37-2.99-5.42,4.3,4.69,5.92,3.43-2.71-1.24-1.57,1.92-1.52,3.98,5.03-1.92,1.52-1.25-1.57-3.42,2.71,5.31,6.71,5.63-4.46-2.78-3.51,3.01-2.38,4.27,5.4-14.66,11.61-1.37-1.73Z"/>
  <path class="cls-1" d="M179,184.21l1.69-2.12c-.99-4.22-4.33-8.93-9.92-13.39l-2.01-1.61-1.76,2.2-1.72-1.38,11.49-14.38,1.72,1.38-1.43,1.78,14.59,11.66,2.25-2.82,6.08,4.86-2.58,3.23-4.18-3.34-9.76,12.21,4.18,3.34-2.58,3.23-6.08-4.86ZM188.32,172.54l-14.41-11.52-3.31,4.14,1.98,1.59c5.19,4.15,8.83,8.97,10.01,12.96l5.73-7.16Z"/>
  <path class="cls-1" d="M192.88,151.24l-.4-.17c-2.64-1.14-3.83-3.78-2.59-6.64s3.97-3.8,6.61-2.66l.4.17c2.64,1.14,3.83,3.78,2.59,6.64s-3.97,3.8-6.61,2.66Z"/>
</svg>