<?xml version="1.0" encoding="UTF-8"?>
<svg id="Layer_1" xmlns="http://www.w3.org/2000/svg" version="1.1" viewBox="0 0 200 239">
  <!-- Generator: Adobe Illustrator 29.5.1, SVG Export Plug-In . SVG Version: 2.1.0 Build 141)  -->
  <defs>
    <style>
      .st0 {
        fill: #8e0c0b;
      }
    </style>
  </defs>
  <path class="st0" d="M4.14,124.03l.4-.06c2.63-.37,4.84,1.14,5.24,3.99.4,2.84-1.3,4.91-3.93,5.28l-.4.06c-2.62.37-4.84-1.14-5.24-3.99-.4-2.84,1.31-4.91,3.93-5.28h0Z"/>
  <path class="st0" d="M9.35,143.29c6.72-2.8,11.96-.31,13.82,4.16.99,2.39.47,4.1-.27,4.98l.07.17,1.65-.68,1.36,3.27-6.32,2.63-1.36-3.27,1.28-.54c1.91-.79,2.68-2.63,1.69-5.03-1.04-2.51-3.24-3.38-6.63-1.97l-5.78,2.4c-3.54,1.47-4.24,4.02-3.15,6.64.99,2.4,3.08,3.55,5.6,3.5l-.28,2c-3.31.22-6.73-1.5-8.27-5.2-2.33-5.62.83-10.64,6.61-13.04h0Z"/>
  <path class="st0" d="M10.19,166.59l1.21,1.76,14.37-9.92-1.21-1.76,1.67-1.15,5.32,7.72-1.67,1.15-1.3-1.88-14.22,9.81,3.29,4.78,3.41-2.35,2.01,2.92-5.23,3.61-9.33-13.53,1.67-1.15h0Z"/>
  <path class="st0" d="M22.25,183.01l1.48,1.55,12.58-12.1-1.48-1.55,1.46-1.41,6.4,6.65-1.46,1.41-1.48-1.55-12.58,12.1,1.48,1.55-1.46,1.41-6.4-6.65s1.46-1.41,1.46-1.41Z"/>
  <path class="st0" d="M36.84,185.77c4.31-5.86,10.08-6.44,13.97-3.58,2.09,1.54,2.53,3.27,2.34,4.4l.15.11,1.06-1.45,2.85,2.1-4.06,5.52-2.85-2.1.82-1.12c1.23-1.67.93-3.64-1.16-5.18-2.19-1.61-4.53-1.23-6.7,1.74l-3.71,5.05c-2.27,3.08-1.56,5.62.73,7.31,2.09,1.54,4.47,1.45,6.6.1l.8,1.85c-2.73,1.9-6.55,2.2-9.77-.17-4.9-3.61-4.79-9.54-1.08-14.57h0Z"/>
  <path class="st0" d="M49.72,205.58l1.97.83,6.78-16.09-1.97-.83.79-1.88,8.51,3.58-.79,1.88-1.98-.83-3.38,8.02.2.08,4.67-2.18,6-2.76-1.97-.83.79-1.88,6.87,2.89-.79,1.88-2.06-.87-7.27,3.16,1.98,13.55,1.69.72-.79,1.88-8.82-3.71.79-1.88,1.83.77-1.14-9.51-3.12,1.36-2.28,5.4,1.97.83-.79,1.88-8.51-3.58.79-1.88h.03Z"/>
  <path class="st0" d="M85.32,216.89l2.89.24,1.44-17.22-3.96-.33-.29,3.51-3.53-.29.48-5.72,19.91,1.67-.48,5.72-3.53-.29.29-3.51-3.96-.33-1.44,17.22,2.89.24-.17,2.03-10.72-.9.17-2.03h0Z"/>
  <path class="st0" d="M103.21,209.43c-1.05-7.08,2.63-11.65,8.28-12.48,5.65-.83,10.5,2.47,11.55,9.55s-2.63,11.65-8.28,12.48c-5.65.84-10.5-2.47-11.55-9.55ZM118.17,210.73l-1.03-6.89c-.55-3.72-2.84-5-5.32-4.64s-4.3,2.25-3.75,5.98l1.03,6.89c.55,3.72,2.84,5,5.32,4.64,2.48-.37,4.3-2.25,3.75-5.98Z"/>
  <path class="st0" d="M136.72,211.31l1.89-.98-8.06-15.49-1.89.98-.93-1.8,8.18-4.26.94,1.8-1.9.98,3.37,6.48,7.21-3.74-3.37-6.48-1.89.98-.93-1.8,8.18-4.26.94,1.8-1.9.98,8.06,15.49,1.89-.98.94,1.8-8.18,4.26-.93-1.8,1.89-.98-3.66-7.03-7.21,3.74,3.66,7.03,1.89-.98.94,1.8-8.18,4.26-.93-1.8h-.02Z"/>
  <path class="st0" d="M160.2,198.16l1.61-1.4-11.45-13.17-1.61,1.4-1.33-1.53,12.84-11.18,3.76,4.32-2.68,2.33-2.31-2.65-4.81,4.19,4.57,5.26,3.04-2.65-1.22-1.39,1.71-1.48,3.88,4.46-1.71,1.48-1.22-1.39-3.04,2.65,5.18,5.96,5.01-4.35-2.71-3.12,2.68-2.33,4.17,4.79-13.03,11.33-1.33-1.53h0Z"/>
  <path class="st0" d="M176.08,184.03l.9-1.23-11.76-16.9,2.5-3.39,19.63,6.23.9-1.23,1.64,1.21-5.31,7.21-1.64-1.21,1.45-1.96-4.51-1.51-4.13,5.61,2.78,3.87,1.45-1.96,1.64,1.21-3.9,5.29-1.64-1.21v-.02ZM174.39,175.08l3.45-4.67-9-3.06-.07.1,5.63,7.64h0Z"/>
  <path class="st0" d="M190.1,164.2l.84-1.97-16.07-6.83-.84,1.97-1.88-.8,4.7-11.05c1.47-3.46,4.02-5.37,7.56-3.86,2.76,1.17,3.73,3.84,3.23,6.52l7.7-1.01c1.6-.21,2.29-.75,2.81-1.96l.06-.14,1.88.8-1.14,2.68c-1.12,2.65-2.43,3.45-4.78,3.61l-7.31.48-.9,2.11,6.9,2.92.84-1.97,1.88.8-3.61,8.5-1.88-.8h0ZM184.03,153.93l1.19-2.82c.84-1.97.42-3.37-1.42-4.15l-1.68-.72c-1.85-.79-3.14-.1-3.98,1.87l-1.19,2.82,7.07,3h0Z"/>
  <path class="st0" d="M193.54,132.72l-.4-.06c-2.63-.37-4.33-2.43-3.93-5.27.4-2.85,2.61-4.36,5.23-3.99l.4.05c2.63.37,4.33,2.43,3.93,5.27s-2.61,4.36-5.23,3.99h0Z"/>
</svg>