<?xml version="1.0" encoding="UTF-8"?>
<svg id="Layer_1" data-name="Layer 1" xmlns="http://www.w3.org/2000/svg" viewBox="0 0 384.22 384">
  <defs>
    <style>
      .cls-1 {
        fill: #efefef;
      }

      .cls-2 {
        fill: #d70027;
      }

      .cls-3 {
        fill: #0052b3;
      }
    </style>
  </defs>
  <path class="cls-3" d="M372.22,125.75c4.86,13.67,8.86,28.53,10.67,42.94.33,2.64-.64,5.67,1.33,7.96v31.44c-2.44,2.23-.85,5.07-1.09,7.52-1.38,14.34-5.84,30-10.91,43.38H12.22c-3.09-8.35-6.2-16.63-7.88-25.44L.22,208.09c.52-10.29-.7-21.23,0-31.44,1.16-17.04,6.03-34.81,12-50.9h360Z"/>
  <path class="cls-2" d="M372.22,258.99c-26.71,70.5-89.6,117.84-165,125.01h-30.75l-1.19-.69c-74.26-6-137.41-55.07-163.06-124.31h360Z"/>
  <path class="cls-1" d="M372.22,125.75H12.22c61.73-166.32,300.95-166.07,360,0Z"/>
</svg>