<?xml version="1.0" encoding="UTF-8"?>
<svg id="Layer_1" xmlns="http://www.w3.org/2000/svg" version="1.1" viewBox="0 0 384 384">
  <!-- Generator: Adobe Illustrator 29.5.0, SVG Export Plug-In . SVG Version: 2.1.0 Build 137)  -->
  <defs>
    <style>
      .st0 {
        fill: #efeeee;
      }

      .st1 {
        fill: #0153b4;
      }

      .st2 {
        fill: #d70228;
      }
    </style>
  </defs>
  <path class="st1" d="M192,.75v191.63H0c.26-5.2-.35-10.54,0-15.72.15-2.15,1.21-5.96,1.5-8.23l9.99-6.62,15.51,10.36-5.17-18.2,14.92-11.73h-19.5l-5.25-16.47c1.99-5.41,3.59-9.04,6-14.22l8.99,5.24-4.49-14.22c1.74-3.26,3.38-5.86,5.25-8.98l8.99-6.37-4.49-1.11c10.62-15.87,21.31-28.17,36-40.42l-3.75,14.97,15.49-10.35,16,10.35-5.15-18.18,14.9-11.75c-5.06.56-11.67-.78-16.5,0C119.26,10.55,155.9,1.14,192,.75ZM155.25,30.69l-6.38-18.72-6.75,18.72h-19.12l15.81,11.72-5.69,18.96,15.74-11.22,15.38,10.49-4.38-18.19,14.89-11.76h-19.5ZM86.25,86.08c-1.91-4.99-3.03-11.36-5.22-16.12-.34-.74-.46-1.76-1.52-1.84l-5.26,17.96h-19.5c-.34,1.44.53,1.44,1.26,2.11,2.16,1.97,13.22,8.74,13.64,10.38l-5.14,18.2,16.08-10.52,15.4,10.52-5.13-18.17c.51-1.93,11.51-8.73,13.94-10.8.54-.46,1.41.04.95-1.72h-19.5ZM174.75,86.08h-19.12c-2.91-4.69-3.68-10.95-5.67-16.05-.3-.78-.3-1.81-1.45-1.91l-5.26,17.96h-19.5c-.27,1.25.4,1.52,1.14,2.23,2.05,1.99,13.39,8.51,13.73,10.21l-5.11,17.49c1.33,1.38,12.92-10.09,16.09-9.75,2.39.26,11.76,9.39,15.02,10.51.19-5.02-5.99-14.51-4.89-18.94.21-.84,12.17-8.57,14.07-10.05.62-.48,1.36.03.95-1.71ZM86.25,142.22c-1.97-5.34-3.24-11.56-5.3-16.79-.31-.78-.28-1.81-1.44-1.92l-5.26,18.71h-20.25l15.81,11.72-5.69,18.96,15.88-11.09,16,11.1-5.15-18.96,14.9-11.73h-19.5ZM174.75,142.22h-19.12l-6.75-18.72-6.75,18.72h-19.12l15.81,11.71-6.06,18.22c1.64,1.24,13.43-9.58,16.25-10.37l15.63,11.11-4.79-18.94,14.9-11.73Z"/>
  <path class="st0" d="M192,192.37h192v14.97l-2.49,17.36c-.87,6.11-2.64,11.91-4.26,17.83H6.75c-1.18-4.41-2.78-8.77-3.53-13.32l-3.22-21.86v-14.97h192Z"/>
  <path class="st2" d="M377.25,142.22c1.63,6.38,2.93,12.85,4.28,19.31l2.47,15.88v14.97h-192v-50.15h185.25Z"/>
  <path class="st2" d="M311.25,342.83c-29.8,23.48-66.52,37.35-104.25,41.17h-30.75l-1.19-.69c-37.24-2.62-73.21-17.53-102.31-40.48h238.5Z"/>
  <path class="st0" d="M355.5,92.07c10.15,16.38,16.94,31.37,21.75,50.15h-185.25v-50.15h163.5Z"/>
  <path class="st2" d="M312,42.67c17.42,14.15,31.71,30.38,43.5,49.4h-163.5v-49.4h120Z"/>
  <path class="st0" d="M312,42.67h-120V.75c43.42-.47,86.49,14.71,120,41.92Z"/>
  <path class="st0" d="M86.25,86.08h19.5c.45,1.75-.41,1.25-.95,1.72-2.42,2.08-13.42,8.87-13.94,10.8l5.13,18.17-15.4-10.52-16.08,10.52,5.14-18.2c-.42-1.64-11.48-8.41-13.64-10.38-.73-.67-1.6-.67-1.26-2.11h19.5l5.26-17.96c1.06.09,1.18,1.1,1.52,1.84,2.19,4.76,3.31,11.13,5.22,16.12Z"/>
  <path class="st0" d="M174.75,86.08c.42,1.74-.33,1.23-.95,1.71-1.9,1.48-13.86,9.21-14.07,10.05-1.11,4.43,5.08,13.92,4.89,18.94-3.26-1.12-12.62-10.25-15.02-10.51-3.18-.34-14.76,11.13-16.09,9.75l5.11-17.49c-.34-1.7-11.68-8.22-13.73-10.21-.74-.72-1.41-.99-1.14-2.23h19.5l5.26-17.96c1.15.11,1.15,1.13,1.45,1.91,1.99,5.1,2.76,11.36,5.67,16.05h19.12Z"/>
  <path class="st0" d="M12,125.75l5.25,16.47h19.5l-14.92,11.73,5.17,18.2-15.51-10.36-9.99,6.62c1.97-15.73,5.06-27.89,10.5-42.67Z"/>
  <path class="st0" d="M89.25,30.69c4.83-.78,11.44.56,16.5,0l-14.9,11.75,5.15,18.18-16-10.35-15.49,10.35,3.75-14.97c3.55-2.96,17.45-14.4,21-14.97Z"/>
  <path class="st0" d="M22.5,102.55l4.49,14.22-8.99-5.24c1.47-3.15,2.87-5.92,4.5-8.98Z"/>
  <path class="st0" d="M32.25,86.08l4.49,1.11-8.99,6.37c1.52-2.54,2.77-4.9,4.5-7.49Z"/>
  <polygon class="st0" points="155.25 30.69 174.75 30.69 159.86 42.45 164.24 60.63 148.86 50.14 133.12 61.36 138.81 42.41 123 30.69 142.12 30.69 148.87 11.97 155.25 30.69"/>
  <path class="st0" d="M86.25,142.22h19.5l-14.9,11.73,5.15,18.96-16-11.1-15.88,11.09,5.69-18.96-15.81-11.72h20.25l5.26-18.71c1.17.11,1.14,1.14,1.44,1.92,2.05,5.23,3.33,11.45,5.3,16.79Z"/>
  <path class="st0" d="M174.75,142.22l-14.9,11.73,4.79,18.94-15.63-11.11c-2.82.79-14.62,11.61-16.25,10.37l6.06-18.22-15.81-11.71h19.12l6.75-18.72,6.75,18.72h19.12Z"/>
  <path class="st2" d="M377.25,242.53c-5.12,18.62-11.83,33.7-21.75,50.15H28.5c-10.27-16.59-16.71-31.3-21.75-50.15h370.5Z"/>
  <path class="st0" d="M355.5,292.68c-11.72,19.44-26.42,36.1-44.25,50.15H72.75c-18.32-14.45-31.99-30.35-44.25-50.15h327Z"/>
</svg>