<?xml version="1.0" encoding="UTF-8"?>
<svg id="Filled" xmlns="http://www.w3.org/2000/svg" version="1.1" viewBox="0 0 512 512">
  <!-- Generator: Adobe Illustrator 29.5.1, SVG Export Plug-In . SVG Version: 2.1.0 Build 141)  -->
  <defs>
    <style>
      .st0, .st1 {
        fill: #fcf6e9;
      }

      .st1 {
        stroke: #f2f3ee;
        stroke-miterlimit: 10;
      }
    </style>
  </defs>
  <path class="st0" d="M443.73,91.58c-8.8-7.84-22.28-7.07-30.12,1.73-7.23,8.11-7.21,20.35.04,28.44,74.01,74.2,74.01,194.3,0,268.5-8.8,7.84-9.57,21.33-1.73,30.12s21.33,9.57,30.12,1.73c.59-.53,1.16-1.09,1.69-1.68,90.67-90.86,90.67-237.97,0-328.83h0Z"/>
  <path class="st1" d="M385.98,155.58c-8.19-8.47-21.69-8.71-30.17-.52s-8.71,21.69-.52,30.17c.17.18.35.35.52.52,38.72,38.83,38.72,101.67,0,140.5-8.47,8.18-8.71,21.69-.52,30.17,8.18,8.47,21.69,8.71,30.17.52.18-.17.35-.35.52-.52,55.36-55.5,55.36-145.33,0-200.83h0Z"/>
  <path class="st0" d="M294.81,4.42c-64.82,12.17-122.49,48.77-161.09,102.25h-27.05C47.79,106.74.07,154.45,0,213.33v85.33c.07,58.88,47.79,106.6,106.67,106.67h27.07c38.59,53.48,96.25,90.09,161.07,102.25,11.59,2.13,22.71-5.53,24.84-17.12.23-1.27.35-2.56.35-3.85V25.39c0-11.78-9.56-21.33-21.34-21.32-1.29,0-2.58.12-3.85.35Z"/>
</svg>