<?xml version="1.0" encoding="UTF-8"?>
<svg id="Layer_1" data-name="Layer 1" xmlns="http://www.w3.org/2000/svg" viewBox="0 0 384.2 384">
  <defs>
    <style>
      .cls-1 {
        fill: #feda47;
      }

      .cls-2 {
        fill: #d70128;
      }

      .cls-3 {
        fill: #efefef;
      }

      .cls-4 {
        fill: #6da544;
      }
    </style>
  </defs>
  <path class="cls-3" d="M384.2,177.4v29.94l-6.21,34.59c-2.93,12.05-7.93,23.24-13.29,34.27l-345.75-.75c-7.06-14.71-12.27-30.23-15.53-46.25L.2,207.35c.47-9.82-.64-20.2,0-29.94,1.49-22.72,8.88-47.54,18.75-68.12l345.75-.75c10.39,21.33,17.57,43.64,18.81,67.68l.69,1.19ZM192.95,139.23c-1.92-.3-1.16.17-1.56,1.05-.54,1.19-1.8,6.77-2.28,7.08l-9.65.11,7.36,6.45-2.11,8.51c.8.9,5.58-4.37,7.16-4.53,2.27-.23,6.97,5.51,7.83,4.53l-2.11-8.51,7.36-6.08-9.64-.47-2.36-8.13ZM158.44,151.96c-1.92-.3-1.16.17-1.56,1.05-.54,1.19-1.8,6.77-2.28,7.08l-9.65.11,7.56,5.72-2.3,9.25,7.23-5.15,7.76,4.4-2.1-7.75,7.35-6.09-9.67-.45-2.34-8.16ZM227.45,151.95c-1.7-.31-1.19.09-1.67.96-1.05,1.9-1.59,5.05-2.15,7.2l-9.67.45,7.35,6.09-2.1,7.75,7.76-4.4,7.23,5.15-2.3-9.25,7.56-5.72-9.65-.11-2.36-8.13ZM133.03,184.81l-2.7-8.91-3.34,8.65-9.03.35c-1.42,1.23,6.5,5.14,6.65,6.5l-2.15,8.46,7.87-4.48,7.87,5.23-2.13-9.19c-.02-1.72,8.14-5.22,6.64-6.53l-9.67-.08ZM266.45,184.89l-9.03-.35-3.34-8.65-2.7,8.91-9.67.08c-.47,1.74.41,1.25.95,1.71,1.4,1.2,5.24,3.16,5.69,4.81l-2.13,9.19,7.87-5.23,7.87,4.48-2.15-8.46c.15-1.36,8.07-5.26,6.65-6.5ZM225.95,214.08l-13.72,5.89-19.66-18.64c-2.65,0-16.56,17.78-19.67,18.63s-10.78-5.5-14.46-5.88v28.44h67.5v-28.44ZM133.7,218.58l-9.78-.35-3.71-8.63-2.98,8.63-9.03.35,6.65,5.74-2.14,8.86,7.86-4.63,7.87,4.99-2.16-9.22,7.42-5.74ZM276.2,218.58l-9.03-.35-3.71-8.63-2.98,8.63-9.03.35,6.67,5.74-2.16,9.23,7.87-4.99,7.51,4.98-1.79-9.21,6.65-5.74Z"/>
  <path class="cls-4" d="M364.7,276.21c-30.02,61.75-89,101.54-157.5,107.79h-30l-1.19-.69c-67.39-4.76-128.09-47.43-157.06-107.84l345.75.75Z"/>
  <path class="cls-2" d="M364.7,108.54l-345.75.75c69.19-144.28,275.59-144.77,345.75-.75Z"/>
  <path class="cls-1" d="M225.95,214.08v28.44h-67.5v-28.44c3.67.38,11.33,6.74,14.46,5.88s17.02-18.63,19.67-18.63l19.66,18.64,13.72-5.89Z"/>
  <path class="cls-1" d="M133.03,184.81l9.67.08c1.5,1.31-6.65,4.81-6.64,6.53l2.13,9.19-7.87-5.23-7.87,4.48,2.15-8.46c-.15-1.36-8.07-5.26-6.65-6.5l9.03-.35,3.34-8.65,2.7,8.91Z"/>
  <path class="cls-1" d="M266.45,184.89c1.42,1.23-6.5,5.14-6.65,6.5l2.15,8.46-7.87-4.48-7.87,5.23,2.13-9.19c-.44-1.65-4.28-3.61-5.69-4.81-.54-.46-1.42.03-.95-1.71l9.67-.08,2.7-8.91,3.34,8.65,9.03.35Z"/>
  <path class="cls-1" d="M192.95,139.23l2.36,8.13,9.64.47-7.36,6.08,2.11,8.51c-.87.98-5.56-4.76-7.83-4.53-1.58.16-6.36,5.43-7.16,4.53l2.11-8.51-7.36-6.45,9.65-.11c.49-.31,1.74-5.89,2.28-7.08.4-.88-.36-1.35,1.56-1.05Z"/>
  <path class="cls-1" d="M158.44,151.96l2.34,8.16,9.67.45-7.35,6.09,2.1,7.75-7.76-4.4-7.23,5.15,2.3-9.25-7.56-5.72,9.65-.11c.49-.31,1.75-5.89,2.28-7.08.4-.88-.35-1.35,1.56-1.05Z"/>
  <path class="cls-1" d="M227.45,151.95l2.36,8.13,9.65.11-7.56,5.72,2.3,9.25-7.23-5.15-7.76,4.4,2.1-7.75-7.35-6.09,9.67-.45c.56-2.15,1.1-5.3,2.15-7.2.48-.86-.03-1.26,1.67-.96Z"/>
  <polygon class="cls-1" points="133.7 218.58 126.28 224.32 128.45 233.54 120.58 228.55 112.72 233.18 114.86 224.32 108.2 218.58 117.23 218.23 120.21 209.6 123.92 218.23 133.7 218.58"/>
  <polygon class="cls-1" points="276.2 218.58 269.55 224.32 271.34 233.53 263.83 228.55 255.96 233.54 258.12 224.32 251.45 218.58 260.48 218.23 263.46 209.6 267.17 218.23 276.2 218.58"/>
</svg>