<?xml version="1.0" encoding="UTF-8"?>
<svg id="Layer_6" data-name="Layer 6" xmlns="http://www.w3.org/2000/svg" viewBox="0 0 75 211">
  <defs>
    <style>
      .cls-1, .cls-2 {
        fill: #bd9d52;
      }

      .cls-1, .cls-2, .cls-3 {
        stroke: #bd9d52;
        stroke-miterlimit: 10;
      }

      .cls-2, .cls-3 {
        stroke-width: 3px;
      }

      .cls-3 {
        fill: none;
      }
    </style>
  </defs>
  <g>
    <g>
      <path class="cls-1" d="M37.5,97.8s2.29-1.94,5.03-2.3c2.55-.34,5.1,1.28,5.76,3.77.34,1.28.02,2.64-1,4.29-.2.33-.45.62-.73.9-4.02,4.08-9.05,11.1-9.05,11.1,0,0-5.03-7.02-9.05-11.1-.27-.28-.52-.57-.73-.9-1.02-1.65-1.34-3.01-1-4.29.65-2.48,3.21-4.11,5.76-3.77,2.74.37,5.03,2.3,5.03,2.3Z"/>
      <path class="cls-1" d="M37.5,140.24s2.29,1.94,5.03,2.3c2.55.34,5.1-1.28,5.76-3.77.34-1.28.02-2.64-1-4.29-.2-.33-.45-.62-.73-.9-4.02-4.08-9.05-11.1-9.05-11.1,0,0-5.03,7.02-9.05,11.1-.27.28-.52.57-.73.9-1.02,1.65-1.34,3.01-1,4.29.65,2.48,3.21,4.11,5.76,3.77,2.74-.37,5.03-2.3,5.03-2.3Z"/>
    </g>
    <g>
      <path class="cls-1" d="M58.72,119s1.94,2.29,2.3,5.03c.34,2.55-1.28,5.1-3.77,5.76-1.28.34-2.64.02-4.29-1-.33-.2-.62-.45-.9-.73-4.08-4.02-11.1-9.05-11.1-9.05,0,0,7.02-5.03,11.1-9.05.28-.27.57-.52.9-.73,1.65-1.02,3.01-1.34,4.29-1,2.48.65,4.11,3.21,3.77,5.76-.37,2.74-2.3,5.03-2.3,5.03Z"/>
      <path class="cls-1" d="M16.28,119s-1.94,2.29-2.3,5.03c-.34,2.55,1.28,5.1,3.77,5.76,1.28.34,2.64.02,4.29-1,.33-.2.62-.45.9-.73,4.08-4.02,11.1-9.05,11.1-9.05,0,0-7.02-5.03-11.1-9.05-.28-.27-.57-.52-.9-.73-1.65-1.02-3.01-1.34-4.29-1-2.48.65-4.11,3.21-3.77,5.76.37,2.74,2.3,5.03,2.3,5.03Z"/>
    </g>
  </g>
  <line class="cls-3" x1="37.5" x2="37.5" y2="97.8"/>
  <line class="cls-3" x1="37.5" y1="137.29" x2="37.5" y2="211"/>
  <circle class="cls-2" cx="32.81" cy="171.33" r="2.82"/>
  <circle class="cls-2" cx="42.19" cy="171.33" r="2.82"/>
</svg>