<?xml version="1.0" encoding="UTF-8"?>
<svg id="Layer_2" xmlns="http://www.w3.org/2000/svg" version="1.1" viewBox="0 0 534.34 1217.53">
  <!-- Generator: Adobe Illustrator 29.5.1, SVG Export Plug-In . SVG Version: 2.1.0 Build 141)  -->
  <defs>
    <style>
      .st0 {
        fill: none;
        stroke: #bd9d52;
        stroke-linecap: round;
        stroke-linejoin: round;
        stroke-width: 25px;
      }

      .st1 {
        fill: #bd9d52;
      }
    </style>
  </defs>
  <path class="st0" d="M362.09,753h-189.84"/>
  <path class="st0" d="M362.09,795.93h-189.84"/>
  <g>
    <g>
      <g>
        <path class="st1" d="M477.95,949.9c-.05.03-.19.07-.45.1.25-.08.4-.1.45-.1Z"/>
        <path class="st1" d="M356.71,1001.32c49.48-38.43,104.21-48.91,120.79-51.32-65.75,20.03-76.06,61.61-86.99,90.12-11.27,29.44-34.93,25.95-40.57,1.98-4.64-19.78,6.48-40.24,6.76-40.77h.01Z"/>
      </g>
      <g>
        <path class="st0" d="M356.7,1001.33c-47.16,36.63-89.54,98.66-89.54,203.28V21.99"/>
        <path class="st0" d="M477.96,949.9h-.01c-.05.03-.19.07-.45.1-16.58,2.41-71.31,12.89-120.79,51.32"/>
        <path class="st0" d="M356.71,1001.32h-.01c-.28.54-11.4,21-6.76,40.78,5.64,23.97,29.3,27.46,40.57-1.98,10.93-28.51,21.24-70.09,86.99-90.12.25-.08.4-.1.45-.1"/>
      </g>
    </g>
    <g>
      <g>
        <path class="st1" d="M177.64,1001.33c.28.53,11.4,20.99,6.76,40.77-5.64,23.97-29.3,27.46-40.57-1.98-10.93-28.51-21.24-70.09-86.99-90.12,16.58,2.41,71.31,12.89,120.79,51.32h.01Z"/>
        <path class="st1" d="M56.39,949.9c.05,0,.2.02.45.1-.26-.03-.4-.07-.45-.1Z"/>
      </g>
      <g>
        <path class="st0" d="M177.64,1001.33c47.16,36.63,89.54,98.66,89.54,203.28"/>
        <path class="st0" d="M56.38,949.9h.01c.05.03.19.07.45.1,16.58,2.41,71.31,12.89,120.79,51.32"/>
        <path class="st0" d="M177.63,1001.32h.01c.28.54,11.4,21,6.76,40.78-5.64,23.97-29.3,27.46-40.57-1.98-10.93-28.51-21.24-70.09-86.99-90.12-.25-.08-.4-.1-.45-.1"/>
      </g>
    </g>
  </g>
</svg>