<?xml version="1.0" encoding="UTF-8"?>
<svg id="Layer_1" xmlns="http://www.w3.org/2000/svg" version="1.1" viewBox="0 0 24 24">
  <!-- Generator: Adobe Illustrator 29.5.1, SVG Export Plug-In . SVG Version: 2.1.0 Build 141)  -->
  <defs>
    <style>
      .st0 {
        fill: #006601;
        stroke: #006601;
      }

      .st0, .st1, .st2, .st3 {
        stroke-miterlimit: 10;
      }

      .st0, .st2 {
        stroke-width: .19px;
      }

      .st1 {
        display: none;
        fill: #191509;
      }

      .st1, .st3 {
        stroke: #ffda47;
        stroke-width: .25px;
      }

      .st4 {
        fill: #fff;
      }

      .st2 {
        fill: #d80128;
        stroke: #d80128;
      }

      .st3 {
        fill: #ffda47;
      }
    </style>
  </defs>
  <g id="Layer_11" data-name="Layer_1">
    <g id="Layer_11">
      <g>
        <path class="st4" d="M23.88,12c0,6.56-5.32,11.87-11.88,11.87S.12,18.56.12,12c0-1.95.47-3.8,1.31-5.43C3.4,2.74,7.4.13,12,.13c6.56,0,11.88,5.32,11.88,11.87Z"/>
        <path class="st2" d="M22.53,6.69C20.59,2.8,16.56.12,11.91.12h.19C7.45.12,3.42,2.8,1.47,6.69h21.06Z"/>
        <path class="st0" d="M22.52,17.31c-1.95,3.89-5.97,6.57-10.62,6.57h.19c-4.65,0-8.68-2.67-10.62-6.57h21.06-.01Z"/>
      </g>
    </g>
  </g>
  <g id="Layer_3">
    <rect class="st1" x="-1" y="-1" width="26" height="26"/>
    <g>
      <g>
        <polygon class="st3" points="12 7.97 11.89 8.31 11.53 8.31 11.82 8.52 11.71 8.85 12 8.64 12.29 8.85 12.18 8.52 12.47 8.31 12.11 8.31 12 7.97"/>
        <polygon class="st3" points="6.22 13.15 6.11 13.48 5.75 13.48 6.04 13.69 5.93 14.03 6.22 13.82 6.51 14.03 6.4 13.69 6.68 13.48 6.33 13.48 6.22 13.15"/>
        <polygon class="st3" points="7.15 10.61 7.04 10.95 6.68 10.95 6.97 11.16 6.86 11.5 7.15 11.29 7.44 11.5 7.33 11.16 7.62 10.95 7.26 10.95 7.15 10.61"/>
        <polygon class="st3" points="9.3 8.85 9.19 9.19 8.83 9.19 9.12 9.4 9.01 9.74 9.3 9.53 9.59 9.74 9.48 9.4 9.77 9.19 9.41 9.19 9.3 8.85"/>
      </g>
      <g>
        <polygon class="st3" points="17.78 13.15 17.89 13.48 18.25 13.48 17.96 13.69 18.07 14.03 17.78 13.82 17.49 14.03 17.6 13.69 17.32 13.48 17.67 13.48 17.78 13.15"/>
        <polygon class="st3" points="16.85 10.61 16.96 10.95 17.32 10.95 17.03 11.16 17.14 11.5 16.85 11.29 16.56 11.5 16.67 11.16 16.38 10.95 16.74 10.95 16.85 10.61"/>
        <polygon class="st3" points="14.7 8.85 14.81 9.19 15.17 9.19 14.88 9.4 14.99 9.74 14.7 9.53 14.41 9.74 14.52 9.4 14.23 9.19 14.59 9.19 14.7 8.85"/>
      </g>
      <g id="Layer_2">
        <g>
          <polygon class="st3" points="8.93 15.54 8.45 12.59 10.45 13.88 11.18 14.23 12.82 14.23 15.55 12.59 15.01 15.59 8.93 15.54"/>
          <polyline class="st3" points="10.24 13.89 11.93 11.83 13.76 13.89 12.75 14.23 11.1 14.23"/>
        </g>
      </g>
    </g>
  </g>
</svg>