<svg xmlns="http://www.w3.org/2000/svg" xmlns:xlink="http://www.w3.org/1999/xlink" version="1.1" id="Layer_1" x="0px" y="0px" style="enable-background:new 0 0 612 792;" xml:space="preserve" viewBox="31.8 105.67 552.82 541.99">
<style type="text/css">
	.st0{fill:#DF9915;}
	.st1{fill:#06182F;}
	.st2{fill:#AE0E0E;}
	.st3{fill:#FFFFFF;}
	.st4{fill:#297309;}
	.st5{fill:#5C6271;}
	.st6{fill:#A5B3BB;}
	.st7{fill:#596B7A;}
	.st8{fill:#595667;}
	.st9{fill:#404658;}
	.st10{fill:#B8B2BA;}
	.st11{fill:#726B7A;}
	.st12{fill:#5A3448;}
	.st13{fill:#2A730A;}
	.st14{fill:#2B740B;}
	.st15{fill:#DF9A17;}
	.st16{fill:#5B8326;}
	.st17{fill:#608E39;}
	.st18{fill:#6F9E54;}
	.st19{fill:#689442;}
	.st20{fill:#99C79D;}
	.st21{fill:#EBBE6B;}
	.st22{fill:#B8C8CE;}
	.st23{fill:#547E1B;}
	.st24{fill:#96AC6D;}
	.st25{fill:#A7CFD4;}
	.st26{fill:#010101;}
	.st27{fill:#020202;}
	.st28{fill:#040404;}
	.st29{fill:#292727;}
	.st30{fill:#5C5959;}
	.st31{fill:#504C4C;}
	.st32{fill:#343030;}
	.st33{fill:#4F4C4C;}
	.st34{fill:#EBC477;}
	.st35{fill:#97AEAE;}
	.st36{fill:#3E2E2E;}
	.st37{fill:#382E2E;}
	.st38{fill:#DF9815;}
	.st39{fill:#0099B5;}
	.st40{fill:#1EB53A;}
	.st41{fill:#1FB53B;}
	.st42{fill:#20B63C;}
	.st43{fill:#41C15A;}
	.st44{fill:#6CCD7B;}
	.st45{fill:#51C667;}
	.st46{fill:#93CF8A;}
	.st47{fill:#99D99B;}
	.st48{fill:#3BBC4E;}
	.st49{fill:#8AD99B;}
	.st50{fill:#43BC4E;}
	.st51{fill:#DF9916;}
	.st52{fill:#AF1010;}
	.st53{fill:#E9B759;}
	.st54{fill:#E6AC41;}
	.st55{fill:#EDBE6B;}
	.st56{fill:#E6A026;}
	.st57{fill:#E6A530;}
	.st58{fill:#BEB9C0;}
	.st59{fill:#EBA7A7;}
</style>
<g>
	<path class="st0" d="M90.25,524.4c-3.1-0.72-5.92-1.79-8.62-3.17c-4.05-2.06-7.03-5.2-9.38-8.97c-0.35-0.57-0.6-1.22-0.82-1.85   c-0.73-2.08-0.48-2.43,1.67-2.35c0.69,0.03,1.38,0.15,2.06,0.12c3.79-0.13,6.07-3.06,5.24-6.72c-0.72-3.18-3.24-5.4-6.54-5.78   c-3.01-0.34-4.56,0.71-5.43,3.6c-0.26,0.86-0.03,2.18-1.31,2.32c-1.31,0.14-1.74-1.06-2.22-2c-3.03-5.93-4.48-12.11-3.1-18.75   c0.48-2.33,0.39-2.29-1.66-3.59c-5.84-3.72-9.53-9.06-11.81-15.42c-0.19-0.54-0.37-1.12-0.37-1.68c0-0.94,0.56-1.44,1.54-1.2   c0.76,0.18,1.48,0.53,2.23,0.73c4.07,1.06,7.11-1.3,6.83-5.43c-0.19-2.88-1.05-5.49-3.9-7.02c-3.11-1.67-6.04-0.92-7.81,2.08   c-0.24,0.42-0.39,0.89-0.65,1.29c-0.5,0.8-1.1,0.67-1.66,0.06c-0.19-0.21-0.32-0.49-0.43-0.75c-1.89-4.5-3.21-9.12-2.6-14.06   c0.24-1.92,0.82-3.79,1.96-5.4c0.87-1.23,0.89-1.97-0.56-2.96c-6.21-4.24-8.77-10.43-9.15-17.61c-0.16-2.95,0.21-3.14,2.8-1.83   c1.88,0.94,3.87,1.59,5.95,1.38c4.75-0.49,7.41-6.48,4.76-10.5c-2.28-3.48-6.85-4.39-10.29-2.05c-0.89,0.6-1.72,1.29-2.6,1.9   c-0.83,0.58-1.47,0.31-1.91-0.54c-0.45-0.88-0.57-1.83-0.6-2.81c-0.2-6.36,1.4-12.23,5.14-17.44c0.77-1.07,0.77-1.64-0.01-2.7   c-3.53-4.75-4.96-10.2-5.19-16c-0.03-0.67,0.02-1.35,0.1-2.02c0.13-1.14,0.12-2.5,1.4-2.96c1.05-0.39,1.77,0.68,2.49,1.26   c2.17,1.72,4.41,2.85,7.3,1.89c4.75-1.57,6.72-7.04,3.86-11.08c-1.4-1.97-3.51-2.73-5.93-2.46c-1.77,0.19-3.42,0.75-5.01,1.6   c-1.84,0.99-2.29,0.75-2.26-1.25c0.11-7.31,2.57-13.58,8.65-18.18c1.99-1.5,2.04-1.51,0.88-3.5c-1.3-2.24-1.87-4.64-1.92-7.19   c-0.08-4.13,1.12-7.99,2.61-11.78c0.24-0.62,0.52-1.37,1.29-1.47c0.87-0.11,1.09,0.7,1.34,1.31c0.97,2.33,2.81,3.58,5.28,3.43   c2.6-0.16,4.64-1.49,5.7-3.96c0.58-1.34,1-2.7,1.01-4.19c0.03-3.79-2.84-6.09-6.61-5.22c-0.57,0.13-1.13,0.34-1.69,0.51   c-2.11,0.63-2.68,0.12-2.14-2.03c0.26-1.02,0.57-2.06,1.05-3c2.74-5.43,6.08-10.4,11.72-13.37c1.49-0.79,1.18-1.8,0.93-2.92   c-1.45-6.41-0.14-12.44,2.63-18.26c0.37-0.78,0.8-1.57,1.36-2.21c0.86-0.97,1.76-0.78,2.22,0.39c0.21,0.54,0.27,1.13,0.43,1.68   c0.79,2.61,2.59,3.69,5.35,3.37c3.06-0.36,5.04-2.08,6.2-4.73c1.58-3.65-0.38-8.02-5.47-7.85c-4.04,0.13-4.41-0.48-2.33-4.05   c3.45-5.92,8.8-9.47,15.35-11.43c0.83-0.25,1.67-0.46,2.64-0.72c-0.5-2.58-0.64-5.05-0.39-7.54c0.55-5.66,3.44-9.94,8.09-13.17   c1.5-1.04,2.33-0.66,2.56,1.07c0.06,0.48,0.03,0.97,0.09,1.44c0.46,3.38,2.95,5.11,6.49,4.51c2.74-0.46,5.06-3.86,4.48-6.56   c-0.51-2.36-3.46-4.1-6.51-3.85c-0.9,0.07-2.05,0.95-2.61-0.33c-0.44-1,0.5-1.81,1.09-2.53c3.47-4.24,7.92-7.22,13.1-9.03   c2.12-0.74,3.33-1.77,4.08-3.94c1.32-3.84,3.41-7.37,6.21-10.43c1.32-1.45,2.79-2.72,4.65-3.48c1.02-0.41,1.55-0.01,1.48,1.01   c-0.09,1.44-0.31,2.85,0.21,4.29c0.94,2.59,2.3,3.67,4.69,3.56c2.67-0.12,5.11-2.05,5.56-4.4c0.64-3.34-1.19-5.74-4.66-6.31   c-1-0.17-2.38,0.3-2.93-0.87c-0.62-1.32,0.65-2.09,1.34-2.97c4.56-5.74,10.74-7.45,17.83-6.75c2.33,0.23,2.31,0.3,3.01-2   c1.65-5.4,4.41-10.08,9.08-13.53c1.42-1.05,2.88-2.02,4.59-2.56c2.03-0.64,2.56-0.22,2.32,1.78c-0.05,0.38-0.21,0.75-0.24,1.13   c-0.34,4.11,3.22,6.96,7.28,5.83c3.53-0.98,5.71-3.77,5.65-7.21c-0.04-2.36-1.14-3.77-3.48-4.4c-0.56-0.15-1.18-0.15-1.72-0.35   c-1.01-0.39-1.24-1.29-0.49-2.05c0.46-0.47,1.08-0.83,1.69-1.12c5.87-2.78,11.94-4.46,18.53-3.04c0.48,0.1,0.99,0.06,1.46,0.2   c1.13,0.33,1.76-0.03,2.34-1.06c3.18-5.68,8.43-9.01,14.21-11.68c0.88-0.41,1.85-0.65,2.81-0.85c1.84-0.38,2.37,0.19,1.82,1.91   c-0.36,1.1-0.79,2.18-0.75,3.37c0.1,3.11,2.06,5.09,5.22,5c2.92-0.09,5.69-0.71,7.43-3.37c2.16-3.3,1.37-6.38-2.14-8.25   c-0.59-0.32-1.44-0.39-1.5-1.19c-0.08-0.98,0.82-1.24,1.53-1.5c4.92-1.76,9.85-3.35,15.23-2.17c1.77,0.39,3.35,1.11,4.85,2.02   c0.96,0.58,1.53,0.42,2.16-0.5c4.25-6.16,10.48-8.76,17.78-9.36c0.49-0.04,0.99-0.05,1.47-0.02c1.89,0.13,2.13,0.48,1.25,2.08   c-0.71,1.29-1.3,2.6-1.61,4.02c-0.64,2.91,0.45,5.98,2.71,7.06c3.03,1.44,6.51,1.7,9.01-0.85c2.36-2.4,2.99-5.53,1.47-8.2   c-0.62-1.08-1.51-2.02-2.22-3.06c-0.95-1.39-0.74-1.95,0.9-2.51c2.01-0.69,4.1-0.6,6.13-0.31c5.1,0.71,10.05,1.96,14.17,5.22   c1.11,0.88,1.71,0.24,2.53-0.32c4.72-3.27,10.09-4.63,15.77-5.04c0.68-0.05,1.38-0.02,2.06,0.05c1.25,0.13,2.77,0.05,3.42,1.25   c0.69,1.27-0.73,2.08-1.41,2.91c-2.96,3.6-2.71,6.33-0.05,9.65c1.94,2.42,5.19,2.92,8.64,1.58c2.41-0.94,3.67-3.32,3.47-6.41   c-0.08-1.18-0.42-2.27-0.8-3.36c-0.38-1.08-1.34-1.9-1.47-3.12c0.99-0.95,2.22-0.69,3.36-0.6c7.3,0.59,13.54,3.17,17.76,9.37   c0.63,0.93,1.24,1,2.19,0.43c6.85-4.14,13.62-2.18,20.37,0.32c0.66,0.24,1.35,0.58,1.26,1.39c-0.07,0.62-0.7,0.84-1.26,1.06   c-2.33,0.93-3.74,2.65-3.59,5.11c0.17,2.69,1.65,4.69,4.26,5.75c1.09,0.45,2.23,0.75,3.41,0.88c4.32,0.47,6.94-2.46,5.91-6.62   c-0.09-0.37-0.16-0.76-0.28-1.12c-0.26-0.79-0.95-1.59-0.08-2.38c0.82-0.75,1.74-0.19,2.51,0.07c6.39,2.17,11.86,5.68,15.52,11.35   c1.16,1.79,2.27,2.33,4.23,1.88c6.02-1.4,11.7-0.09,17.22,2.27c0.54,0.23,1.08,0.47,1.6,0.75c0.94,0.5,2.2,0.91,2.05,2.17   c-0.14,1.18-1.42,1.06-2.35,1.28c-2.94,0.72-4.23,2.67-3.76,5.58c0.53,3.28,3.74,6.33,7.05,6.4c3.64,0.07,6.02-2.43,5.83-6.13   c-0.19-3.61,0.48-4.02,3.84-2.19c3.94,2.15,7.15,5.11,9.27,9.07c1.23,2.3,2.44,4.64,2.9,7.24c0.22,1.25,0.82,1.44,2.06,1.23   c5.57-0.95,10.75,0,15.37,3.37c1.77,1.29,3.12,2.94,4.36,4.68c0.86,1.21,0.49,1.9-1.03,2.18c-0.67,0.13-1.36,0.2-2.05,0.23   c-2.3,0.1-3.57,1.36-4.17,3.44c-0.65,2.26-0.17,4.22,1.69,5.73c1.69,1.37,3.64,1.96,5.77,1.17c1.79-0.66,3.24-3.55,3.04-5.84   c-0.05-0.57-0.28-1.14-0.29-1.7c-0.02-1.03,0.53-1.41,1.52-0.99c1.1,0.46,2.05,1.14,2.91,1.95c3.88,3.62,6.54,7.91,7.5,13.14   c0.48,2.64,0.53,2.61,3.11,3.12c5.27,1.04,9.76,3.48,13.43,7.32c0.67,0.7,1.22,1.51,1.78,2.3c0.4,0.56,0.76,1.21,0.25,1.86   c-0.43,0.53-1.06,0.36-1.64,0.2c-0.87-0.24-1.73-0.26-2.62-0.06c-3.63,0.79-5.19,2.81-4.51,5.86c0.72,3.22,3.51,5.02,6.83,4.4   c2.61-0.49,3.63-1.72,3.94-4.64c0.11-1-0.35-2.3,0.95-2.8c1.23-0.47,1.98,0.63,2.79,1.25c5.81,4.44,7.84,10.38,7.02,17.4   c-0.35,2.97-0.67,2.36,2.21,3.22c5.7,1.7,10.59,4.57,14.1,9.44c0.74,1.03,1.44,2.07,1.92,3.24c1.05,2.57,0.72,3.03-2.07,2.88   c-3.97-0.21-6.26,1.26-6.83,4.4c-0.53,2.91,1.92,6.79,4.99,7.73c4.5,1.37,6.91-0.64,7.29-3.85c0.09-0.77,0.14-1.63,1.16-1.76   c0.92-0.12,1.45,0.52,1.8,1.24c2.64,5.34,4.93,10.76,3.8,16.9c-0.56,3.09-1.15,6.12,3.04,7.26c4.57,3.71,7.89,8.29,9.98,13.73   c0.17,0.45,0.29,0.92,0.36,1.39c0.32,2.05-0.15,2.49-2.16,1.78c-2.04-0.71-4-0.97-5.97,0.13c-1.07,0.6-1.81,1.4-2.18,2.6   c-1,3.26,0.92,7.88,4.01,9.44c3.03,1.54,5.83,0.73,7.54-2.16c0.15-0.25,0.29-0.51,0.4-0.77c0.23-0.55,0.46-1.13,1.18-1.07   c0.67,0.06,0.94,0.65,1.18,1.17c1.29,2.74,2.05,5.63,2.49,8.59c0.58,3.9,0.31,7.73-1.98,11.14c-0.89,1.33-0.41,1.92,0.75,2.75   c6.3,4.49,9,10.75,9.01,18.24c0,2.25-0.31,2.42-2.33,1.38c-2.05-1.05-4.19-1.84-6.49-1.52c-4.83,0.66-7.29,6.94-4.34,10.84   c2.37,3.14,6.62,3.89,9.93,1.74c0.82-0.53,1.54-1.21,2.36-1.74c1.42-0.92,1.99-0.68,2.52,0.96c0.93,2.88,0.43,5.76-0.15,8.59   c-0.84,4.08-2.1,8.05-4.91,11.32c-0.77,0.9-0.5,1.4,0.12,2.19c3.68,4.69,4.9,10.21,5.43,15.94c0.05,0.57,0.04,1.17-0.09,1.73   c-0.26,1.19,0.02,2.78-1.25,3.39c-1.41,0.68-2.28-0.78-3.21-1.52c-3.8-2.99-7.23-2.12-10.07,0.48c-2.32,2.11-2.13,4.79-1.37,7.53   c0.69,2.49,2.6,3.61,4.93,3.99c2.18,0.35,4.26-0.33,6.23-1.32c2.48-1.24,2.77-1.08,2.71,1.68c-0.18,7.37-2.91,13.52-9.17,17.87   c-1.09,0.76-1.39,1.34-0.66,2.56c4.01,6.63,2.11,13.19-0.4,19.72c-0.24,0.63-0.59,1.34-1.4,1.28c-0.65-0.04-0.84-0.7-1.08-1.24   c-0.7-1.56-1.71-2.78-3.49-3.27c-2.71-0.74-5.9,0.55-7.22,3.15c-0.61,1.19-1.05,2.51-1.3,3.82c-0.8,4.2,2.53,7.17,6.77,6.13   c0.29-0.07,0.56-0.2,0.85-0.25c0.84-0.12,1.67-1.07,2.48-0.38c0.99,0.85,0.48,2.05,0.12,2.98c-2.43,6.27-6.03,11.71-12.02,15.25   c-1.39,0.82-1.9,1.5-1.49,3.15c1.5,6.06,0.32,11.85-2.21,17.45c-0.4,0.88-0.84,1.74-1.31,2.59c-0.4,0.71-0.99,1.29-1.89,1.06   c-0.78-0.2-0.87-0.95-0.98-1.63c-0.29-1.79-0.91-3.44-2.85-4.04c-2.54-0.8-4.92-0.28-6.83,1.53c-1.91,1.81-3.17,3.98-2.47,6.73   c0.69,2.73,2.78,4.09,6.01,4c3.67-0.1,4.11,0.53,2.31,3.77c-2.07,3.71-4.96,6.73-8.72,8.83c-2.3,1.28-4.72,2.35-7.31,3.03   c-2.48,0.65-2.11,0.41-1.79,2.7c0.72,5.17-0.18,9.96-3.35,14.26c-1.29,1.76-2.95,3.1-4.71,4.34c-1.5,1.05-2.34,0.65-2.59-1.1   c-0.07-0.48-0.07-0.96-0.08-1.44c-0.04-2.19-1.13-3.63-3.24-4.32c-2.3-0.76-4.72-0.15-6.16,1.6c-1.45,1.77-2.12,3.81-1,5.92   c1.18,2.24,3.51,2.57,5.81,2.71c0.47,0.03,0.96-0.23,1.44-0.27c1.21-0.09,1.7,0.49,1.25,1.56c-0.46,1.07-1.19,1.99-2.01,2.84   c-3.92,4.05-8.63,6.68-14.3,7.45c-1.47,0.2-1.95,0.73-2.15,2.1c-0.82,5.54-3.46,10.18-7.6,14.02c-0.86,0.8-1.79,1.52-2.89,1.97   c-1.14,0.48-1.79,0.08-1.59-1.13c0.22-1.35,0.35-2.63-0.1-3.97c-0.97-2.89-2.73-4.11-5.47-3.64c-2.99,0.5-5.21,3.16-4.94,5.91   c0.27,2.84,1.65,4.17,4.61,4.73c1.09,0.2,2.65-0.39,3.17,0.95c0.55,1.4-0.89,2.23-1.65,3.15c-4.67,5.63-10.87,7.27-17.96,6.43   c-2.02-0.24-2.01-0.29-2.53,1.57c-1.69,5.94-4.73,10.98-9.98,14.58c-1.38,0.94-2.81,1.77-4.46,2.18c-1.14,0.28-1.72-0.09-1.67-1.26   c0.04-0.87,0.19-1.73,0.16-2.6c-0.12-3.8-3.39-6.14-7.12-5.07c-3.21,0.92-5.24,2.96-5.75,6.27c-0.42,2.77,0.89,4.69,3.67,5.38   c0.93,0.23,2.24,0.08,2.43,1.2c0.25,1.42-1.16,1.85-2.19,2.34c-5.78,2.74-11.75,4.4-18.24,3.02c-0.48-0.1-0.99-0.07-1.46-0.19   c-1.22-0.31-1.97,0.05-2.62,1.18c-3.31,5.72-8.62,9.1-14.56,11.7c-0.8,0.35-1.67,0.58-2.54,0.73c-1.63,0.29-2.21-0.33-1.65-1.92   c0.66-1.86,1.17-3.66,0.26-5.59c-0.76-1.62-1.89-2.6-3.78-2.79c-3.77-0.38-7.5,1.38-8.94,4.32c-1.34,2.73-0.54,5.41,2.11,6.98   c0.5,0.3,1.09,0.45,1.58,0.76c0.74,0.46,0.8,1.06,0.14,1.65c-0.21,0.19-0.48,0.33-0.75,0.44c-4.99,1.89-10,3.48-15.49,2.36   c-1.78-0.36-3.38-1.03-4.87-1.97c-1.08-0.68-1.69-0.46-2.39,0.55c-4.34,6.28-10.74,8.72-18.14,9.26c-0.58,0.04-1.19,0.01-1.77-0.07   c-1-0.14-1.4-0.63-0.8-1.58c1.11-1.74,1.89-3.58,1.99-5.67c0.14-2.77-0.98-5.16-3.13-6.03c-2.85-1.15-5.79-1.58-8.3,0.7   c-2.33,2.12-4.22,5.71-1.21,9.56c0.6,0.76,1.25,1.5,1.78,2.31c0.72,1.11,0.5,1.66-0.82,2.15c-2.09,0.77-4.28,0.69-6.42,0.4   c-5.11-0.7-10.05-1.98-14.18-5.2c-1.12-0.87-1.69-0.27-2.52,0.3c-5.17,3.53-10.98,5.01-17.23,5.03c-0.2,0-0.39-0.01-0.59-0.03   c-1.26-0.14-2.78-0.06-3.4-1.28c-0.63-1.25,0.76-2.05,1.43-2.93c2.81-3.73,2.59-7.41-0.66-10.3c-2.39-2.13-5.63-1.91-8.57-0.55   c-2.14,0.99-3.31,3.76-2.91,6.45c0.27,1.84,1.01,3.51,1.99,5.1c0.55,0.9,0.21,1.43-0.83,1.6c-1.59,0.25-3.13-0.13-4.69-0.32   c-6.17-0.76-11.14-3.56-14.88-8.44c-1.29-1.68-1.31-1.72-3.21-0.66c-3.59,2-7.39,2.45-11.4,1.68c-2.7-0.52-5.39-1.1-7.92-2.19   c-0.69-0.3-1.62-0.47-1.61-1.46c0-0.84,0.8-0.97,1.42-1.24c2.2-0.95,3.42-2.58,3.32-4.97c-0.11-2.5-1.3-4.4-3.61-5.55   c-1.42-0.7-2.93-1.11-4.53-1.16c-3.65-0.13-5.94,2.23-5.55,5.79c0.08,0.76,0.39,1.49,0.58,2.23c0.18,0.7,0.87,1.38,0.04,2.1   c-0.74,0.64-1.49,0.27-2.22,0.04c-6.65-2.13-12.19-5.76-16.05-11.58c-1.66-2.5-0.78-2.32-3.89-1.7   c-6.39,1.27-12.29-0.06-18.06-2.58c-0.63-0.27-1.22-0.62-1.82-0.96c-0.72-0.41-1.3-0.95-1.1-1.85c0.18-0.8,0.94-0.87,1.61-1.04   c4.39-1.16,5.79-4.49,3.47-8.32c-1.35-2.22-3.49-3.43-6.02-3.73c-3.46-0.41-6.3,2.73-5.9,6.35c0.1,0.92,0.83,2.03-0.11,2.69   c-1.08,0.77-2.26-0.01-3.27-0.52c-4.22-2.13-7.5-5.26-9.76-9.35c-1.22-2.2-2.33-4.49-2.84-6.96c-0.28-1.34-0.7-1.64-2.14-1.41   c-5.67,0.93-10.94-0.07-15.59-3.6c-1.59-1.2-2.76-2.75-3.94-4.28c-0.97-1.27-0.53-2.08,1.07-2.37c0.68-0.12,1.36-0.22,2.05-0.25   c2.35-0.11,3.5-1.55,4.08-3.56c0.67-2.34-0.12-4.56-2.11-5.88c-1.8-1.19-3.73-1.71-5.83-0.68c-0.84,0.41-1.37,1.1-1.75,1.89   c-0.63,1.33-0.99,2.7-0.83,4.2c0.09,0.8,0.64,1.86-0.43,2.31c-0.89,0.37-1.68-0.4-2.35-0.92c-4.85-3.72-7.85-8.56-8.99-14.48   c-0.46-2.37-0.41-2.36-3-2.87c-5.28-1.02-9.77-3.45-13.44-7.31c-0.6-0.63-1.17-1.31-1.64-2.04c-0.39-0.61-1.13-1.26-0.52-2.07   c0.5-0.66,1.23-0.39,1.91-0.21c1.09,0.28,2.12,0.1,3.18-0.23c2.61-0.82,3.83-2.02,3.99-4.06c0.17-2.13-1.45-4.82-3.41-5.68   c-1.85-0.82-4.99-0.3-6.39,1.01c-0.53,0.5-0.7,1.13-0.92,1.77c-0.33,0.93-0.31,1.89-0.42,2.85c-0.2,1.74-1.06,2.13-2.55,1.09   c-3.89-2.72-6.68-6.2-7.7-10.89C89.53,530.98,89.57,527.76,90.25,524.4z"/>
	<path class="st1" d="M296.18,129.52c4.91-0.6,10.32-0.31,15.71-0.36c4.6-0.05,9.24,0.12,13.85,0.45   c5.49,0.39,10.96,0.98,16.44,1.46c11.22,0.98,22.06,3.68,32.85,6.69c14.49,4.05,28.66,8.95,42.44,14.89   c9.83,4.23,19,9.67,28.01,15.39c11.61,7.38,22.11,16.09,32.22,25.27c9.89,8.98,19.05,18.64,27.87,28.66   c9.06,10.28,16.65,21.51,23.67,33.12c4.61,7.62,8.57,15.63,11.62,24c2.51,6.89,5.4,13.65,7.58,20.67   c4.11,13.28,8.41,26.52,10.03,40.38c1.06,9.09,1.95,18.2,2.11,27.37c0.15,8.37,0.23,16.75-0.24,25.1   c-0.94,16.78-3.25,33.33-8.25,49.51c-4.45,14.41-9.37,28.63-15.57,42.39c-4.29,9.53-9.84,18.43-15.66,27.16   c-7.62,11.43-16.55,21.82-26.01,31.77c-8.92,9.39-18.49,18.11-28.4,26.51c-10.56,8.94-22.06,16.49-34,23.41   c-7.77,4.51-15.94,8.41-24.47,11.42c-7.4,2.61-14.66,5.56-22.2,7.81c-14.12,4.2-28.22,8.46-42.99,9.85   c-7.43,0.7-14.87,1.32-22.35,1.62c-6.79,0.27-13.57,0.41-20.33,0.19c-14.94-0.47-29.9-1.31-44.48-4.75   c-13.37-3.16-26.63-6.83-39.42-11.9c-3.83-1.52-7.78-2.7-11.61-4.23c-15.77-6.32-30.05-15.15-43.89-24.74   c-5.55-3.85-10.54-8.39-15.68-12.73c-5.5-4.66-10.83-9.55-15.92-14.64c-6.33-6.33-12.36-12.94-18.32-19.63   c-9.05-10.16-16.56-21.33-23.54-32.85c-4.71-7.78-8.78-15.96-11.89-24.51c-2.54-6.99-5.45-13.84-7.66-20.95   c-4.3-13.83-8.67-27.65-10.16-42.11c-0.77-7.47-1.41-14.95-1.7-22.47c-0.25-6.46-0.38-12.91-0.2-19.36   c0.43-14.84,1.32-29.69,4.86-44.16c3.14-12.83,6.81-25.55,11.82-37.83c1.97-4.83,3.57-9.79,5.7-14.57   c4.97-11.17,11.18-21.64,17.99-31.82c7.37-11.02,16.03-21,25.13-30.61c8.97-9.47,18.6-18.27,28.59-26.74   c10.56-8.95,22.06-16.49,33.98-23.43c7.77-4.52,15.93-8.45,24.46-11.44c7.21-2.54,14.28-5.48,21.64-7.62   c11.87-3.44,23.65-7.2,35.95-9.05c6.62-0.99,13.27-1.53,19.93-2.09C289.03,129.72,292.36,129.33,296.18,129.52z"/>
	<path class="st2" d="M347.7,481.72c1.65,2.24,3.15,4.14,4.33,6.24c0.76,1.36,1.47,2.75,1.74,4.28c0.35,1.97-0.63,2.68-2.53,1.86   c-5.42-2.35-11.07-3.97-16.92-4.84c-3.09-0.46-6.21-0.89-9.35-0.9c-0.45,0.94,0.39,1.23,0.76,1.68c1.68,2.04,3.16,4.19,3.98,6.71   c0.21,0.64,0.39,1.29,0.48,1.96c0.11,0.77,0.15,1.6-0.66,2.07c-0.93,0.55-1.42-0.25-2-0.72c-7.52-6.15-16.46-9.27-25.78-11.57   c-0.65-0.16-1.34-0.35-2.1,0.15c1.28,2.59,2.28,5.29,2.3,8.24c0,0.57,0.08,1.15,0.03,1.72c-0.08,0.9-0.38,1.77-1.32,2.1   c-0.93,0.33-1.41-0.5-1.92-1.03c-5.52-5.75-12.19-10.02-18.93-14.2c-0.79-0.49-1.53-1.17-2.8-1.25c0.88,2.95,1.35,5.87,1.16,8.86   c-0.07,1.16-0.09,2.31-0.44,3.43c-0.27,0.88-0.03,2.1-1.37,2.25c-1.15,0.13-1.34-0.97-1.74-1.69c-1.5-2.72-3.18-5.32-4.93-7.89   c-3.66-5.34-8.35-9.71-13.44-13.71c-0.37-0.29-0.76-0.63-1.52-0.42c-0.22,2.08-0.11,4.29-0.77,6.41c-0.49,1.57-0.94,3.14-1.74,4.6   c-0.47,0.86-0.97,1.77-2.17,1.66c-1.11-0.1-1.26-1.04-1.53-1.88c-2.62-8.01-7.22-14.94-12.32-21.6c-0.29-0.38-0.65-0.7-0.99-1.03   c-0.04-0.04-0.17,0-0.52,0.02c-0.4,1.48-0.32,3.12-0.67,4.67c-0.36,1.63-1,3.12-1.6,4.64c-0.37,0.93-0.94,1.81-2.08,1.77   c-1.37-0.05-1.33-1.31-1.46-2.18c-1.11-7.26-4.22-13.8-7.47-20.3c-0.26-0.52-0.54-1.03-0.85-1.51c-0.09-0.14-0.32-0.2-0.5-0.32   c-0.99,1.96-1.97,3.93-2.98,5.88c-0.58,1.13-1.42,2.08-2.38,2.93c-0.55,0.48-1.16,0.79-1.88,0.54c-0.79-0.27-0.85-0.99-0.84-1.68   c0.03-1.54,0.12-3.09,0.13-4.63c0.07-8.08-2.46-15.5-6.04-23.28c-1.49,3.42-3.3,6.07-5.43,8.5c-1.02,1.17-2.01,2.38-3.35,3.23   c-0.58,0.36-1.22,0.75-1.9,0.21c-0.52-0.41-0.54-1.02-0.35-1.59c1.84-5.56,2.13-11.35,2.57-17.1c0.3-3.91,0.48-7.86-0.25-11.8   c-1.23,0-1.6,0.92-2.19,1.46c-2.31,2.14-4.92,3.84-7.72,5.27c-0.76,0.39-1.49,0.54-2.14-0.16c-0.56-0.61-0.35-1.21-0.02-1.86   c3.63-7.14,5.71-14.73,6.94-22.58c0.27-1.72,0.38-3.44,0.29-5.33c-1.4,0.19-2.33,1.11-3.42,1.65c-1.95,0.95-3.97,1.67-6.13,1.99   c-0.8,0.12-1.61,0.02-2.09-0.75c-0.46-0.75-0.28-1.51,0.21-2.16c0.76-1.01,1.54-2,2.38-2.94c3.77-4.22,6.29-9.06,7.63-14.5   c0.18-0.73,0.49-1.47,0.02-2.37c-2.19,1.09-4.51,1.78-6.9,2.24c-1.08,0.21-2.16,0.34-3.21,0.02c-1.47-0.45-1.71-1.56-0.57-2.58   c0.5-0.45,1.14-0.76,1.66-1.2c5.19-4.43,8.45-10.08,10.76-16.33c0.17-0.45,0.4-0.96,0.03-1.36c-0.5-0.55-1.09-0.17-1.63,0.02   c-2.71,0.92-5.49,1.48-8.37,1.45c-0.58-0.01-1.21,0-1.74-0.2c-1.19-0.45-1.33-1.75-0.32-2.5c0.31-0.23,0.69-0.36,1.05-0.52   c8.11-3.75,13.96-9.86,18.66-17.16c0.52-0.81,0.99-1.66,1.45-2.51c0.08-0.14-0.01-0.37-0.03-0.7c-2.12-0.1-4.25-0.26-6.35-0.74   c-1.73-0.4-3.41-0.93-4.99-1.73c-0.68-0.34-1.59-0.59-1.56-1.53c0.03-0.94,0.87-1.18,1.65-1.39c2.66-0.74,5.15-1.9,7.68-2.96   c5.09-2.14,9.74-5.03,14.16-8.28c0.67-0.49,1.43-0.97,1.93-1.98c-3.27-0.07-6.34-0.5-9.27-1.62c-0.46-0.18-0.94-0.3-1.38-0.51   c-0.87-0.4-2.01-0.7-1.77-1.96c0.2-1.07,1.25-1.01,2.12-1.18c8.92-1.71,17.56-4.23,25.4-8.92c0.41-0.24,0.9-0.39,1.18-1.16   c-1.74-0.66-3.5-1.34-5.27-2.01c-1.47-0.56-2.91-1.18-4.13-2.19c-0.59-0.49-1.29-1.01-1.03-1.91c0.24-0.87,1.09-0.69,1.73-0.77   c6.54-0.84,12.97-2.13,19.32-3.85c2.08-0.56,4.13-1.21,6.54-1.92c-3.27-1.84-6.24-3.53-8.2-6.41c-0.47-0.69-1.45-1.31-0.81-2.25   c0.59-0.86,1.65-0.54,2.46-0.31c7.73,2.19,15.4,0.99,23.05-0.42c1.12-0.21,2.39-0.07,3.49-1.02c-0.32-1.09-1.18-1.87-1.95-2.67   c-1.58-1.66-2.52-3.67-3.34-5.74c-0.24-0.62-0.39-1.3-0.41-1.96c-0.04-1.46,0.64-1.97,2.06-1.4c2.45,1,4.85,2.12,7.25,3.23   c5.98,2.76,12.39,3.6,18.88,4.07c0.39,0.03,0.79,0,1.18-0.05c0.16-0.02,0.3-0.18,0.71-0.46c-1.18-1.6-2.49-3.14-3.47-4.87   c-1.16-2.04-2.07-4.15-2.57-6.43c-0.15-0.71-0.18-1.38,0.45-1.84c0.71-0.51,1.27,0,1.83,0.41c7.75,5.67,16.58,9.15,25.62,12.21   c1.02,0.35,2.05,0.6,3.42,0.64c-0.71-1.97-1.37-3.82-2.03-5.67c-0.69-1.93-1-3.92-0.88-5.97c0.03-0.58,0.12-1.23,0.76-1.45   c0.65-0.23,1.11,0.27,1.5,0.69c2.62,2.75,5.33,5.4,8.34,7.75c3.94,3.06,8.07,5.83,12.44,8.26c0.34,0.19,0.65,0.41,1.08,0.3   c0.34-0.57,0.08-1.12-0.1-1.66c-1.24-3.79-0.9-7.61-0.21-11.43c0.02-0.09,0.02-0.19,0.06-0.28c0.27-0.71,0.38-1.59,1.38-1.65   c0.83-0.05,1.11,0.63,1.47,1.22c1.72,2.81,3.47,5.6,5.22,8.4c2.64,4.21,5.61,8.15,9.44,11.42c1.49,1.27,3.08,2.34,4.97,3.29   c0.97-1.14,0.86-2.4,0.89-3.6c0.1-3.73,1.21-7.2,2.86-10.53c0.34-0.68,0.72-1.53,1.7-1.28c0.77,0.2,0.76,1,0.92,1.67   c2.25,9.29,5.79,18,11.99,25.5c0.3,0.37,0.64,0.7,1.25,1.36c0.33-1.34,0.63-2.38,0.84-3.44c0.6-3.06,1.8-5.9,3.31-8.62   c0.19-0.34,0.39-0.67,0.62-0.98c0.37-0.49,0.83-0.85,1.5-0.62c0.56,0.19,0.57,0.71,0.64,1.18c0.3,2.1,0.57,4.2,0.93,6.28   c1.13,6.56,3.91,12.47,7.37,18.12c0.99-0.2,0.87-0.98,1.07-1.56c0.61-1.83,1.28-3.64,2.21-5.35c0.71-1.3,1.65-2.39,2.83-3.3   c0.4-0.3,0.83-0.54,1.34-0.31c0.54,0.24,0.66,0.75,0.54,1.22c-1.35,5.28,0.2,10.33,1.37,15.38c1.05,4.49,2.38,8.92,4.49,13.29   c1.12-0.63,1.32-1.73,1.74-2.61c1.48-3.11,3.53-5.78,6.13-8.06c0.44-0.38,0.87-0.81,1.37-1.09c1.44-0.8,2.36-0.29,2.15,1.3   c-0.22,1.71-0.8,3.38-1.07,5.09c-0.71,4.47-1.18,8.96-1.41,13.5c-0.17,3.35-0.57,6.69-0.3,10.06c1.1,0.39,1.47-0.5,1.98-0.97   c2.39-2.19,5.02-4.03,7.99-5.39c0.76-0.35,1.58-1.07,2.42-0.24c0.85,0.85,0.4,1.75-0.05,2.65c-2.73,5.37-4.69,11.01-6.26,16.81   c-0.9,3.35-1.05,6.79-1.61,10.94c1.64-1.35,2.77-2.22,3.82-3.16c1.32-1.18,2.82-2.09,4.43-2.84c1.13-0.53,2.25-0.89,3.21,0.22   c0.81,0.95,0.12,1.79-0.34,2.64c-3.18,5.88-6.12,11.87-8.51,18.11c-1,2.6-1.82,5.25-2.43,8.2c2.28-1.1,4.31-2.16,6.42-3.07   c1.34-0.58,2.8-0.9,4.2-1.36c1.05-0.34,2.19-0.77,2.89,0.44c0.78,1.33-0.56,1.82-1.29,2.51c-4.95,4.63-9.05,9.9-12.37,15.75   c-0.33,0.58-0.74,1.14-0.73,2.02c1.42-0.39,2.81-0.74,4.18-1.17c1.44-0.45,2.91-0.42,4.39-0.43c0.99-0.01,2.11-0.1,2.58,0.97   c0.55,1.25-0.68,1.65-1.4,2.2c-6.02,4.62-10.96,10.22-15.44,16.24c-0.52,0.7-0.98,1.45-1.44,2.19c-0.09,0.15-0.08,0.36-0.17,0.77   c1.48,0.29,2.96,0.57,4.44,0.89c2.13,0.46,4.14,1.23,5.98,2.39c0.9,0.57,1.99,1.14,1.8,2.41c-0.2,1.37-1.48,1.32-2.51,1.54   c-8.09,1.69-15,5.58-21.15,10.89c-0.06,0.05-0.06,0.17-0.15,0.43c0.67,0.43,1.46,0.2,2.18,0.21c4.22,0.09,7.79,1.76,11.02,4.3   c0.62,0.49,1.36,0.94,1.12,1.86c-0.26,1.01-1.2,1.23-2.08,1.33c-2.34,0.27-4.7,0.39-7.03,0.72c-8.04,1.11-15.64,3.59-23.02,7.09   c0.62,0.78,1.41,0.79,2.12,1c2.94,0.84,5.79,1.89,8.18,3.84c0.6,0.49,1.38,0.96,1.13,1.86c-0.28,1.04-1.3,1.06-2.16,1.13   c-0.88,0.07-1.77,0.03-2.66,0.02c-7.78-0.09-15.15,1.86-22.78,4.36c2.37,1.49,4.58,2.72,6.26,4.61c0.98,1.1,1.88,2.25,2.35,3.64   c0.39,1.15-0.23,1.95-1.45,1.88c-0.97-0.05-1.93-0.33-2.89-0.54c-7.7-1.62-15.42-1.43-23.16-0.38   C349.58,481.09,348.84,481.4,347.7,481.72z"/>
	<path class="st3" d="M289.41,197.77c-7.87-5.41-16.42-7.59-25.94-5.29c-1.94,0.47-3.65,1.36-5.33,2.39   c-2.27,1.38-3.44,1.03-4.19-1.41c-1.25-4.07,0.09-7.62,2.84-10.64c0.93-1.02,1.45-1.61,0.85-3.1c-1.2-2.97,0.18-5.98,3.41-7.7   c1.23-0.65,1.82-1.31,2.11-2.69c0.52-2.44,2.04-3.41,4.73-3.43c4.15-0.04,7.91,1.46,11.54,3.17c9.79,4.61,15.94,10.79,21.32,21.13   c0.94-0.11,0.59-0.87,0.59-1.32c0.05-6.05-1.75-11.58-4.95-16.7c-0.99-1.58-2.31-2.89-3.84-3.96c-4.29-3.01-9.07-4.98-14.18-6.17   c-1.73-0.4-3.52-0.35-5.29-0.15c-0.96,0.11-1.74-0.1-2.19-1.04c-0.49-1.02,0.13-1.68,0.78-2.26c2.95-2.66,6.47-4.33,10.29-5.39   c2.47-0.69,5.04-0.7,7.48-0.69c0.21-0.27,0.4-0.4,0.42-0.56c0.59-4.99,2.41-6.4,7.43-5.63c0.96,0.15,1.95,0.41,2.8,0.85   c1.01,0.52,1.64,0.3,2.22-0.54c0.16-0.24,0.37-0.45,0.59-0.64c4.06-3.47,6.57-3.58,10.48,0.11c1.31,1.24,2.19,1.54,3.7,0.72   c1.04-0.56,2.26-0.6,3.45-0.63c3.59-0.11,5.08,0.9,5.7,4.41c0.28,1.57,0.82,2.01,2.38,1.95c5-0.19,9.43,1.58,13.58,4.14   c0.91,0.56,1.72,1.28,2.53,1.98c0.72,0.62,1.09,1.41,0.63,2.32c-0.39,0.78-1.13,1.02-1.99,0.92c-0.1-0.01-0.2-0.01-0.29-0.02   c-7.61-0.5-13.94,2.7-19.89,6.8c-3.45,2.38-5.01,6.15-6.42,9.85c-1.42,3.72-2.06,7.62-1.87,11.63c1.11,0.18,1.05-0.74,1.3-1.26   c5.89-11.85,15.71-18.94,28.4-22.58c1.35-0.39,2.71-0.46,4.09-0.42c2.57,0.08,4.14,1.21,4.48,3.69c0.18,1.3,0.8,1.7,1.79,2.24   c3.7,1.99,4.79,4.69,3.41,8.66c-0.36,1.02,0.07,1.32,0.68,1.85c2.68,2.33,3.62,5.41,3.75,8.8c0.03,0.87-0.14,1.72-0.47,2.54   c-0.84,2.07-1.96,2.56-3.86,1.37c-6.42-4.02-13.3-4.28-20.41-2.46c-4.11,1.05-7.99,2.68-11.38,5.26c-0.22,0.28-0.46,0.56-0.72,0.78   c-0.32,0.08-0.31,0.14,0.05,0.1c0.39-0.05-0.14-0.12,0.26-0.12c0.53-0.07,1.08,0.16,1.57-0.17c3.89-0.54,7.78-1.13,11.68-1.6   c5.03-0.6,10.02-0.07,14.95,0.95c2.52,0.52,4.87,1.49,6.98,2.98c2.25,1.6,2.93,3.28,1.82,5.74c-0.56,1.25-0.32,2.07,0.22,3.16   c2.06,4.17,0.72,7.12-3.88,8.31c-1.18,0.31-1.3,0.7-1.24,1.74c0.15,2.63-0.32,5.19-1.54,7.56c-0.89,1.74-1.39,1.87-3.24,1.03   c-5.69-2.58-11.5-2.61-17.67-0.9c0.89,0.8,1.6,1.44,2.32,2.07c1.13,0.99,1.9,2.22,2.4,3.6c1.32,3.64-0.27,6.7-4.13,7.46   c-1.51,0.3-2.04,1.04-2.68,2.19c-2.23,4.03-5.61,6.62-10.27,7.48c-0.79,0.15-1.57,0.21-2.3-0.18c-1-0.52-1.46-1.29-0.97-2.38   c0.19-0.44,0.49-0.84,0.78-1.23c2.16-2.93,2.46-6.24,1.96-9.66c-0.7-4.84-4.09-7.36-8.51-9.38c-0.17,2.02-0.55,3.69-1.36,5.24   c-1.09,2.08-2.27,4.46-4.9,4.5c-2.8,0.04-4.01-2.45-5.12-4.62c-0.79-1.54-1.15-3.23-1.4-4.96c-8.61,3.52-11.17,11.3-6.38,18.98   c0.55,0.87,1.47,1.7,0.57,2.84c-0.84,1.08-2,1.06-3.21,0.84c-4.67-0.87-8.04-3.51-10.23-7.54c-0.67-1.23-1.31-1.81-2.74-2.11   c-3.88-0.83-5.42-4.12-3.89-7.79c0.45-1.08,1.03-2.09,1.89-2.91c0.83-0.8,1.71-1.54,2.71-2.44c-6.14-1.68-11.97-1.68-17.67,0.89   c-1.95,0.88-2.44,0.72-3.39-1.24c-1.3-2.69-1.55-5.54-1.31-8.42c-0.43-0.82-1.24-0.51-1.85-0.69c-3.76-1.13-5.28-4.15-3.61-7.7   c0.69-1.47,0.94-2.63,0.29-4.23c-0.87-2.15-0.05-3.82,1.96-5.24c2.19-1.54,4.64-2.48,7.26-3.05c6.63-1.44,13.27-1.39,19.93-0.29   c2.23,0.37,4.47,0.67,6.7,1.01c0.42,0.2,0.89,0.02,1.31,0.13c0.2-0.01,0.27-0.02,0.2-0.05c-0.07-0.03-0.13-0.04-0.2-0.05   C289.74,198.33,289.57,198.06,289.41,197.77z"/>
	<path class="st3" d="M126.45,358.09c-0.65-4.77-1.78-9.47-1.93-14.31c-0.13-4.36,0.22-8.66,1.24-12.91   c0.57-2.37,1.55-4.57,3.02-6.53c1.52-2.03,3.31-2.65,5.66-1.71c1.19,0.48,2.03,0.51,3.22-0.08c4.23-2.11,7.22-0.85,8.58,3.63   c0.37,1.22,0.86,1.38,2.01,1.33c2.69-0.13,5.27,0.41,7.7,1.59c1.16,0.56,1.71,1.41,1.1,2.56c-2.83,5.34-2.73,10.93-1.61,16.63   c0.05,0.27,0.12,0.55,0.18,0.83c0.99,0.34,1.12-0.59,1.52-1.01c1.07-1.15,2.2-2.18,3.66-2.85c4.12-1.88,7.56-0.42,8.54,3.91   c0.31,1.39,1.03,1.8,2.11,2.37c3.81,2,6.4,5.04,7.46,9.21c0.21,0.82,0.27,1.74,0.15,2.58c-0.22,1.54-1.35,2.06-2.78,1.39   c-0.27-0.12-0.51-0.3-0.76-0.45c-8.01-4.71-15.35-2.53-19.46,5.8c0.5,0.77,1.38,0.58,2.09,0.73c1.75,0.38,3.43,0.98,4.84,2.04   c3.68,2.78,4.17,4.7-0.15,7.83c-1.27,0.92-2.75,1.47-4.29,1.84c-0.84,0.2-1.68,0.4-2.54,0.61c3.79,8.42,11.55,10.81,19.41,6.11   c0.8-0.48,1.54-1.3,2.65-0.64c1.12,0.67,1.16,1.74,1.04,2.81c-0.55,4.69-3.29,7.97-7.28,10.28c-1.31,0.76-2.23,1.3-2.62,3.01   c-0.87,3.81-4.28,5.21-8.01,3.7c-2.17-0.88-3.65-2.54-5.3-4.62c-1.19,4.03-1.53,7.75-0.93,11.53c0.33,2.09,0.82,4.14,1.84,6.06   c0.9,1.69,0.6,2.28-1.22,3.15c-2.81,1.34-5.83,1.56-8.84,1.36c-0.14,0.29-0.24,0.45-0.29,0.63c-1.48,5.27-4.18,6.53-9.14,4.2   c-0.86-0.41-1.5-0.45-2.41-0.1c-3.05,1.17-4.67,0.59-6.51-2.08c-2.57-3.73-3.22-8.02-3.69-12.34c-0.66-6.2,0.23-12.3,1.37-18.38   c0.16-0.85,0.28-1.71,0.41-2.57c0.21-0.63,0.04-0.86-0.63-0.58c-5.24,7.32-7.75,15.28-6.01,24.27c0.48,2.5,1.43,4.77,2.85,6.9   c1.43,2.14,1.01,3.39-1.53,4.05c-4.36,1.14-8.14-0.17-11.25-3.25c-0.73-0.72-1.23-1.07-2.2-0.56c-3.22,1.71-7.14-0.52-8.41-3.23   c-0.58-1.24-1.37-1.77-2.74-2.06c-2.46-0.51-3.47-2-3.49-4.65c-0.02-3.45,1.12-6.67,2.56-9.72c4.54-9.64,11.07-17.48,21.23-21.91   c0.35-0.15,0.69-0.36,1.04-0.55c-0.23-0.78-0.91-0.62-1.41-0.61c-6.14,0.09-11.82,1.73-17.02,4.93c-1.77,1.09-3.24,2.52-4.38,4.23   c-2.99,4.47-5.22,9.26-6.1,14.59c-0.19,1.15-0.3,2.29-0.05,3.45c0.24,1.1,0.29,2.15-1,2.68c-1.29,0.53-2.08-0.35-2.74-1.16   c-2.71-3.37-4.73-7.08-5.43-11.38c-0.12-0.76-0.29-1.54-0.25-2.3c0.11-2.38-0.38-3.99-3.35-4.3c-2.19-0.23-3.24-2.04-3.25-4.22   c-0.01-1.84,0.18-3.68,1.08-5.33c0.45-0.83,0.49-1.42-0.39-1.92c-0.17-0.1-0.32-0.23-0.46-0.36c-3.94-3.8-4.01-7.22-0.05-10.93   c0.96-0.9,1.62-1.53,0.72-2.83c-0.62-0.89-0.64-2.01-0.77-3.06c-0.51-4.06,0.65-5.78,4.73-6.52c1.22-0.22,1.6-0.52,1.6-1.74   c-0.02-4.64,1.26-8.93,3.74-12.89c0.78-1.24,1.58-2.43,2.65-3.45c0.7-0.67,1.48-0.98,2.39-0.5c0.78,0.42,0.99,1.13,0.9,1.97   c-0.74,7.6,2.63,13.89,6.93,19.73c2.95,4.01,7.64,5.64,12.29,6.96c3.06,0.87,6.25,1.37,9.72,1.06c-0.44-1.04-1.28-1.14-1.91-1.44   c-11.94-5.83-18.98-15.51-22.64-27.81c-0.27-0.91-0.32-1.9-0.37-2.86c-0.16-3.36,0.86-4.69,4.3-5.4c0.78-0.16,1.16-0.4,1.46-1.11   c0.44-1.07,1.07-2.07,2-2.83c1.93-1.57,4.06-2.43,6.52-1.35c1.13,0.5,1.75,0.49,2.68-0.56c2.33-2.65,5.59-3.44,9.03-3.53   c0.76-0.02,1.56,0.21,2.29,0.47c2.25,0.78,2.74,1.99,1.35,3.94c-2.22,3.13-3.06,6.64-3.34,10.33c-0.58,7.75,1.9,14.6,6.43,20.84   C126.45,358.91,126.73,358.77,126.45,358.09z"/>
	<path class="st2" d="M409.94,510.25c3.29-7.93,9.08-14.03,15.25-19.82c2.26-2.12,4.41-4.34,6.77-6.37   c3.72-3.19,8.09-5.32,12.29-7.75c0.21-0.2,0.38-0.48,0.67-0.55c6.37-1.47,12.72-1.78,19.01,0.38c2.19,1.05,4.55,1.7,6.71,2.85   c12.33,6.6,16.17,22.62,8.49,34.02c-1.13,1.67-2.33,3.3-3.65,5.15c4.08,1.44,7.64,0.72,11.14-1.07c0.81-0.42,1.51-1.66,2.54-0.97   c1.03,0.69,0.61,1.98,0.41,2.97c-0.54,2.7-1.74,5.11-3.87,6.99c-0.8,0.71-1.63,1.37-2.45,2.06c0.07,1.11,1.09,1.58,1.55,2.4   c1.04,1.85,0.92,2.57-0.64,4.02c-1.23,1.15-2.87,1.63-4.47,2.65c1.06,1.8,1.76,3.67,2.05,5.67c0.44,3.02-0.53,4.04-3.68,3.99   c-1.81-0.03-3.52-0.47-5.08-1.32c-1.05-0.57-1.57-0.33-2.01,0.7c-0.49,1.16-1.11,2.25-1.99,3.19c-1.43,1.51-1.73,1.59-3.52,0.66   c-0.52-0.27-1-0.61-1.48-0.95c-0.39-0.28-0.75-0.61-1.09-0.88c-0.96,0.27-1.16,1.1-1.63,1.68c-2.13,2.61-4.97,4.02-8.2,4.8   c-0.38,0.09-0.78,0.12-1.17,0.11c-1.73-0.02-2.26-0.76-1.27-2.09c2.23-3.01,2.6-6.37,2.34-9.91c-0.05-0.65,0.12-1.47-0.69-1.75   c-0.61-0.21-1.08,0.35-1.53,0.7c-3.32,2.62-6.84,4.85-11.11,5.72c-13.29,2.72-25.28-3.87-29.31-16.26   c-0.21-0.64-0.43-1.28-0.65-1.92c-2.1-3.73-1.33-7.81-1.37-11.75C408.32,515.13,408,512.41,409.94,510.25z"/>
	<path class="st2" d="M171.95,476.33c1.28,0.7,2.51,1.51,3.85,2.08c3.65,1.58,6.72,4,9.57,6.61c4.29,3.93,8.43,8.03,12.47,12.21   c3.67,3.79,6.52,8.15,8.44,13.06c0.92,0.69,1.24,1.68,1.4,2.75c0.83,5.53,0.91,11.01-0.97,16.38c-0.52,0.4-0.48,1.02-0.64,1.57   c-2.84,9.82-12.68,17.29-22.97,17.15c-6.17-0.09-11.61-1.59-16.39-5.41c-0.81-0.65-1.75-1.15-2.88-1.89   c-1.24,3.52-0.82,6.64,0.52,9.72c0.19,0.44,0.47,0.85,0.69,1.28c0.42,0.81,1.66,1.53,0.93,2.49c-0.81,1.07-2.18,0.62-3.29,0.31   c-3.29-0.9-6.21-2.41-8.17-5.32c-0.21-0.32-0.51-0.58-0.78-0.85c-0.06-0.06-0.18-0.07-0.4-0.16c-0.78,0.58-1.58,1.27-2.48,1.81   c-1.68,1-2.25,0.88-3.55-0.55c-0.93-1.02-1.53-2.24-2.09-3.47c-0.4-0.87-0.94-1.1-1.86-0.61c-2.03,1.09-4.22,1.52-6.54,1.37   c-1.44-0.09-2.11-0.75-2.19-2.16c-0.13-2.17,0.21-4.25,1.29-6.15c0.64-1.13,0.39-1.7-0.78-2.21c-1.07-0.47-2.11-1.05-3.04-1.75   c-1.77-1.33-1.85-2.05-0.64-3.91c0.26-0.4,0.55-0.82,0.92-1.13c1.07-0.89,0.81-1.55-0.25-2.22c-2.89-1.83-4.4-4.59-5.34-7.72   c-0.17-0.55-0.27-1.13-0.31-1.7c-0.04-0.66-0.17-1.41,0.53-1.84c0.73-0.44,1.3,0.08,1.85,0.47c2.67,1.91,5.69,2.52,8.92,2.37   c0.97-0.05,1.95-0.07,2.82-0.94c-0.62-1.29-1.55-2.39-2.46-3.5c-6.11-7.46-6.42-20.15-0.81-27.95c3.41-4.73,7.84-8.05,13.52-9.71   c0.56-0.16,1.19-0.12,1.59-0.64c0.83-0.77,1.91-0.94,2.96-1.09c4.36-0.62,8.74-0.5,13.12-0.14   C169.75,475.07,171.03,475.31,171.95,476.33z"/>
	<path class="st2" d="M409.87,224.15c3.4-14.98,19.67-23.11,34.57-16.56c2.34,1.03,4.3,2.7,6.4,4.11c0.47,0.31,0.8,0.87,1.78,0.75   c0.74-3.68,0.78-7.28-1.38-10.69c-0.48-0.76-1.68-1.5-0.9-2.5c0.64-0.82,1.86-0.52,2.79-0.35c3.27,0.63,6.1,2.03,8.17,4.72   c1.34,1.74,1.38,1.72,3.08,0.53c2.69-1.87,3.63-1.72,5.45,1.02c0.69,1.04,1.25,2.15,1.91,3.32c1.87-0.86,3.8-1.55,5.84-1.87   c3.23-0.5,4.66,0.91,4.15,4.08c-0.32,2-1.04,3.89-1.95,5.84c1.55,0.61,2.95,1.3,4.2,2.23c1.82,1.35,1.94,2.22,0.8,4.17   c-0.47,0.81-1.72,1.31-1.43,2.36c0.26,0.94,1.46,1.22,2.16,1.88c2.5,2.36,4.06,5.19,4.18,8.64c0.07,1.91-0.62,2.3-2.24,1.15   c-3.19-2.27-6.75-2.4-10.43-2.13c-0.5,0.04-0.97,0.16-1.42,0.87c6.99,7.9,9.81,16.91,5.6,27.1c-3.17,7.67-9.15,12.33-17.34,14.27   c-0.73,0.78-1.74,0.81-2.69,0.97c-4.47,0.76-8.97,0.55-13.47,0.26c-1.25-0.08-2.54-0.32-3.47-1.34   c-6.01-2.59-11.3-6.16-15.83-10.83c-2.5-2.58-5.09-5.08-7.7-7.55c-4.36-4.13-7.82-8.87-10.3-14.3c-0.15-0.34-0.45-0.62-0.68-0.92   c-1.79-3.29-1.57-6.9-1.37-10.39C408.53,230.03,407.58,226.79,409.87,224.15z"/>
	<path class="st2" d="M152.42,277.09c-9.79-2.34-16.14-8.32-18.48-17.85c-1.55-6.33-0.82-12.66,2.94-18.33   c0.96-1.45,2.08-2.81,3.06-4.25c0.88-1.31,0.71-1.69-0.83-1.81c-3.58-0.27-7.09-0.14-10.18,2.03c-0.53,0.37-1.04,1.03-1.81,0.59   c-0.84-0.47-0.78-1.33-0.65-2.07c0.52-2.9,1.62-5.56,3.82-7.65c0.91-0.87,1.9-1.66,2.88-2.51c-0.64-1.11-1.58-1.98-2.13-3.13   c-0.49-1.03-0.42-1.8,0.44-2.57c0.95-0.85,1.99-1.55,3.14-2.13c1.82-0.9,1.85-0.95,1.06-2.68c-0.78-1.71-1.17-3.47-1.09-5.33   c0.1-2.17,0.9-2.96,3.12-2.86c2.37,0.11,4.6,0.82,6.69,2.07c1.03-1.41,1.47-2.93,2.5-4.12c1.58-1.82,2.44-2.03,4.48-0.76   c0.66,0.41,1.25,0.93,1.89,1.42c1.13-0.19,1.41-1.26,2.03-1.94c2.19-2.4,4.87-3.87,8.11-4.33c0.85-0.12,1.89-0.39,2.51,0.38   c0.77,0.94-0.33,1.57-0.73,2.25c-2.06,3.49-2.73,7.1-1.3,11.46c7.35-6.29,15.47-9.36,24.92-6.85c9.46,2.52,15.22,8.77,17.67,18.01   c1.72,1.36,1.14,3.39,1.35,5.09c0.59,4.77,0.75,9.57-1.18,14.17c-0.19,0.21-0.45,0.4-0.56,0.65c-3.42,7.64-9.09,13.58-15.13,19.23   c-2.47,2.31-4.78,4.79-7.47,6.9c-3.55,2.78-7.4,5-11.51,6.83c-0.15,0.12-0.28,0.3-0.46,0.35   C165.14,279.15,158.76,279.38,152.42,277.09z"/>
	<path class="st3" d="M490.18,359.26c3.75-5,6.15-10.57,6.71-16.74c0.47-5.15-0.11-10.19-3.13-14.71c-1.6-2.39-1.11-3.78,1.71-4.37   c4.13-0.87,7.8,0.26,10.78,3.2c0.76,0.74,1.21,1.17,2.42,0.73c3.49-1.27,6.34-0.2,8.21,3.03c0.71,1.22,1.28,2.06,2.93,2.28   c2.28,0.3,3.37,1.94,3.43,4.38c0.09,3.97-1.34,7.61-3.07,11.06c-4.64,9.24-11.15,16.76-21.06,20.97c-0.26,0.11-0.59,0.15-0.66,0.63   c0.12,0.82,0.91,0.41,1.35,0.4c6.02-0.15,11.63-1.7,16.78-4.8c1.62-0.97,3.01-2.2,4.11-3.69c3.27-4.44,5.43-9.36,6.57-14.71   c0.34-1.62,0.2-3.27,0.06-4.9c-0.07-0.72,0.14-1.36,0.84-1.71c0.78-0.39,1.56-0.32,2.16,0.31c0.74,0.77,1.5,1.54,2.09,2.42   c2.8,4.19,4.6,8.72,4.49,13.83c-0.01,0.57,0,1.14,0,1.69c6.02,0.84,7.69,2.84,5.76,9.6c-0.18,0.63-0.54,1.21-0.86,1.91   c1.6,1.22,2.87,2.64,3.8,4.38c1.4,2.63,0.35,4.93-1.43,6.56c-1.97,1.79-2.39,3.36-1.15,5.58c0.27,0.48,0.25,1.12,0.3,1.69   c0.35,4.16-1.02,5.76-5.34,6.31c-0.28,0.04-0.57,0.08-0.87,0.13c-0.43,1.14-0.19,2.31-0.25,3.45c-0.26,5-2.34,9.29-5.23,13.29   c-0.34,0.47-0.78,0.87-1.2,1.27c-0.61,0.58-1.31,0.82-2.15,0.45c-0.86-0.39-1.06-1.09-0.95-1.92c0.66-4.92-1.29-9.23-3.11-13.63   c-3.19-7.71-9.38-11.6-17.26-13.43c-2.75-0.64-5.54-1.07-9.15-0.6c1.28,0.65,1.98,1.01,2.67,1.36   c12.03,6.09,19.17,15.91,22.55,28.56c0.2,0.73,0.2,1.53,0.21,2.3c0.03,3.05-1.03,4.52-4.04,5.1c-1.01,0.19-1.44,0.52-1.91,1.38   c-2.19,3.97-4.5,4.89-8.95,3.65c-0.77-0.21-1.24-0.18-1.76,0.47c-2.03,2.52-4.94,3.37-8,3.85c-0.67,0.1-1.39,0.14-2.05,0.01   c-3.64-0.7-4.59-2.13-2.52-5.28c3.47-5.29,3.64-11.29,2.37-17.31c-1.04-4.97-3.17-9.5-6.25-13.59c-0.24-0.24-0.47-0.21-0.67,0.04   c-0.12,0.15-0.08,0.32,0.08,0.48c1.17,5.08,1.99,10.22,2.28,15.42c0.26,4.55-0.38,9.03-1.57,13.44c-0.51,1.88-1.35,3.61-2.48,5.21   c-1.74,2.48-3.45,3.07-6.31,1.95c-0.89-0.35-1.52-0.41-2.42,0.01c-4.94,2.31-7.4,1.28-9.04-3.82c-0.35-1.1-0.97-0.98-1.76-0.94   c-2.49,0.13-4.9-0.25-7.19-1.24c-2.32-1-2.49-1.45-1.4-3.69c1.9-3.92,2.88-10.65,0.74-16.89c-0.85,0.39-1.22,1.23-1.81,1.85   c-1.1,1.16-2.37,2.02-3.86,2.57c-3.69,1.35-6.77-0.13-7.68-3.89c-0.33-1.36-0.88-2.05-2.17-2.71c-4.02-2.06-6.68-5.3-7.63-9.73   c-0.14-0.65-0.21-1.36-0.1-2c0.28-1.59,1.56-2.13,3.04-1.35c0.35,0.18,0.66,0.41,0.99,0.63c3.83,2.53,7.94,2.56,12.14,1.18   c3.66-1.2,5.34-4.24,7.11-7.42c-2.09-0.61-4.06-0.86-5.79-1.82c-1.91-1.06-4.05-2.21-4.13-4.53c-0.09-2.52,2.17-3.7,4.15-4.8   c1.7-0.94,3.64-1.28,5.58-1.65c-3.29-8.16-11.55-10.89-18.92-6.5c-1.02,0.61-1.99,1.88-3.38,0.73c-1.27-1.05-0.94-2.42-0.61-3.75   c1.07-4.29,3.71-7.41,7.66-9.39c1.19-0.6,1.72-1.23,2.02-2.49c0.96-4.02,4.21-5.49,8.12-3.92c2.17,0.87,3.59,2.59,5.29,4.53   c1.65-5.99,1.7-11.58-0.73-17.05c-1.05-2.38-0.94-2.86,1.54-3.86c2.3-0.93,4.71-1.37,7.21-1.17c0.96,0.08,1.41-0.14,1.58-1.15   c0.78-4.56,4.97-5.96,8.69-3.79c1.03,0.6,1.81,0.63,2.94,0.15c2.52-1.07,4.3-0.46,5.89,1.68c1.59,2.13,2.57,4.54,3.15,7.1   c1.38,6.09,1.46,12.23,0.5,18.38c-0.46,2.95-1.08,5.87-1.63,8.81c-0.17,0.15-0.22,0.32-0.1,0.47   C489.68,359.43,489.92,359.47,490.18,359.26z"/>
	<path class="st3" d="M326.59,555.45c7.2,4.95,15.04,7.38,23.91,5.93c2.76-0.45,5.29-1.34,7.64-2.85c2.29-1.47,3.71-1,4.3,1.61   c0.94,4.15-0.21,7.83-3.33,10.82c-0.66,0.63-1.35,1.02-0.66,2.09c1.87,2.91-0.29,6.96-3.41,8.44c-1.11,0.53-1.75,1.04-1.93,2.45   c-0.28,2.31-1.87,3.4-4.33,3.5c-4.06,0.18-7.77-1.2-11.3-2.88c-9.46-4.49-17.15-10.86-21.5-20.54c-0.15-0.34-0.39-0.64-0.7-1.15   c-0.62,0.68-0.45,1.36-0.43,1.94c0.18,5.91,1.86,11.38,5.06,16.4c0.95,1.49,2.17,2.76,3.61,3.79c4.26,3.06,9.04,5.05,14.15,6.26   c1.61,0.38,3.3,0.52,4.99,0.24c1.11-0.18,2.22-0.25,2.74,1.03c0.51,1.26-0.38,2.03-1.23,2.68c-3.78,2.89-7.93,4.99-12.79,5.46   c-1.17,0.11-2.36,0.2-3.53,0.19c-0.96-0.01-1.46,0.25-1.47,1.28c0,0.57-0.19,1.14-0.36,1.69c-0.77,2.36-2.01,3.3-4.53,3.35   c-1.68,0.04-3.42,0.02-4.89-0.81c-1.33-0.75-2.17-0.51-2.9,0.7c-0.1,0.16-0.26,0.28-0.41,0.42c-3.47,3.21-7,3.29-10.3-0.11   c-1.31-1.34-2.33-1.65-3.93-0.79c-1.15,0.62-2.49,0.56-3.76,0.59c-3.14,0.07-4.91-1.18-5.22-4.26c-0.19-1.91-0.95-2.11-2.55-2.07   c-4.77,0.1-9.06-1.51-13.08-3.9c-1.18-0.7-2.31-1.49-3.19-2.55c-0.44-0.52-0.81-1.1-0.41-1.84c0.4-0.74,0.96-1.21,1.87-1.13   c0.88,0.08,1.78,0.27,2.64,0.18c7.35-0.74,14.19-3.13,19.24-8.42c5.16-5.41,7.03-12.34,6.58-19.78c0-0.03-0.16-0.06-0.26-0.09   c-0.58,0.24-0.7,0.82-0.94,1.31c-5.89,11.88-15.82,18.86-28.47,22.5c-0.93,0.27-1.94,0.31-2.92,0.34   c-3.59,0.12-4.85-0.76-5.63-4.12c-0.17-0.73-0.32-1.19-1.04-1.49c-0.72-0.3-1.41-0.7-2.03-1.17c-2.37-1.8-3.3-4.47-2.24-7.17   c0.46-1.18,0.43-1.77-0.6-2.65c-2.6-2.23-3.37-5.33-3.65-8.57c-0.09-1,0.28-1.91,0.64-2.8c0.77-1.88,1.85-2.2,3.7-1.21   c10.41,5.62,23.52,4.27,32.4-3.33c0.01-0.19,0.11-0.3,0.29-0.34c0,0-0.23-0.11-0.23-0.11s-0.19,0.16-0.2,0.16   c-0.31-0.06-0.56,0.12-0.83,0.18c-3.21,0.46-6.41,0.93-9.62,1.39c-6.1,0.88-12.16,0.6-18.16-0.75c-2.32-0.52-4.48-1.44-6.43-2.79   c-2.33-1.62-2.97-3.36-1.92-6c0.39-0.98,0.44-1.65-0.05-2.63c-2.38-4.77-0.93-7.58,4.45-8.87c0.17-0.04,0.31-0.18,0.55-0.32   c-0.17-2.85-0.03-5.72,1.26-8.41c1.01-2.1,1.41-2.23,3.6-1.28c5.64,2.45,11.4,2.42,17.36,0.88c-0.42-0.97-1.27-1.3-1.87-1.86   c-1.16-1.08-2.06-2.31-2.63-3.79c-1.37-3.57,0.13-6.76,3.91-7.56c1.58-0.34,2.17-1.06,2.89-2.31c2.29-3.94,5.62-6.64,10.36-7.34   c0.7-0.1,1.38-0.13,2.04,0.12c1.17,0.45,1.56,1.41,1.01,2.55c-0.25,0.52-0.62,0.98-0.94,1.47c-1.81,2.72-2.23,5.68-1.82,8.86   c0.64,5.01,3.97,7.7,8.42,9.75c0.48-2.06,0.82-4.05,1.86-5.8c1.1-1.85,2.29-3.94,4.7-3.92c2.4,0.03,3.61,2.13,4.67,3.98   c0.97,1.69,1.48,3.55,1.59,5.51c5.19-1.45,8.35-5.34,8.69-10.43c0.21-3.1-0.34-5.93-2.22-8.48c-0.57-0.77-1.28-1.59-0.62-2.62   c0.74-1.17,1.93-1.16,3.15-0.97c4.84,0.76,8.23,3.51,10.45,7.65c0.61,1.14,1.19,1.65,2.52,1.93c4.1,0.87,5.61,4.13,4.01,7.98   c-0.89,2.14-2.62,3.55-4.65,5.18c6.06,1.65,11.7,1.69,17.24-0.6c2.66-1.09,3.17-1,4.16,1.53c1,2.54,1.49,5.19,1.06,7.93   c0.47,0.65,1.26,0.42,1.89,0.62c3.82,1.24,5.29,4.17,3.58,7.7c-0.72,1.48-0.99,2.64-0.29,4.24c0.87,1.99,0.14,3.68-1.71,5.05   c-2.91,2.14-6.29,3.07-9.81,3.68c-7.3,1.25-14.5,0.48-21.69-0.8c-0.96-0.17-1.94-0.29-2.91-0.44   C326.7,554.65,326.4,554.77,326.59,555.45z"/>
	<path class="st4" d="M154.32,446.96c-2.3-2.01-4.34-4.08-5.07-7.01c-0.14-0.55-0.34-1.13-0.29-1.68c0.07-0.88,0.54-1.45,1.58-1.13   c0.19,0.06,0.37,0.13,0.54,0.24c5.53,3.35,11.84,3.76,18.03,4.73c6.29,0.98,12.56,2.11,18.25,5.21c5.29,2.87,9.34,6.94,12.47,11.95   c0.57,0.91,0.96,1.89,1.26,2.92c0.18,0.62,0.16,1.16-0.36,1.57c-0.6,0.46-1.32,0.47-1.93,0.07c-0.64-0.43-1.2-0.99-1.78-1.5   c-5.06-4.5-10.9-7.51-17.65-8.65c-8.15-1.37-16.21-0.9-24.14,1.47c-7.92,2.37-15.39,5.68-22.55,9.79   c-5.58,3.2-11.28,6.27-17.34,8.59c-7.56,2.9-15.12,2.89-22.67,0.02c-1.19-0.45-2.39-0.95-3.14-2.06c-0.54-0.8-0.22-1.56,0.76-1.63   c0.97-0.08,1.97-0.02,2.94,0.05c5.7,0.39,11.13-0.68,16.33-2.95c0.27-0.12,0.53-0.22,0.6-0.8c-2.24-0.65-4.51-1.45-6.38-3   c-0.37-0.31-0.83-0.54-1.14-0.89c-0.66-0.76-0.39-1.53,0.59-1.66c0.87-0.11,1.77-0.05,2.65-0.04c6.08,0.02,18.57-2.75,24.4-5.44   c-1.16-1.59-2.93-2.45-4.33-3.69c-0.73-0.65-1.52-1.21-2.01-2.07c-0.29-0.51-0.63-1.06-0.29-1.62c0.39-0.64,1.03-0.77,1.79-0.66   c2.03,0.29,4.07,0.6,6.09,0.94c4.22,0.72,8.47,0.59,12.63,0.22C147.46,447.95,150.86,448.26,154.32,446.96z"/>
	<path class="st4" d="M154.83,306.17c-9.53-1.19-18.44-2.17-27.4-0.24c-0.29,0.06-0.58,0.07-0.88,0.09   c-1.02,0.08-2.29,0.77-2.91-0.51c-0.56-1.18,0.62-2,1.29-2.7c1.13-1.18,2.51-2.13,3.81-3.15c0.53-0.41,1.22-0.65,1.45-1.51   c-1.42-1.04-3.19-1.34-4.83-1.82c-6.87-2-13.81-3.69-21.05-3.59c-0.2,0-0.39,0-0.59-0.01c-0.59-0.03-1.26,0-1.41-0.72   c-0.14-0.63,0.28-1.1,0.78-1.45c1.85-1.28,3.76-2.45,5.97-3.06c0.36-0.1,0.72-0.21,1.07-0.31c-0.04-1.09-0.97-0.95-1.51-1.18   c-5.63-2.35-11.5-3.16-17.58-2.48c-0.7,0.08-1.41,0.32-1.75-0.53c-0.29-0.74,0.18-1.27,0.69-1.77c0.72-0.7,1.62-1.09,2.53-1.44   c7.76-2.95,15.5-2.91,23.22,0.15c7.4,2.93,14.22,6.97,21.17,10.74c8.49,4.61,17.45,8.15,27.05,9.31c8.4,1.02,16.92,0.68,24.7-3.44   c2.93-1.55,5.91-3.07,8.25-5.5c0.46-0.48,1.11-0.79,1.64-1.21c0.65-0.52,1.33-0.94,2.11-0.35c0.87,0.66,0.64,1.5,0.26,2.35   c-0.76,1.68-1.68,3.27-2.79,4.75c-4.7,6.29-10.97,10.42-18.57,12.51c-4.71,1.3-9.56,2.03-14.42,2.65   c-4.59,0.59-9.12,1.32-13.19,3.7c-0.17,0.1-0.34,0.21-0.52,0.27c-0.7,0.24-1.38,0.95-2.13,0.16c-0.62-0.65-0.43-1.41-0.23-2.18   c0.6-2.31,1.87-4.22,3.59-5.87C153.16,307.41,153.74,307.03,154.83,306.17z"/>
	<path class="st4" d="M506.36,286.87c2.1,0.83,4.03,1.7,5.75,2.97c0.47,0.35,0.94,0.7,1.37,1.09c0.35,0.32,0.78,0.71,0.63,1.22   c-0.21,0.72-0.93,0.61-1.49,0.59c-5.85-0.24-11.51,1-17.13,2.33c-3.23,0.76-6.47,1.59-9.61,3.11c0.35,1.01,1.39,1.27,2.12,1.76   c1.56,1.05,2.86,2.35,4.11,3.71c0.5,0.54,1.08,1.21,0.46,2.05c-0.48,0.66-1.12,0.55-1.85,0.45c-2.03-0.29-4.09-0.53-6.1-0.87   c-4.03-0.67-8.08-0.59-12.05-0.24c-3.39,0.3-6.89,0.01-10.34,1.27c0.44,1.25,1.72,1.91,2.57,2.89c1.38,1.58,2.43,3.27,2.39,5.43   c-0.03,1.75-0.64,2.21-2.15,1.25c-3.83-2.43-8.15-3.35-12.51-3.96c-4.85-0.67-9.71-1.3-14.46-2.47c-9.05-2.23-16.3-7-21.24-14.89   c-0.72-1.14-1.53-2.26-1.62-3.67c-0.04-0.57-0.05-1.19,0.59-1.51c0.58-0.28,1.17-0.2,1.67,0.17c1.01,0.76,2,1.55,2.98,2.36   c6.89,5.69,14.84,8.24,23.84,8.44c8.96,0.21,17.27-1.94,25.46-5.15c5.78-2.26,11.1-5.35,16.54-8.24   c5.35-2.85,10.68-5.74,16.46-7.73c7.2-2.48,14.26-1.98,21.29,0.68c1.17,0.44,1.98,1.23,2.78,2.06c0.34,0.36,0.58,0.8,0.25,1.3   c-0.29,0.45-0.75,0.63-1.27,0.49c-2.23-0.61-4.5-0.34-6.75-0.34C514.55,283.43,510.42,284.88,506.36,286.87z"/>
	<path class="st4" d="M461.48,446.69c3.89,1.63,7.21,1.29,10.38,1.55c5.65,0.46,11.38,0.52,16.99-0.83   c0.29-0.07,0.58-0.14,0.87-0.13c1,0.04,2.19-0.83,2.95,0.45c0.8,1.35-0.55,1.87-1.2,2.58c-1.18,1.29-2.48,2.47-4,3.39   c-0.57,0.34-1.09,0.76-1.85,1.3c3.15,1.69,6.41,2.34,9.57,3.15c5.6,1.43,11.27,2.54,17.12,2.39c0.64-0.02,1.54-0.27,1.77,0.59   c0.2,0.73-0.55,1.17-1.02,1.63c-1.51,1.45-3.41,2.25-5.36,2.94c-0.44,0.16-0.99,0.03-1.39,0.77c2.24,1.57,4.92,2.03,7.48,2.73   c3.36,0.91,6.81,0.72,10.25,0.63c0.79-0.02,1.58-0.1,2.35,0.01c0.93,0.13,1.12,0.79,0.6,1.47c-1.05,1.35-2.54,2.05-4.16,2.58   c-8.09,2.67-15.99,2.26-23.78-1.17c-6.37-2.81-12.41-6.21-18.5-9.55c-8.88-4.88-18.24-8.79-28.39-9.94   c-10.22-1.17-20.26-0.16-29.01,6.03c-1.75,1.24-3.39,2.61-5.05,3.96c-0.72,0.58-1.46,1.18-2.36,0.62   c-0.91-0.57-0.68-1.57-0.37-2.36c0.38-0.98,0.91-1.92,1.48-2.82c4.98-7.86,12.29-12.55,21.29-14.86   c5.41-1.39,10.97-1.97,16.48-2.82c3.34-0.52,6.46-1.56,9.48-2.98c0.53-0.25,1.06-0.52,1.59-0.76c1.07-0.48,1.41,0.04,1.48,1.01   c0.14,2.16-0.7,3.99-2.14,5.51C464.12,444.75,462.95,445.51,461.48,446.69z"/>
	<path class="st4" d="M236.48,527.6c-0.5,0.45-0.67,1-0.74,1.56c-0.74,6.71-0.88,13.44-0.59,20.18c0.06,1.52,0.55,3.02,0.82,4.53   c0.13,0.75,0.31,1.53,0.27,2.28c-0.09,1.47-0.85,1.8-2.15,1.06c-2.11-1.2-3.25-3.3-4.8-5.02c-0.32-0.35-0.44-0.87-0.99-1.01   c-0.85,0.2-0.81,0.97-1.03,1.57c-2.13,5.7-3.53,11.6-4.47,17.59c-0.33,2.07-0.08,4.23-0.13,6.35c-0.01,0.64,0.23,1.47-0.61,1.76   c-0.92,0.32-1.5-0.38-1.93-0.99c-1.15-1.67-2.46-3.27-2.79-5.35c-0.08-0.48-0.17-0.96-0.91-1.26c-1.76,3.21-2.6,6.69-3.24,10.25   c-0.51,2.78-0.56,5.51,0.01,8.28c0.13,0.61,0.29,1.43-0.5,1.8c-0.92,0.43-1.43-0.33-2-0.83c-0.6-0.54-0.87-1.25-1.17-1.97   c-3.5-8.42-2.97-16.69,0.77-24.9c2.85-6.25,6.36-12.14,9.74-18.12c5.04-8.89,8.9-18.3,10.13-28.44   c1.24-10.21-0.63-19.96-6.93-28.52c-0.86-1.16-1.96-2.15-2.9-3.26c-0.77-0.91-2.26-1.77-1.1-3.14c1.08-1.29,2.37-0.26,3.45,0.28   c4.52,2.28,8.24,5.48,11.22,9.54c3.52,4.79,5.49,10.16,6.48,15.93c0.78,4.54,1.5,9.09,2.34,13.62c0.56,3.04,1.44,5.98,3.16,8.63   c0.4,0.62,1.01,1.28,0.38,2.09c-0.56,0.73-1.26,0.58-2.11,0.46c-2.27-0.33-3.98-1.56-5.62-2.95   C237.82,528.98,237.17,528.27,236.48,527.6z"/>
	<path class="st4" d="M399.71,570.92c-0.91,2-1.56,3.91-2.87,5.53c-0.37,0.45-0.71,0.92-1.12,1.34c-0.4,0.41-0.86,0.91-1.51,0.64   c-0.6-0.25-0.83-0.84-0.77-1.45c0.81-8.25-1.78-15.92-4.13-23.63c-0.25-0.81-0.39-1.67-1.29-2.3c-0.81,0.57-1.26,1.41-1.8,2.18   c-0.95,1.36-2.22,2.45-3.4,3.6c-0.63,0.61-1.31,1.3-2.29,0.67c-0.95-0.61-0.57-1.45-0.39-2.33c0.89-4.44,1.79-8.93,1.28-13.44   c-0.53-4.67-0.16-9.42-1.33-14.18c-1.17,0.33-1.78,1.38-2.58,2.14c-1.6,1.54-3.45,2.49-5.66,2.85c-0.71,0.12-1.36,0.33-1.84-0.36   c-0.46-0.67-0.15-1.31,0.22-1.89c1.81-2.81,2.9-5.9,3.5-9.13c0.76-4.05,1.26-8.16,1.92-12.23c1.02-6.35,3.01-12.34,7.01-17.55   c3-3.9,6.75-6.96,11.11-9.3c0.51-0.27,1.08-0.49,1.65-0.6c0.71-0.14,1.39,0.02,1.8,0.68c0.43,0.69,0.13,1.28-0.34,1.83   c-0.75,0.89-1.48,1.79-2.24,2.68c-5.03,5.94-7.73,12.69-8.53,20.45c-0.93,9,1.23,17.32,4.21,25.62   c2.95,8.24,7.81,15.52,11.99,23.14c2.52,4.6,4.78,9.3,6.13,14.35c1.65,6.16,0.71,12.2-1.55,18.09c-0.36,0.94-1.11,1.57-1.68,2.35   c-0.38,0.52-0.87,0.81-1.51,0.54c-0.62-0.26-0.85-0.8-0.67-1.43c0.64-2.28,0.42-4.6,0.31-6.9   C403.14,578.65,401.76,574.7,399.71,570.92z"/>
	<path class="st4" d="M380,225.98c1.28-4.92,0.87-9.58,1.4-14.16c0.54-4.61-0.35-9.2-1.28-13.73c-0.18-0.88-0.53-1.72,0.44-2.31   c1-0.6,1.64,0.13,2.29,0.71c1.89,1.7,3.54,3.6,4.82,5.64c1.01,0.05,1.13-0.64,1.29-1.13c2.06-6.22,3.99-12.47,4.45-19.05   c0.13-1.81,0.68-3.57,0.05-5.41c-0.22-0.65,0.04-1.41,0.79-1.68c0.65-0.24,1.11,0.28,1.5,0.69c1.87,1.93,2.95,4.28,3.62,6.78   c0.75,0.01,0.93-0.45,1.11-0.88c2.39-5.6,3.57-11.39,2.67-17.48c-0.1-0.68-0.41-1.37,0.36-1.79c0.95-0.51,1.43,0.32,1.95,0.84   c1.07,1.06,1.55,2.44,2.04,3.8c2.73,7.55,1.98,14.9-1.13,22.19c-2.74,6.42-6.29,12.42-9.8,18.43c-4.93,8.44-8.5,17.37-10.17,26.93   c-1.41,8.1-0.74,16.1,2.74,23.71c1.74,3.8,4.1,7.22,6.9,10.34c0.32,0.36,0.68,0.69,0.99,1.07c0.4,0.49,0.52,1.04,0.17,1.6   c-0.34,0.55-0.88,0.72-1.51,0.72c-0.93-0.01-1.7-0.47-2.46-0.9c-6.58-3.73-11.57-8.87-14.57-15.78c-2.52-5.82-3.38-12.01-4.24-18.2   c-0.64-4.68-1.36-9.33-3.97-13.45c-0.21-0.33-0.4-0.67-0.52-1.04c-0.45-1.32,0.15-1.99,1.61-1.77c2.08,0.31,3.97,1.05,5.51,2.53   C377.97,224.09,378.89,224.93,380,225.98z"/>
	<path class="st4" d="M216.48,182.44c1.12-0.57,0.78-1.61,1.11-2.37c0.62-1.43,1.45-2.74,2.36-3.99c0.52-0.72,1.25-1.45,2.18-1.14   c0.94,0.31,0.56,1.35,0.54,2.05c-0.29,8.43,2.16,16.34,4.8,24.21c0.12,0.37,0.3,0.71,0.86,0.96c1.16-1.3,2.33-2.67,3.57-3.99   c0.66-0.71,1.4-1.34,2.12-1.99c0.44-0.39,0.93-0.77,1.56-0.39c0.57,0.34,0.77,0.9,0.69,1.49c-0.2,1.52-0.36,3.06-0.74,4.54   c-0.35,1.33-0.43,2.66-0.45,4.01c-0.09,5.97-0.05,11.93,0.63,17.88c0.08,0.68,0.22,1.33,0.81,2.11c1.1-1.38,2.46-2.41,3.82-3.45   c1.12-0.86,2.34-1.33,3.73-1.59c0.81-0.15,1.53-0.37,2.15,0.33c0.7,0.78,0.16,1.49-0.24,2.1c-2.15,3.33-3.19,7.06-3.7,10.86   c-0.65,4.86-1.4,9.7-2.51,14.47c-2.31,9.87-7.67,17.6-16.98,22.41c-1.14,0.59-2.55,1.75-3.64,0.18c-0.97-1.39,0.52-2.26,1.34-3.12   c6.59-6.95,9.56-15.21,9.92-24.63c0.35-9.3-2.44-17.82-5.84-26.29c-2.68-6.67-6.74-12.61-10.12-18.92   c-2.84-5.3-5.73-10.57-6.78-16.53c-1.04-5.9-0.5-11.7,2.15-17.19c0.96-1.99,2.13-2.92,2.85-2.36c1.12,0.87,0.66,2.2,0.38,3.21   c-0.9,3.23,0.01,6.33,0.62,9.39C214.2,177.36,214.74,180.14,216.48,182.44z"/>
	<path class="st3" d="M409.87,224.15c-0.89,6.03-1.35,12.06-0.06,18.09c0.08,0.36-0.05,0.76-0.08,1.14   c-0.98-0.08-1.96-0.14-2.92,0.15c-1.91,0.58-2.85,2.03-2.54,3.93c0.02,0.09,0.07,0.18,0.08,0.28c0.11,1.19,1.05,2.67-0.23,3.45   c-1.09,0.67-2.12-0.63-3.08-1.21c-3.18-1.94-5.36-4.82-6.96-8.04c-1.83-3.68-0.19-8.17,3.48-10.21c0.59-0.33,1.23-0.56,1.85-0.84   c0.26-0.94-0.59-1.36-0.88-2c-1.38-3,0.22-5.81,3.56-5.98C404.74,222.79,407.36,223.21,409.87,224.15z"/>
	<path class="st3" d="M152.42,277.09c3.33,0.03,6.6,0.71,9.94,0.72c3.25,0.01,6.42-0.55,9.63-0.8c0.09,0.95-0.09,1.9,0.25,2.85   c0.75,2.09,1.97,2.88,4.22,2.55c0.87-0.13,1.74-0.36,2.62-0.37c1.03-0.01,1.49,0.68,1.03,1.54c-0.68,1.27-1.46,2.51-2.4,3.62   c-1.77,2.09-4,3.71-6.43,4.98c-4.22,2.21-9.08,0.63-11.25-3.56c-0.26-0.51-0.49-1.04-0.77-1.66c-0.67,0.4-1.22,0.79-1.82,1.08   c-3.17,1.52-6.03-0.14-6.21-3.59C151.12,281.92,151.68,279.49,152.42,277.09z"/>
	<path class="st3" d="M444.24,277c6.54,1.17,13.08,0.78,19.63,0.1c0.79,2.2,1.15,4.47,1.15,6.8c0,4.18-2.97,5.88-6.68,3.84   c-0.34-0.19-0.65-0.42-0.96-0.62c-1.03,0.23-0.87,1.21-1.22,1.83c-2.07,3.61-6.59,5.34-10.37,3.59c-3.96-1.85-7.28-4.55-9.36-8.46   c-0.81-1.51-0.39-2.11,1.38-1.99c0.58,0.04,1.16,0.19,1.74,0.28c2.76,0.43,4.33-0.68,4.66-3.35   C444.28,278.35,444.23,277.67,444.24,277z"/>
	<path class="st3" d="M409.94,510.25c-1.21,5.89-1.17,11.79-0.18,17.7c0.08,0.46-0.02,0.95-0.04,1.43c-2.18,0.58-4.37,1.1-6.64,1.14   c-1.73,0.03-3.43-0.14-4.38-1.77c-1-1.74-0.86-3.5,0.41-5.12c0.18-0.23,0.31-0.49,0.47-0.75c-0.38-0.8-1.26-0.78-1.91-1.14   c-3.68-1.99-5.43-6.5-3.63-10.17c1.81-3.68,4.36-6.85,8.13-8.87c0.7-0.37,1.41-0.94,2.16-0.42c0.61,0.43,0.37,1.23,0.3,1.9   c-0.01,0.1-0.03,0.19-0.04,0.29c-0.19,1.38-0.96,2.75,0.25,4.11c1.24,1.39,2.81,1.61,4.52,1.57   C409.55,510.12,409.75,510.21,409.94,510.25z"/>
	<path class="st3" d="M206.67,243.39c-0.07-0.27-0.26-0.57-0.2-0.82c1.4-6.15,0.82-12.3,0.04-18.44c2.12-0.85,4.36-1.12,6.62-1.23   c1.72-0.09,3.5,0.03,4.43,1.65c0.97,1.69,0.91,3.5-0.31,5.16c-0.17,0.23-0.3,0.48-0.44,0.71c0.15,0.75,0.81,0.76,1.32,1.01   c4.5,2.17,6.14,7.24,3.61,11.49c-1.95,3.28-4.38,6.17-7.91,7.96c-0.57,0.29-1.14,0.86-1.86,0.27c-0.64-0.53-0.42-1.22-0.35-1.87   c0.01-0.1,0.05-0.19,0.06-0.28C212.46,244.5,211.37,243.28,206.67,243.39z"/>
	<path class="st3" d="M463.93,476.14c-2.39,0.3-4.68-0.48-7.04-0.57c-4.24-0.16-8.45,0.12-12.64,0.73   c-0.05-0.86,0.01-1.75-0.17-2.58c-0.44-2.04-1.94-3.03-4.08-2.79c-0.29,0.03-0.58,0.1-0.87,0.14c-1.02,0.13-2.23,0.95-2.96-0.24   c-0.68-1.11,0.53-1.93,1.04-2.78c1.91-3.16,4.82-5.32,8.07-6.97c3.98-2.02,8.73-0.44,10.86,3.44c0.28,0.5,0.47,1.05,0.68,1.53   c0.75,0.46,1.1-0.21,1.57-0.46c3.66-1.9,6.57-0.27,6.61,3.72C465.04,471.66,464.68,473.93,463.93,476.14z"/>
	<path class="st3" d="M171.95,476.33c-6.5-1.25-13.01-0.78-19.52-0.13c-0.75-2.21-1.22-4.46-1.18-6.8c0.06-4.01,2.99-5.71,6.6-3.82   c0.43,0.22,0.82,0.51,1.37,0.86c0.87-1.78,1.7-3.5,3.39-4.64c2.57-1.74,5.33-2.18,8.08-0.86c3.76,1.8,6.97,4.32,9,8.05   c0.33,0.6,0.83,1.18,0.43,1.85c-0.5,0.85-1.34,0.59-2.11,0.43c-0.29-0.06-0.58-0.12-0.86-0.2c-3.5-0.93-4.9,1.25-5.15,3.82   C171.94,475.37,171.96,475.85,171.95,476.33z"/>
	<path class="st3" d="M206.72,529.43c-0.29-1.64,0.06-3.25,0.26-4.86c0.62-4.8,0.45-9.56-0.7-14.27c1.06-0.15,2.14-0.2,3.16-0.48   c2.01-0.55,2.84-1.88,2.59-3.88c-0.02-0.19-0.08-0.38-0.1-0.57c-0.16-1.07-1.11-2.39,0.19-3.13c1.18-0.68,2.15,0.58,3.09,1.15   c3.19,1.92,5.35,4.79,6.95,8c1.82,3.65,0.22,8.22-3.37,10.24c-0.59,0.33-1.24,0.56-1.85,0.83c-0.37,0.96,0.55,1.36,0.83,2.01   c1.4,3.2-0.3,5.9-3.85,6.04C211.47,530.61,209.08,530.06,206.72,529.43z"/>
	<path class="st5" d="M327.83,198.45c-0.46,0.52-1.13,0.47-1.73,0.61c-0.27,0.13-0.51,0.1-0.74-0.1c0.15-0.69,0.68-0.95,1.31-1.1   C326.91,198.33,327.46,198.22,327.83,198.45z"/>
	<path class="st6" d="M490.18,359.26c-0.02,0.57-0.56,1.04-0.86,0.83c-0.6-0.42-0.19-0.98,0.27-1.39   C489.74,358.93,489.81,359.24,490.18,359.26z"/>
	<path class="st7" d="M126.45,358.09c0.06,0.07,0.14,0.14,0.18,0.22c0.21,0.47,0.74,1.07,0,1.37c-0.35,0.14-0.77-0.45-0.82-0.98   C126.03,358.5,126.24,358.29,126.45,358.09z"/>
	<path class="st8" d="M326.59,555.45c-0.52-0.09-1.2-0.53-1-0.81c0.51-0.71,1.16-0.2,1.7,0.21   C327.06,555.05,326.83,555.25,326.59,555.45z"/>
	<path class="st9" d="M289.41,197.77c0.41,0.2,0.82,0.4,1.23,0.6c0.19,0.24,0.17,0.46-0.05,0.67c-0.64-0.11-1.34-0.04-1.85-0.58   C288.96,198.23,289.19,198,289.41,197.77z"/>
	<path class="st10" d="M489.56,394.59c-0.49-0.39-0.86-0.94-0.25-1.34c0.34-0.22,0.81,0.28,0.84,0.83   C489.95,394.25,489.76,394.42,489.56,394.59z"/>
	<path class="st11" d="M125.85,394.62c0.16-0.5,0.37-1.25,0.98-0.85c0.48,0.32,0.07,1.01-0.36,1.43   C126.27,395.01,126.06,394.82,125.85,394.62z"/>
	<path class="st12" d="M290.66,554.94l-0.23,0.09c0,0-0.24-0.07-0.24-0.07c-0.32-0.04-0.64-0.07-0.97-0.11   c0.34-0.46,0.86-0.48,1.37-0.52c0.17,0.12,0.24,0.25,0.2,0.39C290.75,554.86,290.71,554.94,290.66,554.94z"/>
	<path class="st1" d="M306.73,479.67c-11.6,0.2-22.57-2.62-33.27-6.67c-3.48-1.32-6.88-2.85-10.34-4.23   c-7.38-2.96-13.59-7.66-19.73-12.52c-9.54-7.54-17.05-16.85-23.67-26.78c-7.39-11.07-11.85-23.43-14.77-36.32   c-1.15-5.08-2.08-10.21-2.22-15.41c-0.17-6.4,1.06-12.65,2.55-18.84c2.31-9.6,5.75-18.8,10.18-27.67   c2.62-5.24,6.24-9.79,9.62-14.52c7.96-11.14,18.12-19.99,29.49-27.59c1.37-0.92,2.88-1.68,4.39-2.36   c9.02-4.06,18.09-7.96,27.77-10.42c5.45-1.39,10.95-2.59,16.53-2.47c5.96,0.12,11.98-0.5,17.88,0.63   c7.72,1.48,15.34,3.39,22.6,6.43c4.25,1.78,8.52,3.51,12.73,5.38c6.16,2.73,11.25,7.01,16.49,11.09c9.36,7.3,16.46,16.53,23.25,26   c4.78,6.67,7.86,14.23,10.71,21.83c3.12,8.34,5.28,16.96,6.3,25.78c0.73,6.25,0.19,12.5-1.08,18.69   c-2.3,11.21-6.02,21.91-11.08,32.21c-3.49,7.12-8.47,13.21-13.28,19.41c-6.98,8.98-15.74,16.12-25.14,22.56   c-4.9,3.36-10.51,5.21-15.88,7.58c-6.92,3.06-14.14,5.31-21.56,6.81c-4.8,0.97-9.71,1.43-14.64,1.42   C309.28,479.66,308,479.67,306.73,479.67z"/>
	<path class="st2" d="M340.86,158.82c-1.51,0.77-3.03,0.57-4.43,0.95c-4.77,1.28-9.28,3.15-13.41,5.84   c-5.35,3.48-7.74,8.85-9.35,14.6c-1.2,4.28-1.63,8.68-0.69,13.37c-3.27-0.62-6.25-0.7-9.2-0.06c-0.49-1.04-0.14-2-0.08-2.94   c0.4-7.05-1.34-13.58-5.04-19.6c-1.82-2.97-4.51-5.08-7.58-6.71c-4.42-2.36-8.99-4.34-14.06-4.95c-0.47-0.06-0.94-0.17-1.78-0.33   c3.51-2.45,7.01-3.93,11.01-4.15c1.37-0.07,2.75-0.03,4.13-0.04c2.4-0.01,2.59-0.25,2.13-2.71c-0.45-2.43,0.65-3.75,3.13-3.64   c1.9,0.08,3.69,0.45,5.08,1.91c0.92,0.97,1.68,0.71,2.29-0.43c0.41-0.76,0.8-1.59,1.42-2.17c3.03-2.82,4.41-2.61,7.32-0.18   c1.13,0.95,1.06,3,2.64,3.24c1.37,0.21,2.04-1.61,3.44-1.93c0.96-0.22,1.92-0.42,2.9-0.45c2.31-0.07,3.37,1.14,3.08,3.43   c-0.37,2.94-0.37,3.02,2.82,2.88C331.83,154.53,336.53,155.75,340.86,158.82z"/>
	<path class="st0" d="M312.36,217.98c2.35-3.34,2.57-6.8,0.45-10.3c-2.11-3.48-7.12-3.54-9.24-0.07c-1.84,3.01-2.02,6.16-0.22,9.31   c0.37,0.65,0.96,1.18,1.09,2.17c-2.24-0.27-3.9-1.48-5.21-2.97c-3.91-4.42-3.52-12.62,0.37-17.15c4.85-5.64,16.22-5.16,19.34,3.85   c1.27,3.65,1.36,7.27-0.44,10.92c-1.19,2.42-2.89,4.05-5.36,5.02C312.5,218.87,312.26,218.58,312.36,217.98z"/>
	<path class="st4" d="M352.55,224.99c-0.58,0-0.89,0.07-1.16-0.01c-5.14-1.46-10.28-1.2-15.48-0.26c-3.96,0.71-7.97,1.28-11.99,0.23   c-3.24-0.85-6.23-2.3-9.67-3.66c3.22-1.76,5.72-3.82,6.85-7.1c0.38-1.11,1.45-1.21,2.44-1.25c9.32-0.37,18.01,1.29,25.25,7.6   C350.2,221.75,351.51,223.02,352.55,224.99z"/>
	<path class="st4" d="M301.86,221.32c-3.11,1.33-6.01,2.75-9.14,3.52c-2.67,0.66-5.38,0.87-8.17,0.47   c-6.77-0.97-13.54-2.55-20.7,0.08c0.68-2.22,1.97-3.33,3.23-4.46c6.08-5.47,13.38-7.8,21.5-8.01c0.49-0.01,0.99,0.04,1.47-0.01   c3-0.34,5.43,0.16,6.33,3.54c0.32,1.22,1.41,2.05,2.47,2.78C299.8,219.89,300.75,220.55,301.86,221.32z"/>
	<path class="st13" d="M319.04,226.08c3.16,1.07,6.38,1.8,9.74,1.97c2.68,0.14,5.24,0.73,7.28,2.67c0.71,0.68,1.36,1.38,1.82,2.24   c1.55,2.96,0.61,5.01-2.74,5.29c-1.92,0.16-2.67,0.96-3.24,2.64c-1.15,3.42-4.67,6.17-8.33,6.66c0.75-2.04,1.85-3.85,2.03-5.95   c0.53-6.38-1.39-11.57-7.26-14.94C318.29,226.14,318.38,225.79,319.04,226.08z"/>
	<path class="st13" d="M298.2,226.56c-0.13,0.14-0.29,0.22-0.48,0.23c-0.22,0.13-0.43,0.27-0.62,0.43c-5,3.2-6.73,7.9-6.48,13.53   c0.09,2.06,0.79,3.9,1.73,5.69c0.42,0.72,0.41,1.22-0.63,1.2c-3.62-1.43-6.42-3.67-7.58-7.48c-0.36-1.19-1.04-1.79-2.3-1.81   c-0.49-0.01-0.99-0.03-1.46-0.14c-2.33-0.56-3.22-2.15-2.33-4.35c1.26-3.12,3.72-4.89,7.03-5.47c2.21-0.39,4.48-0.5,6.7-0.84   c1.35-0.21,2.67-0.6,4-0.91c0.28-0.06,0.48-0.28,0.75-0.36c0.16-0.11,0.34-0.16,0.53-0.15   C297.61,225.84,298.13,225.62,298.2,226.56z"/>
	<path class="st14" d="M312.06,227.47c-0.12,2.35-0.94,4.48-2.56,6.27c-1.08,1.2-1.55,1.21-2.61,0.07   c-1.71-1.85-2.62-4.06-2.67-6.56c-0.04-1.73,0.67-3.23,2.07-4.29c1.58-1.18,3.79-0.49,4.99,1.41   C311.88,225.33,311.95,226.38,312.06,227.47z"/>
	<path class="st15" d="M308.12,219.37c-1.91-2.56-4.15-4.68-3.49-8.09c0.21-1.07,0.55-2.06,1.25-2.88c1.12-1.3,3.66-1.27,4.65,0.11   c1.31,1.83,1.82,3.9,0.93,6.02C310.72,216.28,309.56,217.83,308.12,219.37z"/>
	<path class="st16" d="M316.5,225.6c-0.98-0.19-1.94-0.42-2.94-1.41c1.62-0.14,2.56,0.52,3.56,0.96   C317.16,225.62,317.08,225.94,316.5,225.6z"/>
	<path class="st17" d="M316.5,225.6c0.21-0.15,0.41-0.3,0.62-0.45c0.67,0.25,1.44,0.3,1.91,0.93c-0.23,0.19-0.47,0.39-0.7,0.58   C317.6,226.52,317,226.14,316.5,225.6z"/>
	<path class="st18" d="M301.29,225.03c-0.4,0.45-0.9,0.66-1.51,0.61c-0.44,0.25-0.82,0.17-1.14-0.22c0.56-0.55,1.28-0.74,2.03-0.88   C300.94,224.61,301.15,224.77,301.29,225.03z"/>
	<path class="st19" d="M298.63,225.42c0.38,0.07,0.76,0.14,1.14,0.22c-0.41,0.5-0.94,0.78-1.57,0.92c-0.38-0.14-0.76-0.29-1.14-0.43   C297.45,225.62,298.03,225.5,298.63,225.42z"/>
	<path class="st20" d="M291.71,247.65c0.71-0.15,0.61-0.7,0.63-1.2c0.52,0.41,1.18,0.87,0.57,1.54   C292.59,248.35,292.03,248.05,291.71,247.65z"/>
	<path class="st21" d="M312.36,217.98c0.26,0.27,0.52,0.53,0.78,0.8c-0.42,0.46-1.01,0.73-1.41,0.21   C311.45,218.62,311.92,218.19,312.36,217.98z"/>
	<path class="st22" d="M290.59,199.04c0.02-0.22,0.04-0.45,0.05-0.67c0.48,0.11,0.91,0.42,0.71,0.86   C291.17,199.63,290.77,199.42,290.59,199.04z"/>
	<path class="st23" d="M301.29,225.03c-0.21-0.16-0.42-0.32-0.63-0.49c0.16-0.1,0.33-0.16,0.51-0.16c0.4-0.26,0.79-0.33,1.14,0.08   C302.21,225.05,301.72,225,301.29,225.03z"/>
	<path class="st24" d="M302.31,224.45c-0.38-0.03-0.76-0.05-1.14-0.08C301.57,224.21,302.02,223.25,302.31,224.45z"/>
	<path class="st25" d="M325.36,198.96c0.25,0.03,0.49,0.06,0.74,0.1c-0.26,0.3-0.57,0.55-0.95,0.28   C324.98,199.23,325.11,199.01,325.36,198.96z"/>
	<path class="st19" d="M297.09,227.23c0.08-0.32,0.28-0.48,0.62-0.43C297.63,227.11,297.43,227.27,297.09,227.23z"/>
	<path class="st19" d="M296.53,226.29c-0.15,0.33-0.4,0.45-0.75,0.36C295.93,226.34,296.17,226.21,296.53,226.29z"/>
	<path class="st4" d="M86.15,344.28c0.46,4.56,1.9,8.39,3.49,12.21c3.99,9.63,11.81,13.93,21.73,15.53   c3.22,0.52,6.42,0.58,10.01-0.13c-0.53,3.22-0.82,6.16-0.03,9c-0.57,0.57-1.18,0.38-1.74,0.32c-7.4-0.83-14.22,0.89-20.65,4.42   c-3,1.65-5.22,4.05-6.95,6.92c-3,5-5.21,10.28-5.86,16.45c-2.94-3.84-4.29-7.85-4.45-12.27c-0.03-0.87,0.02-1.73,0.02-2.6   c0.01-2.42-0.15-2.54-2.71-2.1c-2.56,0.44-4.07-0.86-3.72-3.35c0.23-1.7,0.51-3.44,1.98-4.69c1.03-0.87,0.82-1.66-0.38-2.21   c-1.26-0.58-2.38-1.33-3.21-2.46c-1.5-2.04-1.5-3.2-0.01-5.23c0.83-1.13,1.94-1.89,3.2-2.48c1.18-0.54,1.46-1.31,0.42-2.2   c-1.47-1.25-1.76-2.98-1.99-4.68c-0.34-2.49,1.13-3.78,3.7-3.37c2.69,0.42,2.82,0.37,2.7-2.39   C81.47,353.72,82.75,348.94,86.15,344.28z"/>
	<path class="st0" d="M146.44,372.65c-3.37-2.34-6.82-2.5-10.53-0.69c-3.63,1.77-3.77,7.59,0.1,9.42c3.15,1.48,6.19,1.69,9.26-0.07   c0.59-0.34,1.17-0.69,2.04-1.21c-0.14,2.51-1.46,4.18-3.08,5.37c-6.12,4.5-14.26,2.83-18.08-1.2c-5.25-5.53-3.57-14.64,3.49-17.73   c3.99-1.75,8.09-2.04,12.25-0.08c2.56,1.2,4.29,2.95,5.3,5.49C147.3,372.55,147.07,372.8,146.44,372.65z"/>
	<path class="st26" d="M152.94,420.09c-7.04-5.15-10.66-12.17-11.58-20.6c-0.28-2.58-0.18-5.19-0.22-7.79   c-0.01-0.98,0.07-1.97,1.26-2.35c3.27-1.05,5.35-3.41,7.09-6.48c3.42,6.31,5.39,12.54,3.9,19.47c-0.42,1.97-0.68,3.99-0.95,5.99   c-0.52,3.98,0.19,7.86,1.1,11.72C153.36,420.27,153.16,420.28,152.94,420.09z"/>
	<path class="st26" d="M153.57,333.32c-0.96,3.86-1.63,7.72-1.12,11.67c0.38,2.95,0.74,5.91,1.24,8.85   c0.63,3.73-0.13,7.26-1.45,10.72c-0.72,1.89-1.58,3.72-2.38,5.58c-0.63,0.14-0.8-0.35-1.04-0.74c-1.45-2.37-3.28-4.31-6.06-5.2   c-1.04-0.33-1.55-1.02-1.61-2.14c-0.53-9.55,1.24-18.39,8.12-25.67c0.73-0.77,1.54-1.48,2.36-2.16   C152.14,333.82,152.64,333.32,153.57,333.32z"/>
	<path class="st27" d="M154.7,365.55c1.07-3.22,1.73-6.51,1.9-9.9c0.13-2.72,1.19-5.05,3.24-6.9c0.57-0.51,1.23-0.97,1.93-1.3   c2.71-1.29,4.87-0.39,5.15,2.48c0.2,2.07,0.96,2.97,2.96,3.59c3.22,1,5.85,4.34,6.7,7.94c-0.76,0.31-1.26-0.3-1.78-0.56   c-2.64-1.29-5.41-1.56-8.32-1.34c-4.9,0.37-8.46,2.77-11.11,6.68C154.78,366.33,154.45,366.2,154.7,365.55z"/>
	<path class="st27" d="M155.31,387.08c3.27,5.04,8.05,7.05,14.01,6.84c2.54-0.09,4.74-1.09,6.95-2.16c0.68,0.63,0.23,1.25-0.05,1.8   c-1.56,3.13-3.73,5.67-7.29,6.68c-1.23,0.35-1.78,0.94-1.85,2.2c-0.08,1.54-0.28,3.18-2.02,3.83c-2.02,0.76-3.64-0.28-5.07-1.5   c-2.09-1.79-3.22-4.12-3.36-6.83c-0.18-3.48-0.84-6.86-1.93-10.17C154.4,387.1,154.76,387,155.31,387.08z"/>
	<path class="st28" d="M156,380.61c-1.57-0.13-2.96-0.47-4.11-1.49c-2.15-1.92-1.22-4.92,1.85-5.95c2.62-0.87,7.01,0.37,8.89,2.45   c0.74,0.82,0.69,1.48-0.1,2.21C160.66,379.55,158.37,380.27,156,380.61z"/>
	<path class="st15" d="M147.89,376.6c-2.71,1.83-4.73,4.02-8.06,3.58c-1.1-0.15-2.1-0.44-2.99-1.05c-1.86-1.27-1.84-3.83,0.09-5.01   c2.13-1.3,4.41-1.53,6.66-0.32C144.95,374.53,146.19,375.48,147.89,376.6z"/>
	<path class="st29" d="M155.31,387.08c-0.21,0.23-0.42,0.45-0.63,0.68c-0.7-0.65-0.87-1.54-1.14-2.38   c-0.29-0.61,0.04-0.68,0.55-0.59C154.48,385.56,155.16,386.18,155.31,387.08z"/>
	<path class="st30" d="M154.08,384.78c-0.18,0.2-0.37,0.39-0.55,0.59c-0.72-0.64-0.79-1.56-1.04-2.4c0.14-0.18,0.3-0.34,0.48-0.48   C154.03,382.93,153.67,384.04,154.08,384.78z"/>
	<path class="st31" d="M154.76,367.38c-0.33,0.6-0.66,1.21-0.99,1.81c-0.29,0.29-0.55,0.26-0.77-0.07c0.17-0.89,0.52-1.7,1.11-2.41   C154.49,366.78,154.56,367.14,154.76,367.38z"/>
	<path class="st32" d="M154.76,367.38c-0.22-0.22-0.43-0.45-0.65-0.67c0.04-0.46,0.11-0.91,0.59-1.16c0.22,0.23,0.44,0.46,0.66,0.69   C155.4,366.74,155.04,367.04,154.76,367.38z"/>
	<path class="st33" d="M153,369.12c0.26,0.02,0.51,0.05,0.77,0.07c-0.21,0.57,0.13,1.41-0.8,1.65c-0.15-0.17-0.3-0.35-0.43-0.54   C152.69,369.91,152.84,369.51,153,369.12z"/>
	<path class="st34" d="M146.44,372.65c0.25-0.24,0.49-0.47,0.74-0.71c0.37,0.34,0.66,0.76,0.15,1.12   C147.02,373.28,146.64,373.01,146.44,372.65z"/>
	<path class="st35" d="M152.94,420.09c0.2-0.01,0.41-0.03,0.61-0.04c0.29,0.09,0.47,0.29,0.13,0.46   C153.32,420.7,153.05,420.47,152.94,420.09z"/>
	<path class="st36" d="M152.54,370.31c0.14,0.18,0.29,0.36,0.43,0.54C152.37,371.01,152.44,370.67,152.54,370.31z"/>
	<path class="st37" d="M152.97,382.49c-0.16,0.16-0.32,0.32-0.48,0.48C152.41,382.58,152.47,382.32,152.97,382.49z"/>
	<path class="st38" d="M462.47,516.1c-0.02,2.7-0.24,2.88-3.07,2.52c-5.09-0.63-8.52-3.65-9.74-8.53c-0.26-1.05-0.19-2.1-0.05-3.14   c0.1-0.74,0.56-1.2,1.38-1.22c0.29,0,0.59,0.02,0.88-0.01C456.01,505.39,463.01,510.98,462.47,516.1z"/>
	<path class="st0" d="M453.03,525.1c0.04,2.6-0.23,2.88-2.75,2.87c-5.34-0.01-10.76-5.78-10.37-10.97c0.07-0.92,0.35-1.35,1.32-1.55   c1.38-0.28,2.68-0.3,4.03,0.17C448.94,516.9,453.32,520.44,453.03,525.1z"/>
	<path class="st38" d="M460.01,497.88c-0.02-2.63,0.13-2.78,2.81-2.62c5.8,0.35,9.55,4.06,9.64,9.54c0.03,2.14-0.4,2.77-2.45,2.56   C464.39,506.79,460.12,504.2,460.01,497.88z"/>
	<path class="st38" d="M438.6,537.6c-4.67-0.08-8.19-2.91-9.19-7.38c-0.08-0.37-0.08-0.76-0.15-1.14c-0.66-3.56-0.19-4.11,3.5-3.62   c6.04,0.8,8.25,4.87,8.64,9.66C441.58,537.33,441.05,537.64,438.6,537.6z"/>
	<path class="st38" d="M441.87,510.41c-4.76-0.18-8.82-4.11-8.95-8.66c-0.06-2.2,0.75-3.13,2.91-2.85c3.12,0.4,5.84,1.58,7.44,4.49   c0.7,1.28,1.21,2.63,1.41,4.06C445.03,510.02,444.53,510.52,441.87,510.41z"/>
	<path class="st38" d="M445.22,490.07c4.41,0.03,8.72,4.1,8.94,8.45c0.1,2.06-0.41,2.73-2.47,2.61c-5.47-0.32-8.53-3.11-9.31-7.93   C441.98,490.7,442.7,490.06,445.22,490.07z"/>
	<path class="st38" d="M432.35,519.67c-5.01-0.25-8.99-4.86-8.39-9.67c0.16-1.28,0.76-1.85,2.07-1.94c4.64-0.3,9.99,5.48,9.22,10   C435.01,519.43,434.39,519.77,432.35,519.67z"/>
	<path class="st38" d="M166.65,508.69c-0.05,5.46-5.3,10.34-10.94,10.24c-1.23-0.02-1.75-0.6-1.97-1.67   c-0.25-1.18,0.05-2.31,0.41-3.39c1.45-4.39,4.57-7.08,9.11-8.05C166.16,505.19,166.68,505.75,166.65,508.69z"/>
	<path class="st38" d="M165.94,527.83c-2.83,0-3.09-0.27-2.84-2.96c0.52-5.72,6.43-10.34,11.91-9.43c1.31,0.22,1.57,0.76,1.56,1.9   C176.5,522.44,170.72,528.35,165.94,527.83z"/>
	<path class="st38" d="M144.02,504.58c-0.03-6.6,5.18-9.4,10.65-9.37c1.2,0.01,1.82,0.4,1.81,1.67c-0.08,6.52-3.56,9.8-10.06,10.49   C144.29,507.59,143.87,506.92,144.02,504.58z"/>
	<path class="st38" d="M177.72,537.6c-2.75,0.07-3.15-0.21-2.84-2.93c0.73-6.45,4.88-9.42,10.88-9.26c0.92,0.02,1.39,0.36,1.52,1.33   C188.02,532.42,183.6,537.46,177.72,537.6z"/>
	<path class="st38" d="M183.21,502.18c-0.18,4.87-5.17,8.92-10.09,8.25c-1.22-0.17-1.8-0.81-1.68-1.91c0.49-4.36,2.57-8.3,7.93-9.51   C182.35,498.33,183.32,499.17,183.21,502.18z"/>
	<path class="st38" d="M164.89,501.15c-2.19,0.03-3.11-0.7-2.77-2.61c0.89-5.15,4.41-8.57,9.45-8.47c1.94,0.04,2.83,0.86,2.53,2.63   C173.32,497.38,170.41,500.75,164.89,501.15z"/>
	<path class="st38" d="M183.51,519.68c-2.04-0.02-2.58-0.43-2.4-2.35c0.48-5.18,2.9-7.98,7.88-9.15c2.4-0.56,3.59,0.49,3.54,2.85   C192.43,515.48,188.01,519.72,183.51,519.68z"/>
	<path class="st38" d="M462.44,237.27c0.56,4.35-5.8,10.88-11.17,10.32c-1.08-0.11-1.54-0.53-1.73-1.54   c-1.12-5.9,5.64-12.47,11.66-11.33C463.01,235.08,462.22,236.5,462.44,237.27z"/>
	<path class="st0" d="M453.03,228.1c-0.05,5.76-6.33,10.97-11.66,9.76c-1.08-0.25-1.41-0.66-1.46-1.71   c-0.26-5.28,5.09-10.75,10.54-10.69C452.99,225.5,453.05,225.57,453.03,228.1z"/>
	<path class="st38" d="M460.01,255.44c0.08-6.78,5.25-9.21,10.38-9.52c1.43-0.09,2.05,0.62,2.09,2.1c0.2,6-4.78,10.59-10.93,10.08   C459.46,257.92,460.19,256.44,460.01,255.44z"/>
	<path class="st38" d="M431.66,227.89c-2.76,0.02-3.03-0.31-2.53-3.05c0.09-0.47,0.15-0.95,0.24-1.42c0.97-4.92,4.66-7.83,9.76-7.73   c1.91,0.04,2.23,0.38,2.3,2.43C441.62,223.48,437.23,227.85,431.66,227.89z"/>
	<path class="st38" d="M432.92,251.64c0.27-5.49,5.15-9.15,10.33-8.76c0.94,0.07,1.34,0.53,1.47,1.44   c0.68,4.8-4.47,10.37-9.39,10.11C433.43,254.33,432.89,253.71,432.92,251.64z"/>
	<path class="st38" d="M423.96,242.17c0.07-4.59,4.04-8.5,8.67-8.55c2.17-0.02,2.77,0.41,2.6,2.48c-0.39,4.88-3.28,8.28-8.3,9.08   C424.58,245.55,423.91,244.78,423.96,242.17z"/>
	<path class="st38" d="M445.05,263.23c-2.33-0.03-2.78-0.47-2.71-2.72c0.14-4.7,5.43-9.03,10.14-8.36c1.65,0.24,1.73,1.32,1.69,2.53   C454.03,259.11,449.58,263.28,445.05,263.23z"/>
	<path class="st38" d="M165.67,225.5c5.12-0.59,10.99,5.54,10.89,10.67c-0.02,0.85-0.14,1.38-1.17,1.65   c-5.3,1.39-13.01-3.9-12.29-11.02C163.29,224.91,164.85,225.76,165.67,225.5z"/>
	<path class="st38" d="M157.11,234.73c5.6,0.19,10.47,6.18,9.49,11.59c-0.22,1.2-0.93,1.23-1.87,1.26   c-5.33,0.18-11.17-5.42-11.06-10.64C153.71,234.97,154.24,234.63,157.11,234.73z"/>
	<path class="st38" d="M184.69,227.89c-6.21,0.06-9.74-4.67-9.82-10c-0.03-2,0.19-2.14,2.14-2.2c5.84-0.17,9.94,3.68,10.24,9.6   C187.36,227.74,187.21,227.9,184.69,227.89z"/>
	<path class="st38" d="M144,248.46c-0.12-2.07,0.34-2.73,2.39-2.53c6.37,0.63,10.09,4.11,10.09,10.48c0,1.26-0.59,1.67-1.79,1.68   C149.06,258.13,143.88,255.19,144,248.46z"/>
	<path class="st38" d="M183.21,251.62c-0.01,2.44-0.74,3.16-3.17,2.79c-5.31-0.81-8.08-4.6-8.56-9.51   c-0.11-1.12,0.48-1.93,1.89-2.05C178.56,242.39,183.24,246.52,183.21,251.62z"/>
	<path class="st38" d="M171.19,263.23c-5.58-0.04-8.51-4.44-9.09-8.52c-0.26-1.82,0.6-2.54,2.56-2.56c4.59-0.05,8.88,3.7,9.44,8.24   C174.35,262.41,173.5,263.24,171.19,263.23z"/>
	<path class="st38" d="M183.82,233.62c4.37,0.21,8.43,4.13,8.7,8.4c0.16,2.53-1.05,3.59-3.57,3.12c-4.44-0.82-7.58-4.38-7.83-8.9   C181,234.06,181.56,233.52,183.82,233.62z"/>
	<path class="st39" d="M495.03,380.99c0.52-2.76,0.76-5.61-0.06-8.28c0.4-0.7,0.92-0.58,1.39-0.52c7.84,1.02,15.02-0.9,21.71-4.8   c3.14-1.83,5.27-4.6,6.96-7.7c2.54-4.67,4.67-9.48,5-15.39c2.84,3.81,4.37,7.52,4.49,11.76c0.03,1.25-0.05,2.51-0.01,3.76   c0.07,1.66,0.54,2.07,2.18,1.79c0.77-0.13,1.47-0.4,2.29-0.14c1.27,0.39,2.05,1.05,2.03,2.45c-0.03,1.97-0.43,3.79-1.76,5.38   c-1.19,1.42-1.09,1.59,0.53,2.58c0.17,0.1,0.37,0.15,0.53,0.26c4.54,3.04,4.56,6.17,0.05,9.22c-0.24,0.16-0.51,0.29-0.78,0.41   c-1.37,0.62-1.43,1.43-0.41,2.44c1.34,1.31,1.72,3,1.81,4.76c0.12,2.4-1.24,3.54-3.68,3.15c-2.69-0.43-2.91-0.35-2.77,2.33   c0.25,4.87-0.81,9.38-3.49,13.5c-0.21,0.32-0.34,0.7-1.07,0.66c-0.24-4.41-1.97-8.43-3.73-12.48   c-3.58-8.23-10.32-12.34-18.82-14.24c-3.37-0.75-6.8-1.01-10.26-0.67C496.52,381.27,495.82,381.48,495.03,380.99z"/>
	<path class="st2" d="M495.73,427.33c7.99-12.7,2.33-30.38-7.46-38.3c1.37-1.35,3.07-2.33,4.28-3.84c0.91-1.14,1.97-0.32,2.93,0.04   c6.37,2.38,11.76,6.11,16.05,11.33c3.8,4.61,6.88,9.6,8.48,15.37c0.33,1.2,0.64,2.44,0.71,3.67c0.13,2.29-0.74,2.93-2.98,2.43   c-2.03-0.45-2.03-0.45-2.25,1.88c-0.33,3.47-3.82,5.21-6.84,3.41c-2.06-1.23-2.06-1.23-3.34,0.69   C503.29,427.07,499.52,428.42,495.73,427.33z"/>
	<path class="st2" d="M495.73,325.93c4.01-1.01,7.55,0.3,9.63,3.43c1.24,1.86,1.24,1.86,3.14,0.72c3.38-2.03,6.64-0.28,6.95,3.72   c0.14,1.81,0.31,1.93,2.15,1.54c2.45-0.53,3.32,0.09,3.13,2.51c-0.23,3.01-1.25,5.87-2.56,8.55c-4.69,9.61-11.46,17.23-21.8,21.34   c-2.84,1.13-2.81,1.2-4.99-0.87c-0.49-0.47-1.04-0.89-1.57-1.32c-0.45-0.36-0.92-0.7-1.59-1.2c5.78-4.77,8.95-10.96,10.58-17.9   C500.46,339.35,499.66,332.48,495.73,325.93z"/>
	<path class="st2" d="M468.91,379.9c2.63,2.14,5.25,3.06,8.22,2.54c2.37-0.42,4.59-1.21,5.59-3.65c1.54-3.77-1-7.4-5.52-7.94   c-2.87-0.35-4.02-0.04-8,2.15c0.15-4.08,4.75-7.73,10.25-7.86c7.68-0.18,12.96,4.09,13.65,10.03c0.72,6.2-3.22,11.09-9.48,12.62   C477.75,389.23,469.73,386.05,468.91,379.9z"/>
	<path class="st40" d="M463.04,333.28c5.4,3.22,8.43,8.24,10.47,13.85c1.66,4.57,1.89,9.42,1.72,14.25   c-0.04,1.02-0.02,2.22-1.31,2.66c-3.25,1.1-5.37,3.42-7.11,6.55c-2.93-5.75-5.24-11.29-4.15-17.61c0.33-1.9,0.56-3.81,0.92-5.7   c0.82-4.34,0.5-8.62-0.61-12.87C462.71,334.02,462.68,333.64,463.04,333.28z"/>
	<path class="st40" d="M462.88,419.4c1.84-5.81,1.12-11.66,0.01-17.45c-1.02-5.34-0.29-10.36,2.09-15.18   c0.59-1.2,0.73-2.61,1.87-3.72c1.72,2.81,3.68,5.31,7,6.31c1.18,0.36,1.3,1.41,1.35,2.35c0.47,9.69-1.54,18.6-8.67,25.85   c-1.02,1.04-2.07,2.06-3.51,2.55c-0.16-0.13-0.23-0.28-0.22-0.45C462.81,419.49,462.84,419.4,462.88,419.4z"/>
	<path class="st41" d="M440.7,392.12c8.46,3.76,15,1.99,20.64-5.6c0.51-0.07,0.86-0.01,0.54,0.62c-1.46,3.71-1.92,7.61-2.33,11.53   c-0.33,3.17-1.96,5.61-4.79,7.19c-2.88,1.6-5.32,0.34-5.41-2.69c-0.05-1.65-0.7-2.53-2.41-3.08c-3.58-1.15-5.79-3.79-7.09-7.2   C439.81,392.29,440.11,392.05,440.7,392.12z"/>
	<path class="st41" d="M461.72,365.66c0.12,0.15,0.17,0.33,0.16,0.52c0.24,0.62-0.07,0.73-0.61,0.62l-0.01-0.02   c-0.19-0.15-0.33-0.34-0.4-0.58c-3.63-5.7-9.08-7.21-15.5-6.51c-1.94,0.21-3.59,1.31-5.82,1.99c1.2-4.07,3.43-6.84,7.09-8.19   c1.83-0.67,2.62-1.52,2.81-3.44c0.29-2.92,2.35-3.94,5.04-2.61c3.01,1.49,4.69,4,5.09,7.28c0.42,3.43,0.69,6.88,1.79,10.19   C461.38,365.21,461.61,365.41,461.72,365.66z"/>
	<path class="st42" d="M460.35,372.86c1.44,0.11,2.86,0.35,4.03,1.4c1.49,1.34,1.56,3.46,0.11,4.81c-1.21,1.13-2.7,1.64-4.32,1.51   c-2.19-0.18-4.22-0.92-5.93-2.33c-1.56-1.28-1.54-1.86,0.08-3.15C456.07,373.73,458.1,373.07,460.35,372.86z"/>
	<path class="st43" d="M461.89,387.14c-0.18-0.21-0.36-0.41-0.54-0.62c0.56-1.17,1.13-2.34,1.69-3.51c0.2-0.22,0.4-0.21,0.6,0   C463.37,384.52,462.82,385.91,461.89,387.14z"/>
	<path class="st44" d="M462.48,367.31c0.62,0.7,0.88,1.54,1.04,2.43c-0.17,0.21-0.2,0.56-0.55,0.61c-0.37-0.8-0.74-1.6-1.11-2.4   C462.04,367.72,462.1,367.37,462.48,367.31z"/>
	<path class="st45" d="M462.48,367.31c-0.21,0.22-0.41,0.43-0.62,0.65c-0.25-0.36-0.62-0.66-0.59-1.16c0.2-0.21,0.41-0.41,0.61-0.62   C462.28,366.45,462.43,366.86,462.48,367.31z"/>
	<path class="st46" d="M440.7,392.12c-0.28,0.26-0.56,0.51-0.84,0.77c-0.48-0.39-0.7-0.95-0.2-1.32   C439.99,391.33,440.5,391.66,440.7,392.12z"/>
	<path class="st47" d="M463.04,333.28c-0.03,0.38-0.05,0.76-0.08,1.14c-0.4-0.3-0.63-0.7-0.46-1.17   C462.63,332.87,462.88,332.98,463.04,333.28z"/>
	<path class="st48" d="M462.96,370.35c0.18-0.2,0.37-0.41,0.55-0.61c0.11,0.34,0.36,0.73-0.01,0.99   C463.28,370.89,463.04,370.63,462.96,370.35z"/>
	<path class="st49" d="M462.88,419.4c0.05,0.24,0.09,0.47,0.14,0.71c-0.1,0.28-0.31,0.43-0.48,0.11   C462.37,419.9,462.53,419.58,462.88,419.4z"/>
	<path class="st50" d="M463.63,383.01c-0.2,0-0.4,0-0.6,0c-0.07-0.34,0.08-0.56,0.41-0.54C463.82,382.5,463.9,382.73,463.63,383.01z   "/>
	<path class="st45" d="M461.72,365.66c-0.3-0.16-0.43-0.41-0.37-0.75C461.66,365.08,461.78,365.33,461.72,365.66z"/>
	<path class="st45" d="M460.85,366.2c0.3,0.08,0.42,0.28,0.4,0.58C460.98,366.68,460.82,366.51,460.85,366.2z"/>
	<path class="st2" d="M275.45,594.43c1.36-0.6,2.76-0.49,4.06-0.82c5.27-1.35,10.27-3.35,14.66-6.56c5.2-3.8,7.33-9.39,8.8-15.28   c0.97-3.87,0.91-7.81,0.54-11.9c1.71,0.14,3.23,0.33,4.75,0.36c1.45,0.02,2.91-0.09,4.61-0.65c-0.37,3.54-0.45,6.75,0.05,10   c0.71,4.56,2.34,8.74,4.7,12.68c1.53,2.55,3.72,4.5,6.28,6c4.67,2.73,9.55,4.94,15.02,5.67c0.58,0.08,1.14,0.23,2.02,0.41   c-3.67,2.7-7.51,4.07-11.81,4.19c-1.28,0.03-2.56-0.08-3.84-0.03c-1.51,0.06-1.92,0.56-1.75,1.99c0.05,0.38,0.28,0.73,0.32,1.11   c0.22,2.11-0.87,3.33-3.01,3.27c-1.89-0.05-3.66-0.42-5.16-1.76c-1.29-1.14-1.66-1.07-2.42,0.35c-3.05,5.67-7.45,5.2-10.25,0.04   c-0.77-1.41-1.17-1.5-2.4-0.41c-1.5,1.33-3.26,1.72-5.16,1.77c-2.26,0.06-3.37-1.29-2.99-3.53c0.47-2.75,0.37-2.93-2.56-2.79   C284.64,598.78,279.81,597.65,275.45,594.43z"/>
	<path class="st2" d="M295.56,553.13c0.87,1.04,1.61,2.04,2.46,2.94c2.24,2.37,2.23,2.34,0.89,5.34   c-5.46,12.25-15.17,19.57-28.04,23.23c-0.86,0.25-1.72,0.38-2.61,0.36c-2.27-0.05-2.83-0.72-2.36-2.84   c0.48-2.16,0.48-2.16-1.76-2.35c-3.8-0.31-5.49-3.61-3.48-6.8c1.17-1.86,1.22-1.96-0.75-3.06c-3.17-1.78-3.77-4.76-4.02-7.89   c-0.1-1.22,0.56-1.58,1.59-1.05c10.68,5.47,20.9,3.62,30.88-1.85C291.12,557.66,293.48,555.62,295.56,553.13z"/>
	<path class="st2" d="M320.77,553.16c5.03,5.85,11.42,8.88,18.56,10.41c7.12,1.52,14.02,0.73,20.43-2.95c1.15,3.39-0.08,7.19-2.79,9   c-2.33,1.55-2.33,1.55-1,3.85c1.5,2.59-0.12,5.86-3.15,6.33c-0.38,0.06-0.78,0-1.17-0.02c-1.4-0.08-1.65,0.67-1.44,1.84   c0.54,3.03-0.13,3.79-3.27,3.32c-2.92-0.44-5.72-1.37-8.37-2.65c-9.75-4.71-17.43-11.4-21.48-21.58c-0.98-2.45-1.01-2.4,0.89-4.34   C318.91,555.42,319.74,554.35,320.77,553.16z"/>
	<path class="st2" d="M260.66,529.74c0.6-0.12,0.8-0.01,1,0.25c5.86,7.95,14.01,11.78,23.8,12.57c2.25,0.18,4.52,0.18,6.77,0.07   c1.49-0.08,1.88,0.43,1.78,1.8c-0.08,1.14,0.04,2.31,0.18,3.46c0.31,2.65,0.38,2.82-2.28,3.54c-9.75,2.66-19.62,3.88-29.66,1.66   c-1.92-0.42-3.74-1.15-5.39-2.24c-2.01-1.32-2.25-2.09-0.87-3.98c0.86-1.18,1.3-1.98-0.15-3.12c-1.26-0.98-1.93-2.49-1.35-4.12   c0.55-1.58,1.98-1.98,3.53-2.11c0.58-0.05,1.17-0.14,1.72-0.34c0.92-0.33,1.49-0.88,1.05-1.98   C260.03,533.35,260.35,531.5,260.66,529.74z"/>
	<path class="st2" d="M355.49,529.57c0.57,1.73,0.9,3.49,0.17,5.26c-0.62,1.5,0,2.22,1.71,2.61c0.38,0.09,0.78,0.06,1.17,0.12   c3.56,0.56,4.74,3.13,2.35,5.75c-1.3,1.42-1.68,2.24-0.38,3.83c1.2,1.46,0.82,2.46-0.85,3.58c-1.89,1.27-4,2.01-6.23,2.5   c-6.23,1.36-12.49,1.3-18.75,0.32c-3.58-0.56-7.22-0.89-10.65-2.18c-2.37-0.89-2.36-0.9-1.98-3.35c0.15-0.95,0.29-1.91,0.33-2.86   c0.1-2.48,0.08-2.47,2.76-2.44c3.84,0.05,7.66-0.13,11.42-1.01c7.34-1.72,13.37-5.4,17.86-11.41c0.17-0.23,0.38-0.44,0.59-0.63   C355.09,529.6,355.22,529.61,355.49,529.57z"/>
	<path class="st0" d="M313.14,534.51c4.7,2.24,7.26,6.99,6.66,12.01c-0.42,3.47-1.48,6.54-4.28,8.88   c-5.74,4.78-14.85,2.78-17.8-4.02c-2.01-4.64-1.76-9.2,0.99-13.54c0.98-1.55,2.84-2.78,5.73-3.72c-0.1,0.97-0.72,1.56-1.1,2.23   c-1.83,3.26-1.62,6.49,0.38,9.56c2.05,3.14,6.87,3.07,8.92-0.08c2.3-3.55,2.11-7.08-0.29-10.53   C312.26,534.71,312.49,534.41,313.14,534.51z"/>
	<path class="st2" d="M352.53,528.31c-0.75,1.85-2.19,3.15-3.65,4.43c-5.92,5.16-12.95,7.42-20.76,7.67   c-0.59,0.02-1.19-0.05-1.77,0.02c-3.17,0.42-5.39-0.4-6.54-3.71c-0.78-2.26-3.31-3.17-5.35-4.69c4.28-1.87,8.38-3.81,13.01-4.19   c2.87-0.24,5.68,0.33,8.47,0.82c5.39,0.94,10.72,1.17,16.02-0.46C352.19,528.05,352.38,528.07,352.53,528.31z"/>
	<path class="st2" d="M264.08,528.41c0.6-0.25,1.15,0.02,1.71,0.15c3.86,0.88,7.73,1.21,11.68,0.46c2.79-0.53,5.63-0.82,8.46-1.15   c2.89-0.33,5.7,0.22,8.4,1.11c2.5,0.83,4.91,1.92,7.36,2.9c-0.32,0.78-1.03,0.97-1.59,1.31c-2.04,1.28-3.71,2.87-4.5,5.17   c-0.47,1.36-1.35,1.99-2.83,2.05c-9.54,0.37-18.38-1.4-25.68-7.96C265.39,530.92,264.92,530.38,264.08,528.41z"/>
	<path class="st51" d="M318.38,526.62c5.82-3.28,7.67-8.41,7.22-14.69c-0.15-2.16-1.23-3.99-1.92-5.93c0.77-0.54,1.4-0.2,1.99,0.11   c2.93,1.54,5.43,3.49,6.4,6.8c0.4,1.38,1.2,1.95,2.72,2.12c3.78,0.4,4.84,2.67,2.83,5.8c-1.31,2.04-3.23,3.35-5.59,3.97   c-0.94,0.25-1.93,0.44-2.9,0.47c-3.48,0.1-6.8,0.88-10.05,2.01C318.42,527.47,318.27,527.17,318.38,526.62z"/>
	<path class="st51" d="M297.04,527.17c-3.17-1.04-6.4-1.76-9.77-1.9c-2.82-0.12-5.4-0.96-7.43-3.04c-0.76-0.78-1.39-1.61-1.77-2.63   c-0.89-2.36-0.05-4.28,2.48-4.45c2.4-0.16,3.25-1.19,4.09-3.22c1.38-3.34,4.18-5.36,8.24-6.6c-0.95,2.66-2.15,4.63-2.28,6.96   c-0.34,6.07,1.71,10.94,7.08,14.25C297.82,527.09,297.68,527.37,297.04,527.17z"/>
	<path class="st15" d="M312.02,525.93c0.01,1.61-0.44,3.05-1.69,4.15c-1.33,1.17-3.5,1-4.72-0.34c-2.35-2.6-1.15-9.14,1.95-10.82   c0.83-0.45,1.33,0.02,1.77,0.49C311.05,521.26,311.94,523.44,312.02,525.93z"/>
	<path class="st52" d="M308.26,533.78c1.13,1.72,2.27,3.16,3.08,4.75c1.1,2.17,0.55,4.33-0.79,6.24c-1.05,1.49-3.73,1.45-4.81-0.04   c-1.4-1.93-1.72-4.13-0.77-6.27C305.69,536.85,306.8,535.38,308.26,533.78z"/>
	<path class="st53" d="M318.38,526.62c0.23,0.22,0.45,0.43,0.68,0.65c-1.13,0.75-2.32,1.35-3.68,1.58   c-0.33-0.21-0.33-0.42-0.01-0.63C316.28,527.52,317.3,527.01,318.38,526.62z"/>
	<path class="st54" d="M297.04,527.17c0.21-0.21,0.43-0.42,0.64-0.63c1.08,0.39,2.08,0.9,2.97,1.63c0.18,0.13,0.24,0.26,0.17,0.39   c-0.06,0.13-0.12,0.19-0.19,0.19C299.37,528.37,298.12,527.95,297.04,527.17z"/>
	<path class="st55" d="M313.14,534.51c-0.26,0.27-0.52,0.53-0.78,0.8c-0.44-0.22-0.91-0.65-0.62-1.01   C312.14,533.78,312.72,534.05,313.14,534.51z"/>
	<path class="st56" d="M300.64,528.74c0-0.19,0.01-0.39,0.01-0.58c0.19,0.02,0.4,0.02,0.58,0.07c0.43,0.11,1.2,0.09,0.91,0.74   c-0.26,0.58-0.8-0.11-1.23-0.12C300.82,528.85,300.73,528.78,300.64,528.74z"/>
	<path class="st57" d="M315.37,528.22c0,0.21,0.01,0.42,0.01,0.63c-0.17,0.08-0.34,0.19-0.52,0.23c-0.25,0.06-0.67,0.17-0.75,0.07   c-0.32-0.44,0.09-0.65,0.42-0.79C314.79,528.25,315.09,528.26,315.37,528.22z"/>
	<path class="st58" d="M290.66,554.94c-0.02-0.2-0.05-0.41-0.07-0.61c0.14-0.28,0.51-0.56,0.66-0.34   C291.63,554.55,291.18,554.8,290.66,554.94z"/>
	<path class="st59" d="M352.53,528.31c-0.19-0.04-0.37-0.07-0.56-0.11c0.21-0.41,0.53-0.58,0.9-0.23   C352.98,528.09,352.77,528.3,352.53,528.31z"/>
	<path class="st0" d="M261.36,369.39c-3.09-3.52-5.09-7.03-6.6-10.81c-0.36-0.89-0.63-1.83-0.83-2.76c-0.16-0.75-0.22-1.6,0.6-2.07   c0.89-0.5,1.48,0.13,2.03,0.68c1.4,1.37,2.94,2.56,4.61,3.59c5.7,3.53,12.06,5.1,18.66,5.87c2.53,0.3,5.08,0.58,7.65,0.47   c2.88-0.12,3.02-0.24,2.24-3.06c-1.32-4.8-3.52-9.18-6.64-13.12c-3.34-4.23-7.18-7.93-11.66-10.98c-0.57-0.38-1.13-0.78-1.69-1.16   c-0.66-0.45-1.32-0.94-1.13-1.85c0.23-1.07,1.17-1.21,2.06-1.3c3.97-0.36,7.84,0.27,11.68,1.17c1.04,0.24,2.07,0.53,3.39,0.87   c-0.27-1.66-0.48-3.15-0.75-4.63c-0.63-3.42-0.02-6.72,1.02-9.96c0.2-0.63,0.55-1.24,0.92-1.8c1.01-1.52,1.61-1.66,3.11-0.67   c1.8,1.2,3.37,2.65,4.68,4.37c2.01,2.63,3.7,5.45,4.85,8.55c1.08-0.33,1.36-1.24,1.89-1.9c2.7-3.38,5.92-6.18,9.73-8.3   c0.67-0.37,1.38-0.9,2.17-0.29c0.89,0.69,0.57,1.55,0.21,2.36c-2.87,6.5-3.69,13.34-3.55,20.35c0.08,4.01,1.22,7.8,2.6,11.52   c0.64,1.72,0.94,1.76,2.57,0.75c3.27-2.02,6.19-4.47,8.55-7.47c5.06-6.42,8.94-13.38,9.82-21.63c0.05-0.47,0.05-1.01,0.63-1.18   c0.68-0.21,1.12,0.24,1.49,0.68c1.83,2.24,2.76,4.87,3.31,7.64c0.53,2.65,0.87,5.33,0.17,8.13c1.18,0.17,1.75-0.59,2.45-0.99   c3.78-2.17,7.72-3.82,12.21-3.79c0.49,0,0.99-0.02,1.47,0.03c1.99,0.24,2.54,0.92,2.23,2.87c-0.45,2.9-1.59,5.56-3.22,8.01   c-1.39,2.08-2.88,4.11-4.47,6.37c3.6,0.68,6.67,2.12,9.62,3.87c1.62,0.96,3.07,2.11,4.23,3.57c1.08,1.37,0.64,2.31-1.16,2.51   c-0.87,0.1-1.77,0-2.65,0c-10.6,0.01-20.16,3.03-28.33,9.74c-3.94,3.24-3.61,3.24-0.02,6.2c8.16,6.72,17.71,9.77,28.34,9.71   c1.49-0.01,3.57-0.76,4.17,1.07c0.5,1.53-1.43,2.33-2.51,3.22c-2.99,2.47-6.48,3.97-10.29,4.79c-0.95,0.2-1.9,0.42-3.16,0.69   c2.4,2.22,4.47,4.36,6.04,6.92c1.07,1.74,2.1,3.49,2.63,5.47c0.97,3.68,0.24,4.6-3.58,4.48c-4.11-0.14-7.93-1.26-11.48-3.3   c-0.73-0.42-1.3-1.21-2.43-1.06c0.76,4.7,0.05,9.21-1.98,13.51c-0.25,0.52-0.54,1.03-0.84,1.53c-0.39,0.65-1,0.91-1.75,0.82   c-0.89-0.1-0.98-0.76-1.11-1.46c-1.03-5.25-2.87-10.19-5.72-14.78c-3.27-5.25-7.16-9.91-12.55-13.21   c-1.77-1.08-1.98-1.04-2.72,0.84c-2.52,6.35-3.11,12.91-2.16,19.62c0.6,4.21,1.35,8.38,3.24,12.26c0.35,0.72,0.62,1.51-0.13,2.12   c-0.71,0.58-1.47,0.28-2.19-0.12c-4.17-2.32-7.66-5.38-10.46-9.2c-0.28-0.38-0.46-0.86-1.19-1.09c-1.04,2.52-2.33,4.95-3.93,7.22   c-1.64,2.32-3.54,4.4-5.87,6.05c-2,1.42-2.89,1.14-3.62-1.22c-1.48-4.77-2.02-9.61-0.74-14.53c0.1-0.37,0.16-0.75,0.22-1.13   c0.01-0.08-0.07-0.17-0.19-0.41c-1.64,0.38-3.32,0.77-4.99,1.17c-3.08,0.74-6.21,0.93-9.37,0.78c-0.99-0.05-2.1,0.03-2.52-1.07   c-0.52-1.37,0.74-1.83,1.59-2.4c6.36-4.23,11.66-9.45,15.66-15.9c2.31-3.73,4-8.54,4.08-11.79c-2.61-0.35-5.26-0.26-7.88-0.05   c-5.81,0.47-11.49,1.52-16.83,3.94c-3.05,1.39-5.95,3-8.31,5.41c-0.2,0.21-0.43,0.4-0.65,0.59c-0.56,0.49-1.2,0.72-1.88,0.33   c-0.59-0.33-0.58-0.95-0.57-1.54c0.02-1.18,0.47-2.27,0.93-3.33c1.56-3.65,3.36-7.17,6.43-10.5c-1.59-0.25-2.78-0.44-3.97-0.62   c-3.96-0.6-7.6-1.99-10.79-4.36c-2.7-2.01-2.69-3.14-0.02-5.12c3.53-2.62,7.54-4.1,11.94-4.53   C259.16,369.6,259.92,369.53,261.36,369.39z"/>
	<path class="st4" d="M227.12,333.28c0.28,0.67,0.85,0.7,1.2,1c1.2,1.01,1.23,2.41,0.09,3.46c-1.06,0.98-2.35,0.93-3.36-0.19   c-1.21-1.33-1.42-2.9-1.01-4.6c0.76-3.23,3.12-5.26,5.61-7.19c2.47-1.92,5.41-2.68,8.41-3.25c9.18-1.72,18.25,1.91,22.9,8.56   c3.99,5.7,1.07,13.45-5.59,15.74c-6.31,2.17-11.56-1.37-13.68-6.63c-0.83-2.06-1.64-4.11-3.25-5.77   C234.7,330.59,231.93,330.26,227.12,333.28z"/>
	<path class="st4" d="M240.37,437.23c0.61-0.57,0.96-1.07,1.44-1.31c1.13-0.56,2.11-0.18,2.83,0.79c0.66,0.88,0.7,1.85-0.05,2.65   c-0.96,1.03-2.1,1.7-3.66,1.21c-3.13-0.98-5.19-3.09-6.34-5.98c-2.83-7.13-1.85-13.98,2.13-20.4c2.45-3.96,6.09-6.66,10.35-8.72   c6.92-3.34,15.31,2.09,15.33,9.75c0.02,5.16-3.98,10.37-11.17,10.56c-2.27,0.06-4.49,0.16-6.61,1.12   C239.87,429.07,238.65,431.8,240.37,437.23z"/>
	<path class="st4" d="M322.43,287.1c-0.42,0.37-0.34,0.65-0.32,0.93c0.07,1.21-0.45,2.07-1.71,2.29c-1.11,0.19-1.86-0.43-2.46-1.26   c-0.75-1.04-0.47-2,0.29-2.89c1.29-1.52,2.97-2.18,4.95-1.98c3.89,0.39,7.18,2.13,9.72,4.91c4.32,4.73,6.98,10.24,6.67,16.75   c-0.21,4.38-1.32,8.55-4.13,12.1c-3.53,4.45-10.46,5.9-15.36,1.57c-4.92-4.35-5.78-10.19-0.65-15.46c1.62-1.67,3.56-3.02,5.03-4.84   C327.41,295.55,327.88,290.4,322.43,287.1z"/>
	<path class="st4" d="M342.67,461.65c0.23-1.18-1.12-2.05-0.13-3.13c0.85-0.93,2.07-1.32,3.13-0.79c1.3,0.65,1.85,1.79,1.37,3.11   c-0.55,1.5-1.58,2.55-3.11,3.26c-3.96,1.85-7.93,1.39-11.67-0.23c-8.27-3.59-13.47-9.59-14.67-18.69   c-0.5-3.79-0.21-7.23,2.09-10.38c2.61-3.57,8.06-5.43,12.63-3.46c5.8,2.5,7.68,7.6,6.36,12.14c-0.44,1.49-1,2.9-1.69,4.29   c-0.73,1.47-1.37,2.97-1.5,4.64C335.07,457.29,336.72,460.65,342.67,461.65z"/>
	<path class="st4" d="M398.63,364.87c-0.7,0.05-1.2,0.19-1.64,0.09c-1.39-0.33-2.08-1.43-1.87-2.83c0.19-1.28,0.97-1.81,2.57-1.73   c1.66,0.08,3.29,1.56,3.92,3.42c1.32,3.86,0.43,7.54-1.48,10.84c-3.27,5.65-8.1,9.65-14.62,11.33c-4.44,1.15-8.99,1.26-13.28-0.4   c-5.94-2.3-8.78-9.18-5.22-15.16c3.3-5.55,9.34-6.89,14.96-3.49c2.34,1.42,4.63,2.91,7.33,3.65   C393.07,371.63,397.98,369.85,398.63,364.87z"/>
	<path class="st2" d="M308.26,387.1c-6.82,0.48-11.12-4.9-11.14-10.43c-0.01-5.59,4.37-10.54,11.09-10.6   c6.07-0.05,10.78,5.25,10.81,10.55C319.04,382.1,314.25,387.67,308.26,387.1z"/>
</g>
</svg>