<?xml version="1.0" encoding="UTF-8"?>
<svg id="Layer_1" data-name="Layer 1" xmlns="http://www.w3.org/2000/svg" viewBox="0 0 218.03 191.32">
  <defs>
    <style>
      .cls-1 {
        fill: #bd9d52;
        stroke: #bd9d52;
        stroke-miterlimit: 10;
      }
    </style>
  </defs>
  <path class="cls-1" d="M103.1,51.8c0,25.75-18.98,47.07-43.71,50.74-2.48.37-5.01.56-7.59.56C23.47,103.1.5,80.13.5,51.8S23.47.5,51.8.5s51.3,22.97,51.3,51.3Z"/>
  <path class="cls-1" d="M103,48.53c3.75,29.6-10.87,97.93-81.98,140.73,0,0,40.01-46,30.78-86.16"/>
  <path class="cls-1" d="M217.1,51.8c0,25.75-18.98,47.07-43.71,50.74-2.48.37-5.01.56-7.59.56-28.33,0-51.3-22.97-51.3-51.3S137.47.5,165.8.5s51.3,22.97,51.3,51.3Z"/>
  <path class="cls-1" d="M217,48.53c3.75,29.6-10.87,97.93-81.98,140.73,0,0,40.01-46,30.78-86.16"/>
</svg>