<?xml version="1.0" encoding="UTF-8"?>
<svg id="Layer_8_copy" xmlns="http://www.w3.org/2000/svg" version="1.1" viewBox="0 0 742.36 82.36">
  <!-- Generator: Adobe Illustrator 29.5.1, SVG Export Plug-In . SVG Version: 2.1.0 Build 141)  -->
  <defs>
    <style>
      .st0 {
        stroke-width: 4.5px;
      }

      .st0, .st1, .st2, .st3, .st4, .st5, .st6, .st7, .st8 {
        stroke: #70654a;
        stroke-miterlimit: 10;
      }

      .st0, .st4, .st5 {
        fill: #050505;
      }

      .st0, .st6, .st7 {
        stroke-linecap: round;
      }

      .st1, .st3, .st5, .st7 {
        stroke-width: 3px;
      }

      .st1, .st9 {
        fill: #70654a;
      }

      .st2, .st3, .st6, .st7, .st8 {
        fill: none;
      }

      .st2, .st6 {
        stroke-width: 4px;
      }

      .st4 {
        stroke-width: .5px;
      }
    </style>
  </defs>
  <g>
    <g>
      <circle class="st5" cx="27.11" cy="35.09" r="2.13"/>
      <circle class="st5" cx="3.65" cy="41.18" r="2.13"/>
    </g>
    <line class="st0" x1="41.36" y1="41.18" x2="740.11" y2="41.18"/>
    <line class="st0" x1="11.66" y1="41.18" x2="18.18" y2="41.18"/>
  </g>
  <g>
    <line class="st5" x1="80.08" y1="44.62" x2="80.08" y2="37.75"/>
    <g>
      <circle class="st1" cx="77.94" cy="44.62" r="2.13"/>
      <circle class="st1" cx="77.94" cy="37.75" r="2.13"/>
      <path class="st4" d="M75.81,37.75"/>
      <line class="st5" x1="75.81" y1="44.62" x2="75.81" y2="37.75"/>
    </g>
  </g>
  <path class="st7" d="M36.34,21.6"/>
  <path class="st7" d="M57.7,33.63"/>
  <path class="st7" d="M55.88,34.44"/>
  <circle class="st1" cx="3.65" cy="41.18" r="2.13"/>
  <path class="st2" d="M72.12,40.82"/>
  <path class="st2" d="M17.12,41.18v-.07c8.39-4.6,8.71-15.5,18.69-13.32"/>
  <g>
    <path class="st9" d="M59.26,30.73c1.48,4.56-4.48,6.7-7.59,4.13-2.82-2.31-1.88-6.52-3.21-9.56-2.77-6.29-13.51-5.12-12.65,2.5-2.77-7.35,4.82-13.7,12.84-8.76,1.21.74,2.28,1.7,3.21,2.77,2.44,2.81,4.86,5.97,7.4,8.92Z"/>
    <g>
      <path class="st2" d="M17.12,41.18v-.07c8.39-4.6,8.7-15.5,18.69-13.31-2.77-7.35,4.82-13.7,12.84-8.76,1.21.74,2.28,1.7,3.21,2.77,2.44,2.81,4.86,5.97,7.4,8.92,3.87,4.51,8,8.53,12.86,10.09"/>
      <path class="st8" d="M35.81,27.8c-.86-7.62,9.88-8.79,12.65-2.5,1.33,3.04.39,7.25,3.21,9.56,3.11,2.57,9.07.43,7.59-4.13"/>
    </g>
  </g>
  <circle class="st1" cx="27.11" cy="35.09" r="2.13"/>
  <g>
    <g>
      <path class="st9" d="M51.67,47.5c3.11-2.56,9.07-.43,7.59,4.13-2.54,2.95-4.96,6.11-7.4,8.92-.93,1.07-2,2.03-3.21,2.77-8.02,4.94-15.61-1.41-12.84-8.75-.86,7.62,9.88,8.79,12.65,2.49,1.33-3.04.39-7.24,3.21-9.56Z"/>
      <path class="st9" d="M27.11,45.14c1.18,0,2.13.96,2.13,2.14s-.95,2.13-2.13,2.13-2.13-.96-2.13-2.13.95-2.14,2.13-2.14Z"/>
    </g>
    <g>
      <path class="st2" d="M17.12,41.18v.07c8.39,4.6,8.7,15.5,18.69,13.32-2.77,7.34,4.82,13.69,12.84,8.75,1.21-.74,2.28-1.7,3.21-2.77,2.44-2.81,4.86-5.97,7.4-8.92,3.87-4.5,8-8.52,12.86-10.08"/>
      <path class="st8" d="M35.81,54.57c-.86,7.62,9.88,8.79,12.65,2.49,1.33-3.04.39-7.24,3.21-9.56,3.11-2.56,9.07-.43,7.59,4.13"/>
      <path class="st3" d="M29.24,47.28c0-1.18-.95-2.14-2.13-2.14s-2.13.96-2.13,2.14.95,2.13,2.13,2.13,2.13-.96,2.13-2.13Z"/>
    </g>
  </g>
  <g>
    <path class="st6" d="M100.24,59.67V25.1c0-3.32,0-2.26,0-2.2.1,3.63-3.6,11.35-8.24,11.35"/>
    <path class="st6" d="M107.13,22.7v34.56c0,3.32,0,2.26,0,2.2-.1-3.63,3.6-11.35,8.24-11.35"/>
  </g>
</svg>