<?xml version="1.0" encoding="UTF-8"?>
<svg id="Layer_3" xmlns="http://www.w3.org/2000/svg" version="1.1" viewBox="0 0 1020 1020">
  <!-- Generator: Adobe Illustrator 29.5.1, SVG Export Plug-In . SVG Version: 2.1.0 Build 141)  -->
  <defs>
    <style>
      .st0 {
        fill: none;
        stroke: #191814;
        stroke-miterlimit: 10;
        stroke-width: 5px;
      }
    </style>
  </defs>
  <g>
    <g>
      <g>
        <g>
          <polygon class="st0" points="145.1 365.89 127.5 365.89 109.9 365.89 109.9 383.38 109.9 400.86 97.45 413.22 85 425.58 97.45 437.95 109.9 450.31 109.9 467.79 109.9 485.27 127.5 485.27 145.1 485.27 176.22 455.43 207.34 425.58 176.22 395.74 145.1 365.89"/>
          <polygon class="st0" points="194.9 365.89 163.78 395.74 132.66 425.58 163.78 455.43 194.9 485.27 212.5 485.27 230.1 485.27 230.1 467.79 230.1 450.31 242.55 437.95 255 425.58 242.55 413.22 230.1 400.86 230.1 383.37 230.1 365.89 212.5 365.89 194.9 365.89"/>
        </g>
        <polyline class="st0" points="24.9 485.27 0 510 24.9 485.27 60.1 485.27 60.1 450.31 85 425.58 60.1 400.86 60.1 365.89 24.9 365.89 0 341.17"/>
        <g>
          <polyline class="st0" points="24.9 316.44 42.5 316.44 60.1 316.44 60.1 298.96 60.1 281.48 30.05 250.57 0 219.66"/>
          <path class="st0" d="M0,341.17"/>
          <polyline class="st0" points="24.9 197.06 0 172.33 12.45 184.7 24.9 197.06 42.5 197.06 60.1 197.06 60.1 214.54 60.1 232.02 30.05 262.93 0 293.84"/>
        </g>
        <polyline class="st0" points="0 510 24.9 485.27 60.1 485.27 60.1 450.31 85 425.58 60.1 400.86 60.1 365.89 24.9 365.89 0 341.17"/>
        <g>
          <polyline class="st0" points="0 631.5 30.05 600.6 60.1 569.69 60.1 552.21 60.1 534.73 42.5 534.73 24.9 534.73 0 510 24.9 485.27"/>
          <polyline class="st0" points="24.9 703.56 0 678.83 12.45 666.47 24.9 654.11 42.5 654.11 60.1 654.11 60.1 636.62 60.1 619.14 30.05 588.24 0 557.33"/>
        </g>
      </g>
      <g>
        <g>
          <polygon class="st0" points="194.9 365.89 212.5 365.89 230.1 365.89 230.1 383.38 230.1 400.86 242.55 413.22 255 425.58 242.55 437.95 230.1 450.31 230.1 467.79 230.1 485.27 212.5 485.27 194.9 485.27 163.78 455.43 132.66 425.58 163.78 395.74 194.9 365.89"/>
          <polygon class="st0" points="145.1 365.89 176.22 395.74 207.34 425.58 176.22 455.43 145.1 485.27 127.5 485.27 109.9 485.27 109.9 467.79 109.9 450.31 97.45 437.95 85 425.58 97.45 413.22 109.9 400.86 109.9 383.38 109.9 365.89 127.5 365.89 145.1 365.89"/>
        </g>
        <polyline class="st0" points="279.9 365.89 279.9 400.86 255 425.58 279.9 450.31 279.9 485.27"/>
        <g>
          <polyline class="st0" points="297.5 316.44 279.9 316.44 279.9 298.96 279.9 281.48"/>
          <polyline class="st0" points="279.9 232.02 279.9 214.54 279.9 197.06 297.5 197.06"/>
        </g>
        <polyline class="st0" points="279.9 485.27 279.9 450.31 255 425.58 279.9 400.86 279.9 365.89"/>
        <g>
          <polyline class="st0" points="297.5 534.73 279.9 534.73 279.9 552.21 279.9 569.69"/>
          <polyline class="st0" points="279.9 619.14 279.9 636.62 279.9 654.11 297.5 654.11"/>
        </g>
      </g>
      <g>
        <g>
          <polyline class="st0" points="279.9 281.48 279.9 298.96 279.9 316.44 297.5 316.44"/>
          <polyline class="st0" points="297.5 197.06 279.9 197.06 279.9 214.54 279.9 232.02"/>
        </g>
        <g>
          <polyline class="st0" points="279.9 569.69 279.9 552.21 279.9 534.73 297.5 534.73"/>
          <polyline class="st0" points="297.5 654.11 279.9 654.11 279.9 636.63 279.9 619.14"/>
        </g>
      </g>
    </g>
    <g>
      <g>
        <g>
          <polygon class="st0" points="145.1 703.56 127.5 703.56 109.9 703.56 109.9 721.04 109.9 738.52 97.45 750.89 85 763.25 97.45 775.61 109.9 787.98 109.9 805.46 109.9 822.94 127.5 822.94 145.1 822.94 176.22 793.1 207.34 763.25 176.22 733.4 145.1 703.56"/>
          <polygon class="st0" points="194.9 703.56 163.78 733.4 132.66 763.25 163.78 793.1 194.9 822.94 212.5 822.94 230.1 822.94 230.1 805.46 230.1 787.98 242.55 775.61 255 763.25 242.55 750.89 230.1 738.52 230.1 721.04 230.1 703.56 212.5 703.56 194.9 703.56"/>
        </g>
        <polyline class="st0" points="24.9 872.39 0 847.67 24.9 822.94 0 847.67 24.9 822.94 60.1 822.94 60.1 787.98 85 763.25 60.1 738.52 60.1 703.56 24.9 703.56 0 678.83"/>
        <g>
          <polyline class="st0" points="0 678.83 12.45 666.47 24.9 654.11 42.5 654.11 60.1 654.11 60.1 636.63 60.1 619.14 30.05 588.24 -2.1 555.17"/>
          <polyline class="st0" points="-2.7 634.28 30.05 600.6 60.1 569.69 60.1 552.21 60.1 534.73 42.5 534.73 24.9 534.73"/>
        </g>
        <polyline class="st0" points="0 847.67 24.9 822.94 60.1 822.94 60.1 787.98 85 763.25 60.1 738.52 60.1 703.56 24.9 703.56 0 678.83"/>
        <g>
          <polyline class="st0" points="0 847.67 12.45 860.03 24.9 872.39 42.5 872.39 60.1 872.39 60.1 889.87 60.1 907.36 -1.87 971.1"/>
          <polyline class="st0" points="-3.52 1020 24.9 991.77 42.5 991.77 60.1 991.77 60.1 974.29 60.1 956.81 30.05 925.9 -1.87 893.07"/>
        </g>
      </g>
      <g>
        <g>
          <polygon class="st0" points="194.9 703.56 212.5 703.56 230.1 703.56 230.1 721.04 230.1 738.52 242.55 750.89 255 763.25 242.55 775.61 230.1 787.98 230.1 805.46 230.1 822.94 212.5 822.94 194.9 822.94 163.78 793.1 132.66 763.25 163.78 733.4 194.9 703.56"/>
          <polygon class="st0" points="145.1 703.56 176.22 733.4 207.34 763.25 176.22 793.1 145.1 822.94 127.5 822.94 109.9 822.94 109.9 805.46 109.9 787.98 97.45 775.61 85 763.25 97.45 750.89 109.9 738.52 109.9 721.04 109.9 703.56 127.5 703.56 145.1 703.56"/>
        </g>
        <polyline class="st0" points="279.9 703.56 279.9 738.52 255 763.25 279.9 787.98 279.9 822.94"/>
        <g>
          <polyline class="st0" points="297.5 654.11 279.9 654.11 279.9 636.63 279.9 619.14"/>
          <polyline class="st0" points="279.9 569.69 279.9 552.21 279.9 534.73 297.5 534.73"/>
        </g>
        <polyline class="st0" points="279.9 822.94 279.9 787.98 255 763.25 279.9 738.52 279.9 703.56"/>
        <path class="st0" d="M279.9,872.39"/>
      </g>
      <g>
        <g>
          <polyline class="st0" points="279.9 619.14 279.9 636.63 279.9 654.11 297.5 654.11"/>
          <polyline class="st0" points="297.5 534.73 279.9 534.73 279.9 552.21 279.9 569.69"/>
        </g>
        <path class="st0" d="M279.9,872.39"/>
      </g>
    </g>
    <g>
      <g>
        <g>
          <polygon class="st0" points="145.1 28.23 127.5 28.23 109.9 28.23 109.9 45.71 109.9 63.19 97.45 75.55 85 87.92 97.45 100.28 109.9 112.64 109.9 130.12 109.9 147.61 127.5 147.61 145.1 147.61 176.22 117.76 207.34 87.92 176.22 58.07 145.1 28.23"/>
          <polygon class="st0" points="194.9 28.23 163.78 58.07 132.66 87.92 163.78 117.76 194.9 147.61 212.5 147.61 230.1 147.61 230.1 130.13 230.1 112.64 242.55 100.28 255 87.92 242.55 75.55 230.1 63.19 230.1 45.71 230.1 28.23 212.5 28.23 194.9 28.23"/>
        </g>
        <polyline class="st0" points="0 3.5 24.9 28.23 60.1 28.23 60.1 63.19 85 87.92 60.1 112.64 60.1 147.61 24.9 147.61 0 172.33 24.9 197.06"/>
        <polyline class="st0" points="24.9 147.61 60.1 147.61 60.1 112.64 85 87.92 60.1 63.19 60.1 28.23 24.9 28.23 -1.97 1.54"/>
        <g>
          <polyline class="st0" points="12.45 184.7 24.9 197.06 42.5 197.06 60.1 197.06 60.1 214.54 60.1 232.02 30.05 262.93 -2.65 296.57"/>
          <polyline class="st0" points="-2 217.6 30.05 250.57 60.1 281.48 60.1 298.96 60.1 316.44 42.5 316.44 24.9 316.44 0 341.17 24.9 365.89"/>
        </g>
      </g>
      <g>
        <g>
          <polygon class="st0" points="194.9 28.23 212.5 28.23 230.1 28.23 230.1 45.71 230.1 63.19 242.55 75.55 255 87.92 242.55 100.28 230.1 112.64 230.1 130.13 230.1 147.61 212.5 147.61 194.9 147.61 163.78 117.76 132.66 87.92 163.78 58.07 194.9 28.23"/>
          <polygon class="st0" points="145.1 28.23 176.22 58.07 207.34 87.92 176.22 117.76 145.1 147.61 127.5 147.61 109.9 147.61 109.9 130.13 109.9 112.64 97.45 100.28 85 87.92 97.45 75.55 109.9 63.19 109.9 45.71 109.9 28.23 127.5 28.23 145.1 28.23"/>
        </g>
        <polyline class="st0" points="279.9 63.19 255 87.92 279.9 112.64 279.9 147.61"/>
        <polyline class="st0" points="279.9 147.61 279.9 112.64 255 87.92 279.9 63.19"/>
        <g>
          <polyline class="st0" points="297.5 197.06 279.9 197.06 279.9 214.54 279.9 232.02"/>
          <polyline class="st0" points="279.9 281.48 279.9 298.96 279.9 316.44 297.5 316.44"/>
        </g>
      </g>
      <g>
        <polyline class="st0" points="279.9 232.02 279.9 214.54 279.9 197.06 297.5 197.06"/>
        <polyline class="st0" points="297.5 316.44 279.9 316.44 279.9 298.96 279.9 281.48"/>
      </g>
    </g>
    <g>
      <g>
        <polyline class="st0" points="279.9 281.48 279.9 298.96 279.9 316.44 297.5 316.44"/>
        <polyline class="st0" points="297.5 197.06 279.9 197.06 279.9 214.54 279.9 232.02"/>
      </g>
      <g>
        <polyline class="st0" points="279.9 569.69 279.9 552.21 279.9 534.73 297.5 534.73"/>
        <polyline class="st0" points="297.5 654.11 279.9 654.11 279.9 636.62 279.9 619.14"/>
      </g>
    </g>
    <g>
      <g>
        <polyline class="st0" points="279.9 619.14 279.9 636.62 279.9 654.11 297.5 654.11"/>
        <polyline class="st0" points="297.5 534.73 279.9 534.73 279.9 552.21 279.9 569.69"/>
      </g>
      <path class="st0" d="M279.9,872.39"/>
    </g>
    <g>
      <polyline class="st0" points="279.9 232.02 279.9 214.54 279.9 197.06 297.5 197.06"/>
      <polyline class="st0" points="297.5 316.44 279.9 316.44 279.9 298.96 279.9 281.48"/>
    </g>
    <polyline class="st0" points="60.1 316.44 207.34 316.44 207.34 293.84 170.14 293.84 170.14 219.66 132.66 219.66 132.66 197.06 279.9 197.06"/>
    <polyline class="st0" points="109.9 147.61 109.9 293.84 132.66 293.84 132.66 256.75 206.28 256.75 206.28 220.72 230.1 220.72 230.1 365.89"/>
    <polyline class="st0" points="60.1 654.11 207.34 654.11 207.34 631.5 170.14 631.5 170.14 557.33 132.66 557.33 132.66 534.73 279.9 534.73"/>
    <polyline class="st0" points="109.9 485.27 109.9 631.5 132.66 631.5 132.66 594.42 206.28 594.42 206.28 558.39 230.1 558.39 230.1 703.56"/>
    <polyline class="st0" points="60.1 991.77 207.34 991.77 207.34 969.17 170.14 969.17 170.14 895 132.66 895 132.66 872.39 279.9 872.39"/>
    <polyline class="st0" points="109.9 822.94 109.9 969.17 132.66 969.17 132.66 932.08 206.28 932.08 206.28 896.06 230.1 896.06 230.1 1020"/>
    <line class="st0" x1="230.1" y1="28.23" x2="230.1" y2="0"/>
  </g>
  <g>
    <g>
      <path class="st0" d="M207.34,425.58"/>
      <polyline class="st0" points="230.1 485.27 230.1 467.79 230.1 450.31 242.55 437.95 255 425.58 242.55 413.22 230.1 400.86 230.1 383.37 230.1 365.89"/>
    </g>
    <g>
      <g>
        <polyline class="st0" points="230.1 365.89 230.1 383.38 230.1 400.86 242.55 413.22 255 425.58 242.55 437.95 230.1 450.31 230.1 467.79 230.1 485.27"/>
        <path class="st0" d="M207.34,425.58"/>
      </g>
      <polyline class="st0" points="340 341.17 315.1 365.89 279.9 365.89 279.9 400.86 255 425.58 279.9 450.31 279.9 485.27 315.1 485.27 340 510"/>
      <g>
        <polygon class="st0" points="400.1 281.48 400.1 298.96 400.1 316.44 382.5 316.44 364.9 316.44 352.45 328.8 340 341.17 327.55 328.8 315.1 316.44 297.5 316.44 279.9 316.44 279.9 298.96 279.9 281.48 309.95 250.57 340 219.66 370.05 250.57 400.1 281.48"/>
        <polygon class="st0" points="400.1 232.02 370.05 262.93 340 293.84 309.95 262.93 279.9 232.02 279.9 214.54 279.9 197.06 297.5 197.06 315.1 197.06 327.55 184.7 340 172.33 352.45 184.7 364.9 197.06 382.5 197.06 400.1 197.06 400.1 214.54 400.1 232.02"/>
      </g>
      <polyline class="st0" points="340 510 315.1 485.27 279.9 485.27 279.9 450.31 255 425.58 279.9 400.86 279.9 365.89 315.1 365.89 340 341.17"/>
      <g>
        <polygon class="st0" points="400.1 569.69 400.1 552.21 400.1 534.73 382.5 534.73 364.9 534.73 352.45 522.36 340 510 327.55 522.36 315.1 534.73 297.5 534.73 279.9 534.73 279.9 552.21 279.9 569.69 309.95 600.6 340 631.5 370.05 600.6 400.1 569.69"/>
        <polygon class="st0" points="400.1 619.14 370.05 588.24 340 557.33 309.95 588.24 279.9 619.14 279.9 636.62 279.9 654.11 297.5 654.11 315.1 654.11 327.55 666.47 340 678.83 352.45 666.47 364.9 654.11 382.5 654.11 400.1 654.11 400.1 636.63 400.1 619.14"/>
      </g>
    </g>
    <g>
      <polyline class="st0" points="400.1 450.31 400.1 485.27 364.9 485.27 340 510"/>
      <polyline class="st0" points="340 341.17 364.9 365.89 400.1 365.89 400.1 400.86"/>
      <g>
        <polygon class="st0" points="279.9 281.48 279.9 298.96 279.9 316.44 297.5 316.44 315.1 316.44 327.55 328.8 340 341.17 352.45 328.8 364.9 316.44 382.5 316.44 400.1 316.44 400.1 298.96 400.1 281.48 370.05 250.57 340 219.66 309.95 250.57 279.9 281.48"/>
        <polygon class="st0" points="279.9 232.02 309.95 262.93 340 293.84 370.05 262.93 400.1 232.02 400.1 214.54 400.1 197.06 382.5 197.06 364.9 197.06 352.45 184.7 340 172.33 327.55 184.7 315.1 197.06 297.5 197.06 279.9 197.06 279.9 214.54 279.9 232.02"/>
      </g>
      <polyline class="st0" points="400.1 400.86 400.1 365.89 364.9 365.89 340 341.17"/>
      <polyline class="st0" points="340 510 364.9 485.27 400.1 485.27 400.1 450.31"/>
      <g>
        <polygon class="st0" points="279.9 569.69 279.9 552.21 279.9 534.73 297.5 534.73 315.1 534.73 327.55 522.36 340 510 352.45 522.36 364.9 534.73 382.5 534.73 400.1 534.73 400.1 552.21 400.1 569.69 370.05 600.6 340 631.5 309.95 600.6 279.9 569.69"/>
        <polygon class="st0" points="279.9 619.14 309.95 588.24 340 557.33 370.05 588.24 400.1 619.14 400.1 636.63 400.1 654.11 382.5 654.11 364.9 654.11 352.45 666.47 340 678.83 327.55 666.47 315.1 654.11 297.5 654.11 279.9 654.11 279.9 636.63 279.9 619.14"/>
      </g>
    </g>
  </g>
  <g>
    <g>
      <path class="st0" d="M207.34,763.25"/>
      <polyline class="st0" points="230.1 822.94 230.1 805.46 230.1 787.98 242.55 775.61 255 763.25 242.55 750.89 230.1 738.52 230.1 721.04 230.1 703.56"/>
    </g>
    <g>
      <g>
        <polyline class="st0" points="230.1 703.56 230.1 721.04 230.1 738.52 242.55 750.89 255 763.25 242.55 775.61 230.1 787.98 230.1 805.46 230.1 822.94"/>
        <path class="st0" d="M207.34,763.25"/>
      </g>
      <polyline class="st0" points="340 678.83 315.1 703.56 279.9 703.56 279.9 738.52 255 763.25 279.9 787.98 279.9 822.94 315.1 822.94 340 847.67"/>
      <g>
        <polygon class="st0" points="400.1 619.14 400.1 636.63 400.1 654.11 382.5 654.11 364.9 654.11 352.45 666.47 340 678.83 327.55 666.47 315.1 654.11 297.5 654.11 279.9 654.11 279.9 636.63 279.9 619.14 309.95 588.24 340 557.33 370.05 588.24 400.1 619.14"/>
        <polygon class="st0" points="400.1 569.69 370.05 600.6 340 631.5 309.95 600.6 279.9 569.69 279.9 552.21 279.9 534.73 297.5 534.73 315.1 534.73 327.55 522.36 340 510 352.45 522.36 364.9 534.73 382.5 534.73 400.1 534.73 400.1 552.21 400.1 569.69"/>
      </g>
      <polyline class="st0" points="340 847.67 315.1 822.94 279.9 822.94 279.9 787.98 255 763.25 279.9 738.52 279.9 703.56 315.1 703.56 340 678.83"/>
      <g>
        <polygon class="st0" points="400.1 907.36 400.1 889.88 400.1 872.39 382.5 872.39 364.9 872.39 352.45 860.03 340 847.67 327.55 860.03 315.1 872.39 297.5 872.39 279.9 872.39 279.9 889.88 279.9 907.36 309.95 938.26 340 969.17 370.05 938.26 400.1 907.36"/>
        <polygon class="st0" points="400.1 956.81 370.05 925.9 340 895 309.95 925.9 279.9 956.81 279.9 974.29 279.9 991.77 297.5 991.77 315.1 991.77 327.55 1004.14 340 1016.5 352.45 1004.14 364.9 991.77 382.5 991.77 400.1 991.77 400.1 974.29 400.1 956.81"/>
      </g>
    </g>
    <g>
      <polyline class="st0" points="400.1 787.98 400.1 822.94 364.9 822.94 340 847.67"/>
      <polyline class="st0" points="340 678.83 364.9 703.56 400.1 703.56 400.1 738.52"/>
      <g>
        <polygon class="st0" points="279.9 619.14 279.9 636.63 279.9 654.11 297.5 654.11 315.1 654.11 327.55 666.47 340 678.83 352.45 666.47 364.9 654.11 382.5 654.11 400.1 654.11 400.1 636.63 400.1 619.14 370.05 588.24 340 557.33 309.95 588.24 279.9 619.14"/>
        <polygon class="st0" points="279.9 569.69 309.95 600.6 340 631.5 370.05 600.6 400.1 569.69 400.1 552.21 400.1 534.73 382.5 534.73 364.9 534.73 352.45 522.36 340 510 327.55 522.36 315.1 534.73 297.5 534.73 279.9 534.73 279.9 552.21 279.9 569.69"/>
      </g>
      <polyline class="st0" points="400.1 738.52 400.1 703.56 364.9 703.56 340 678.83"/>
      <polyline class="st0" points="340 847.67 364.9 822.94 400.1 822.94 400.1 787.98"/>
      <g>
        <polygon class="st0" points="279.9 907.36 279.9 889.88 279.9 872.39 297.5 872.39 315.1 872.39 327.55 860.03 340 847.67 352.45 860.03 364.9 872.39 382.5 872.39 400.1 872.39 400.1 889.88 400.1 907.36 370.05 938.26 340 969.17 309.95 938.26 279.9 907.36"/>
        <polygon class="st0" points="279.9 956.81 309.95 925.9 340 895 370.05 925.9 400.1 956.81 400.1 974.29 400.1 991.77 382.5 991.77 364.9 991.77 352.45 1004.14 340 1016.5 327.55 1004.14 315.1 991.77 297.5 991.77 279.9 991.77 279.9 974.29 279.9 956.81"/>
      </g>
    </g>
  </g>
  <g>
    <polyline class="st0" points="230.1 147.61 230.1 130.13 230.1 112.64 242.55 100.28 255 87.92 242.55 75.55 230.1 63.19 230.1 45.71 230.1 28.23"/>
    <g>
      <polyline class="st0" points="230.1 28.23 230.1 45.71 230.1 63.19 242.55 75.55 255 87.92 242.55 100.28 230.1 112.64 230.1 130.13 230.1 147.61"/>
      <polyline class="st0" points="340 3.5 315.1 28.23 279.9 28.23 279.9 63.19 255 87.92 279.9 112.64 279.9 147.61 315.1 147.61 340 172.33"/>
      <polyline class="st0" points="340 172.33 315.1 147.61 279.9 147.61 279.9 112.64 255 87.92 279.9 63.19 279.9 28.23 315.1 28.23 340 3.5"/>
      <g>
        <polygon class="st0" points="400.1 232.02 400.1 214.54 400.1 197.06 382.5 197.06 364.9 197.06 352.45 184.7 340 172.33 327.55 184.7 315.1 197.06 297.5 197.06 279.9 197.06 279.9 214.54 279.9 232.02 309.95 262.93 340 293.84 370.05 262.93 400.1 232.02"/>
        <polygon class="st0" points="400.1 281.48 370.05 250.57 340 219.66 309.95 250.57 279.9 281.48 279.9 298.96 279.9 316.44 297.5 316.44 315.1 316.44 327.55 328.8 340 341.17 352.45 328.8 364.9 316.44 382.5 316.44 400.1 316.44 400.1 298.96 400.1 281.48"/>
      </g>
    </g>
    <g>
      <polyline class="st0" points="400.1 112.64 400.1 147.61 364.9 147.61 340 172.33"/>
      <polyline class="st0" points="400.1 63.19 400.1 28.23 364.9 28.23 340 3.5 315.1 28.23"/>
      <polyline class="st0" points="400.1 63.19 400.1 28.23 364.9 28.23"/>
      <polyline class="st0" points="340 172.33 364.9 147.61 400.1 147.61 400.1 112.64"/>
      <g>
        <polygon class="st0" points="279.9 232.02 279.9 214.54 279.9 197.06 297.5 197.06 315.1 197.06 327.55 184.7 340 172.33 352.45 184.7 364.9 197.06 382.5 197.06 400.1 197.06 400.1 214.54 400.1 232.02 370.05 262.93 340 293.84 309.95 262.93 279.9 232.02"/>
        <polygon class="st0" points="279.9 281.48 309.95 250.57 340 219.66 370.05 250.57 400.1 281.48 400.1 298.96 400.1 316.44 382.5 316.44 364.9 316.44 352.45 328.8 340 341.17 327.55 328.8 315.1 316.44 297.5 316.44 279.9 316.44 279.9 298.96 279.9 281.48"/>
      </g>
    </g>
  </g>
  <g>
    <polyline class="st0" points="400.1 450.31 400.1 485.27 364.9 485.27 340 510"/>
    <polyline class="st0" points="340 341.17 364.9 365.89 400.1 365.89 400.1 400.86"/>
    <g>
      <polygon class="st0" points="279.9 281.48 279.9 298.96 279.9 316.44 297.5 316.44 315.1 316.44 327.55 328.8 340 341.17 352.45 328.8 364.9 316.44 382.5 316.44 400.1 316.44 400.1 298.96 400.1 281.48 370.05 250.57 340 219.66 309.95 250.57 279.9 281.48"/>
      <polygon class="st0" points="279.9 232.02 309.95 262.93 340 293.84 370.05 262.93 400.1 232.02 400.1 214.54 400.1 197.06 382.5 197.06 364.9 197.06 352.45 184.7 340 172.33 327.55 184.7 315.1 197.06 297.5 197.06 279.9 197.06 279.9 214.54 279.9 232.02"/>
    </g>
    <polyline class="st0" points="400.1 400.86 400.1 365.89 364.9 365.89 340 341.17"/>
    <polyline class="st0" points="340 510 364.9 485.27 400.1 485.27 400.1 450.31"/>
    <g>
      <polygon class="st0" points="279.9 569.69 279.9 552.21 279.9 534.73 297.5 534.73 315.1 534.73 327.55 522.36 340 510 352.45 522.36 364.9 534.73 382.5 534.73 400.1 534.73 400.1 552.21 400.1 569.69 370.05 600.6 340 631.5 309.95 600.6 279.9 569.69"/>
      <polygon class="st0" points="279.9 619.14 309.95 588.24 340 557.33 370.05 588.24 400.1 619.14 400.1 636.62 400.1 654.11 382.5 654.11 364.9 654.11 352.45 666.47 340 678.83 327.55 666.47 315.1 654.11 297.5 654.11 279.9 654.11 279.9 636.62 279.9 619.14"/>
    </g>
  </g>
  <g>
    <polyline class="st0" points="400.1 787.98 400.1 822.94 364.9 822.94 340 847.67"/>
    <polyline class="st0" points="340 678.83 364.9 703.56 400.1 703.56 400.1 738.52"/>
    <g>
      <polygon class="st0" points="279.9 619.14 279.9 636.62 279.9 654.11 297.5 654.11 315.1 654.11 327.55 666.47 340 678.83 352.45 666.47 364.9 654.11 382.5 654.11 400.1 654.11 400.1 636.62 400.1 619.14 370.05 588.24 340 557.33 309.95 588.24 279.9 619.14"/>
      <polygon class="st0" points="279.9 569.69 309.95 600.6 340 631.5 370.05 600.6 400.1 569.69 400.1 552.21 400.1 534.73 382.5 534.73 364.9 534.73 352.45 522.36 340 510 327.55 522.36 315.1 534.73 297.5 534.73 279.9 534.73 279.9 552.21 279.9 569.69"/>
    </g>
    <polyline class="st0" points="400.1 738.52 400.1 703.56 364.9 703.56 340 678.83"/>
    <polyline class="st0" points="340 847.67 364.9 822.94 400.1 822.94 400.1 787.98"/>
    <g>
      <polygon class="st0" points="279.9 907.36 279.9 889.87 279.9 872.39 297.5 872.39 315.1 872.39 327.55 860.03 340 847.67 352.45 860.03 364.9 872.39 382.5 872.39 400.1 872.39 400.1 889.87 400.1 907.36 370.05 938.26 340 969.17 309.95 938.26 279.9 907.36"/>
      <polygon class="st0" points="279.9 956.81 309.95 925.9 340 895 370.05 925.9 400.1 956.81 400.1 974.29 400.1 991.77 382.5 991.77 364.9 991.77 352.45 1004.14 340 1016.5 327.55 1004.14 315.1 991.77 297.5 991.77 279.9 991.77 279.9 974.29 279.9 956.81"/>
    </g>
  </g>
  <g>
    <polyline class="st0" points="400.1 112.64 400.1 147.61 364.9 147.61 340 172.33"/>
    <polyline class="st0" points="364.9 28.23 400.1 28.23 400.1 63.19"/>
    <polyline class="st0" points="400.1 63.19 400.1 28.23 364.9 28.23"/>
    <polyline class="st0" points="340 172.33 364.9 147.61 400.1 147.61 400.1 112.64"/>
    <g>
      <polygon class="st0" points="279.9 232.02 279.9 214.54 279.9 197.06 297.5 197.06 315.1 197.06 327.55 184.7 340 172.33 352.45 184.7 364.9 197.06 382.5 197.06 400.1 197.06 400.1 214.54 400.1 232.02 370.05 262.93 340 293.84 309.95 262.93 279.9 232.02"/>
      <polygon class="st0" points="279.9 281.48 309.95 250.57 340 219.66 370.05 250.57 400.1 281.48 400.1 298.96 400.1 316.44 382.5 316.44 364.9 316.44 352.45 328.8 340 341.17 327.55 328.8 315.1 316.44 297.5 316.44 279.9 316.44 279.9 298.96 279.9 281.48"/>
    </g>
  </g>
  <path class="st0" d="M279.9,197.06"/>
  <line class="st0" x1="230.1" y1="220.72" x2="230.1" y2="365.89"/>
  <path class="st0" d="M279.9,534.73"/>
  <line class="st0" x1="230.1" y1="558.39" x2="230.1" y2="703.56"/>
  <path class="st0" d="M279.9,872.39"/>
  <line class="st0" x1="230.1" y1="896.06" x2="230.1" y2="1020"/>
  <line class="st0" x1="230.1" y1="0" x2="230.1" y2="27.65"/>
  <g>
    <g>
      <g>
        <polygon class="st0" points="485.1 365.89 467.5 365.89 449.9 365.89 449.9 383.37 449.9 400.86 437.45 413.22 425 425.58 437.45 437.95 449.9 450.31 449.9 467.79 449.9 485.27 467.5 485.27 485.1 485.27 516.22 455.43 547.34 425.58 516.22 395.74 485.1 365.89"/>
        <polygon class="st0" points="534.9 365.89 503.78 395.74 472.66 425.58 503.78 455.43 534.9 485.27 552.5 485.27 570.1 485.27 570.1 467.79 570.1 450.31 582.55 437.95 595 425.58 582.55 413.22 570.1 400.86 570.1 383.37 570.1 365.89 552.5 365.89 534.9 365.89"/>
      </g>
      <polyline class="st0" points="400.1 485.27 400.1 450.31 425 425.58 400.1 400.86"/>
      <path class="st0" d="M400.1,316.44"/>
      <polyline class="st0" points="400.1 450.31 425 425.58 400.1 400.86 400.1 365.89"/>
      <g>
        <polyline class="st0" points="400.1 534.73 400.1 552.21 400.1 569.69"/>
        <polyline class="st0" points="400.1 619.14 400.1 636.62 400.1 654.11 382.5 654.11"/>
      </g>
    </g>
    <g>
      <g>
        <polygon class="st0" points="534.9 365.89 552.5 365.89 570.1 365.89 570.1 383.38 570.1 400.86 582.55 413.22 595 425.58 582.55 437.95 570.1 450.31 570.1 467.79 570.1 485.27 552.5 485.27 534.9 485.27 503.78 455.43 472.66 425.58 503.78 395.74 534.9 365.89"/>
        <polygon class="st0" points="485.1 365.89 516.22 395.74 547.34 425.58 516.22 455.43 485.1 485.27 467.5 485.27 449.9 485.27 449.9 467.79 449.9 450.31 437.45 437.95 425 425.58 437.45 413.22 449.9 400.86 449.9 383.37 449.9 365.89 467.5 365.89 485.1 365.89"/>
      </g>
      <polyline class="st0" points="680 341.17 655.1 365.89 619.9 365.89 619.9 400.86 595 425.58 619.9 450.31 619.9 485.27 655.1 485.27 680 510"/>
      <g>
        <polygon class="st0" points="740.1 281.48 740.1 298.96 740.1 316.44 722.5 316.44 704.9 316.44 692.45 328.8 680 341.17 667.55 328.8 655.1 316.44 637.5 316.44 619.9 316.44 619.9 298.96 619.9 281.48 649.95 250.57 680 219.66 710.05 250.57 740.1 281.48"/>
        <polygon class="st0" points="740.1 232.02 710.05 262.93 680 293.84 649.95 262.93 619.9 232.02 619.9 214.54 619.9 197.06 637.5 197.06 655.1 197.06 667.55 184.7 680 172.33 692.45 184.7 704.9 197.06 722.5 197.06 740.1 197.06 740.1 214.54 740.1 232.02"/>
      </g>
      <polyline class="st0" points="680 510 655.1 485.27 619.9 485.27 619.9 450.31 595 425.58 619.9 400.86 619.9 365.89 655.1 365.89 680 341.17"/>
      <g>
        <polygon class="st0" points="740.1 569.69 740.1 552.21 740.1 534.73 722.5 534.73 704.9 534.73 692.45 522.36 680 510 667.55 522.36 655.1 534.73 637.5 534.73 619.9 534.73 619.9 552.21 619.9 569.69 649.95 600.6 680 631.5 710.05 600.6 740.1 569.69"/>
        <polygon class="st0" points="740.1 619.14 710.05 588.24 680 557.33 649.95 588.24 619.9 619.14 619.9 636.62 619.9 654.11 637.5 654.11 655.1 654.11 667.55 666.47 680 678.83 692.45 666.47 704.9 654.11 722.5 654.11 740.1 654.11 740.1 636.62 740.1 619.14"/>
      </g>
    </g>
    <g>
      <polyline class="st0" points="740.1 450.31 740.1 485.27 704.9 485.27 680 510"/>
      <polyline class="st0" points="680 341.17 704.9 365.89 740.1 365.89 740.1 400.86"/>
      <g>
        <polygon class="st0" points="619.9 281.48 619.9 298.96 619.9 316.44 637.5 316.44 655.1 316.44 667.55 328.8 680 341.17 692.45 328.8 704.9 316.44 722.5 316.44 740.1 316.44 740.1 298.96 740.1 281.48 710.05 250.57 680 219.66 649.95 250.57 619.9 281.48"/>
        <polygon class="st0" points="619.9 232.02 649.95 262.93 680 293.84 710.05 262.93 740.1 232.02 740.1 214.54 740.1 197.06 722.5 197.06 704.9 197.06 692.45 184.7 680 172.33 667.55 184.7 655.1 197.06 637.5 197.06 619.9 197.06 619.9 214.54 619.9 232.02"/>
      </g>
      <polyline class="st0" points="740.1 400.86 740.1 365.89 704.9 365.89 680 341.17"/>
      <polyline class="st0" points="680 510 704.9 485.27 740.1 485.27 740.1 450.31"/>
      <g>
        <polygon class="st0" points="619.9 569.69 619.9 552.21 619.9 534.73 637.5 534.73 655.1 534.73 667.55 522.36 680 510 692.45 522.36 704.9 534.73 722.5 534.73 740.1 534.73 740.1 552.21 740.1 569.69 710.05 600.6 680 631.5 649.95 600.6 619.9 569.69"/>
        <polygon class="st0" points="619.9 619.14 649.95 588.24 680 557.33 710.05 588.24 740.1 619.14 740.1 636.62 740.1 654.11 722.5 654.11 704.9 654.11 692.45 666.47 680 678.83 667.55 666.47 655.1 654.11 637.5 654.11 619.9 654.11 619.9 636.63 619.9 619.14"/>
      </g>
    </g>
  </g>
  <g>
    <g>
      <g>
        <polygon class="st0" points="485.1 703.56 467.5 703.56 449.9 703.56 449.9 721.04 449.9 738.52 437.45 750.89 425 763.25 437.45 775.61 449.9 787.98 449.9 805.46 449.9 822.94 467.5 822.94 485.1 822.94 516.22 793.1 547.34 763.25 516.22 733.4 485.1 703.56"/>
        <polygon class="st0" points="534.9 703.56 503.78 733.4 472.66 763.25 503.78 793.1 534.9 822.94 552.5 822.94 570.1 822.94 570.1 805.46 570.1 787.98 582.55 775.61 595 763.25 582.55 750.89 570.1 738.52 570.1 721.04 570.1 703.56 552.5 703.56 534.9 703.56"/>
      </g>
      <path class="st0" d="M340,847.67"/>
      <polyline class="st0" points="400.1 822.94 400.1 787.98 425 763.25 400.1 787.98 425 763.25 400.1 738.52 400.1 703.56"/>
      <g>
        <polyline class="st0" points="382.5 654.11 400.1 654.11 400.1 636.62 400.1 619.14"/>
        <polyline class="st0" points="400.1 569.69 400.1 552.21 400.1 534.73"/>
      </g>
      <polyline class="st0" points="400.1 787.98 425 763.25 400.1 738.52"/>
      <path class="st0" d="M352.45,860.03"/>
    </g>
    <g>
      <g>
        <polygon class="st0" points="534.9 703.56 552.5 703.56 570.1 703.56 570.1 721.04 570.1 738.52 582.55 750.89 595 763.25 582.55 775.61 570.1 787.98 570.1 805.46 570.1 822.94 552.5 822.94 534.9 822.94 503.78 793.1 472.66 763.25 503.78 733.4 534.9 703.56"/>
        <polygon class="st0" points="485.1 703.56 516.22 733.4 547.34 763.25 516.22 793.1 485.1 822.94 467.5 822.94 449.9 822.94 449.9 805.46 449.9 787.98 437.45 775.61 425 763.25 437.45 750.89 449.9 738.52 449.9 721.04 449.9 703.56 467.5 703.56 485.1 703.56"/>
      </g>
      <polyline class="st0" points="680 678.83 655.1 703.56 619.9 703.56 619.9 738.52 595 763.25 619.9 787.98 619.9 822.94 655.1 822.94 680 847.67"/>
      <g>
        <polygon class="st0" points="740.1 619.14 740.1 636.63 740.1 654.11 722.5 654.11 704.9 654.11 692.45 666.47 680 678.83 667.55 666.47 655.1 654.11 637.5 654.11 619.9 654.11 619.9 636.63 619.9 619.14 649.95 588.24 680 557.33 710.05 588.24 740.1 619.14"/>
        <polygon class="st0" points="740.1 569.69 710.05 600.6 680 631.5 649.95 600.6 619.9 569.69 619.9 552.21 619.9 534.73 637.5 534.73 655.1 534.73 667.55 522.36 680 510 692.45 522.36 704.9 534.73 722.5 534.73 740.1 534.73 740.1 552.21 740.1 569.69"/>
      </g>
      <polyline class="st0" points="680 847.67 655.1 822.94 619.9 822.94 619.9 787.98 595 763.25 619.9 738.52 619.9 703.56 655.1 703.56 680 678.83"/>
      <g>
        <polygon class="st0" points="740.1 907.36 740.1 889.87 740.1 872.39 722.5 872.39 704.9 872.39 692.45 860.03 680 847.67 667.55 860.03 655.1 872.39 637.5 872.39 619.9 872.39 619.9 889.87 619.9 907.36 649.95 938.26 680 969.17 710.05 938.26 740.1 907.36"/>
        <polygon class="st0" points="740.1 956.81 710.05 925.9 680 895 649.95 925.9 619.9 956.81 619.9 974.29 619.9 991.77 637.5 991.77 655.1 991.77 667.55 1004.14 680 1016.5 692.45 1004.14 704.9 991.77 722.5 991.77 740.1 991.77 740.1 974.29 740.1 956.81"/>
      </g>
    </g>
    <g>
      <polyline class="st0" points="740.1 787.98 740.1 822.94 704.9 822.94 680 847.67"/>
      <polyline class="st0" points="680 678.83 704.9 703.56 740.1 703.56 740.1 738.52"/>
      <g>
        <polygon class="st0" points="619.9 619.14 619.9 636.63 619.9 654.11 637.5 654.11 655.1 654.11 667.55 666.47 680 678.83 692.45 666.47 704.9 654.11 722.5 654.11 740.1 654.11 740.1 636.63 740.1 619.14 710.05 588.24 680 557.33 649.95 588.24 619.9 619.14"/>
        <polygon class="st0" points="619.9 569.69 649.95 600.6 680 631.5 710.05 600.6 740.1 569.69 740.1 552.21 740.1 534.73 722.5 534.73 704.9 534.73 692.45 522.36 680 510 667.55 522.36 655.1 534.73 637.5 534.73 619.9 534.73 619.9 552.21 619.9 569.69"/>
      </g>
      <polyline class="st0" points="740.1 738.52 740.1 703.56 704.9 703.56 680 678.83"/>
      <polyline class="st0" points="680 847.67 704.9 822.94 740.1 822.94 740.1 787.98"/>
      <g>
        <polygon class="st0" points="619.9 907.36 619.9 889.87 619.9 872.39 637.5 872.39 655.1 872.39 667.55 860.03 680 847.67 692.45 860.03 704.9 872.39 722.5 872.39 740.1 872.39 740.1 889.87 740.1 907.36 710.05 938.26 680 969.17 649.95 938.26 619.9 907.36"/>
        <polygon class="st0" points="619.9 956.81 649.95 925.9 680 895 710.05 925.9 740.1 956.81 740.1 974.29 740.1 991.77 722.5 991.77 704.9 991.77 692.45 1004.14 680 1016.5 667.55 1004.14 655.1 991.77 637.5 991.77 619.9 991.77 619.9 974.29 619.9 956.81"/>
      </g>
    </g>
  </g>
  <g>
    <g>
      <g>
        <polygon class="st0" points="485.1 28.23 467.5 28.23 449.9 28.23 449.9 45.71 449.9 63.19 437.45 75.55 425 87.92 437.45 100.28 449.9 112.64 449.9 130.12 449.9 147.61 467.5 147.61 485.1 147.61 516.22 117.76 547.34 87.92 516.22 58.07 485.1 28.23"/>
        <polygon class="st0" points="534.9 28.23 503.78 58.07 472.66 87.92 503.78 117.76 534.9 147.61 552.5 147.61 570.1 147.61 570.1 130.12 570.1 112.64 582.55 100.28 595 87.92 582.55 75.55 570.1 63.19 570.1 45.71 570.1 28.23 552.5 28.23 534.9 28.23"/>
      </g>
      <polyline class="st0" points="400.1 28.23 400.1 63.19 425 87.92 400.1 112.64 400.1 147.61"/>
      <polyline class="st0" points="400.1 112.64 425 87.92 400.1 63.19 400.1 28.23"/>
      <path class="st0" d="M400.1,316.44"/>
    </g>
    <g>
      <g>
        <polygon class="st0" points="534.9 28.23 552.5 28.23 570.1 28.23 570.1 45.71 570.1 63.19 582.55 75.55 595 87.92 582.55 100.28 570.1 112.64 570.1 130.13 570.1 147.61 552.5 147.61 534.9 147.61 503.78 117.76 472.66 87.92 503.78 58.07 534.9 28.23"/>
        <polygon class="st0" points="485.1 28.23 516.22 58.07 547.34 87.92 516.22 117.76 485.1 147.61 467.5 147.61 449.9 147.61 449.9 130.13 449.9 112.64 437.45 100.28 425 87.92 437.45 75.55 449.9 63.19 449.9 45.71 449.9 28.23 467.5 28.23 485.1 28.23"/>
      </g>
      <polyline class="st0" points="680 3.5 655.1 28.23 619.9 28.23 619.9 63.19 595 87.92 619.9 112.64 619.9 147.61 655.1 147.61 680 172.33"/>
      <polyline class="st0" points="680 172.33 655.1 147.61 619.9 147.61 619.9 112.64 595 87.92 619.9 63.19 619.9 28.23 655.1 28.23 680 3.5"/>
      <g>
        <polygon class="st0" points="740.1 232.02 740.1 214.54 740.1 197.06 722.5 197.06 704.9 197.06 692.45 184.7 680 172.33 667.55 184.7 655.1 197.06 637.5 197.06 619.9 197.06 619.9 214.54 619.9 232.02 649.95 262.93 680 293.84 710.05 262.93 740.1 232.02"/>
        <polygon class="st0" points="740.1 281.48 710.05 250.57 680 219.66 649.95 250.57 619.9 281.48 619.9 298.96 619.9 316.44 637.5 316.44 655.1 316.44 667.55 328.8 680 341.17 692.45 328.8 704.9 316.44 722.5 316.44 740.1 316.44 740.1 298.96 740.1 281.48"/>
      </g>
    </g>
    <g>
      <polyline class="st0" points="740.1 112.64 740.1 147.61 704.9 147.61 680 172.33"/>
      <polyline class="st0" points="680 3.5 704.9 28.23 740.1 28.23 740.1 63.19"/>
      <polyline class="st0" points="740.1 63.19 740.1 28.23 704.9 28.23 680 3.5"/>
      <polyline class="st0" points="680 172.33 704.9 147.61 740.1 147.61 740.1 112.64"/>
      <g>
        <polygon class="st0" points="619.9 232.02 619.9 214.54 619.9 197.06 637.5 197.06 655.1 197.06 667.55 184.7 680 172.33 692.45 184.7 704.9 197.06 722.5 197.06 740.1 197.06 740.1 214.54 740.1 232.02 710.05 262.93 680 293.84 649.95 262.93 619.9 232.02"/>
        <polygon class="st0" points="619.9 281.48 649.95 250.57 680 219.66 710.05 250.57 740.1 281.48 740.1 298.96 740.1 316.44 722.5 316.44 704.9 316.44 692.45 328.8 680 341.17 667.55 328.8 655.1 316.44 637.5 316.44 619.9 316.44 619.9 298.96 619.9 281.48"/>
      </g>
    </g>
  </g>
  <g>
    <polyline class="st0" points="740.1 450.31 740.1 485.27 704.9 485.27 680 510"/>
    <polyline class="st0" points="680 341.17 704.9 365.89 740.1 365.89 740.1 400.86"/>
    <g>
      <polygon class="st0" points="619.9 281.48 619.9 298.96 619.9 316.44 637.5 316.44 655.1 316.44 667.55 328.8 680 341.17 692.45 328.8 704.9 316.44 722.5 316.44 740.1 316.44 740.1 298.96 740.1 281.48 710.05 250.57 680 219.66 649.95 250.57 619.9 281.48"/>
      <polygon class="st0" points="619.9 232.02 649.95 262.93 680 293.84 710.05 262.93 740.1 232.02 740.1 214.54 740.1 197.06 722.5 197.06 704.9 197.06 692.45 184.7 680 172.33 667.55 184.7 655.1 197.06 637.5 197.06 619.9 197.06 619.9 214.54 619.9 232.02"/>
    </g>
    <polyline class="st0" points="740.1 400.86 740.1 365.89 704.9 365.89 680 341.17"/>
    <polyline class="st0" points="680 510 704.9 485.27 740.1 485.27 740.1 450.31"/>
    <g>
      <polygon class="st0" points="619.9 569.69 619.9 552.21 619.9 534.72 637.5 534.72 655.1 534.72 667.55 522.36 680 510 692.45 522.36 704.9 534.72 722.5 534.72 740.1 534.72 740.1 552.21 740.1 569.69 710.05 600.6 680 631.5 649.95 600.6 619.9 569.69"/>
      <polygon class="st0" points="619.9 619.14 649.95 588.24 680 557.33 710.05 588.24 740.1 619.14 740.1 636.62 740.1 654.11 722.5 654.11 704.9 654.11 692.45 666.47 680 678.83 667.55 666.47 655.1 654.11 637.5 654.11 619.9 654.11 619.9 636.62 619.9 619.14"/>
    </g>
  </g>
  <g>
    <polyline class="st0" points="740.1 787.98 740.1 822.94 704.9 822.94 680 847.67"/>
    <polyline class="st0" points="680 678.83 704.9 703.56 740.1 703.56 740.1 738.52"/>
    <g>
      <polygon class="st0" points="619.9 619.14 619.9 636.62 619.9 654.11 637.5 654.11 655.1 654.11 667.55 666.47 680 678.83 692.45 666.47 704.9 654.11 722.5 654.11 740.1 654.11 740.1 636.62 740.1 619.14 710.05 588.24 680 557.33 649.95 588.24 619.9 619.14"/>
      <polygon class="st0" points="619.9 569.69 649.95 600.6 680 631.5 710.05 600.6 740.1 569.69 740.1 552.21 740.1 534.73 722.5 534.73 704.9 534.73 692.45 522.36 680 510 667.55 522.36 655.1 534.73 637.5 534.73 619.9 534.73 619.9 552.21 619.9 569.69"/>
    </g>
    <polyline class="st0" points="740.1 738.52 740.1 703.56 704.9 703.56 680 678.83"/>
    <polyline class="st0" points="680 847.67 704.9 822.94 740.1 822.94 740.1 787.98"/>
    <g>
      <polygon class="st0" points="619.9 907.36 619.9 889.87 619.9 872.39 637.5 872.39 655.1 872.39 667.55 860.03 680 847.67 692.45 860.03 704.9 872.39 722.5 872.39 740.1 872.39 740.1 889.87 740.1 907.36 710.05 938.26 680 969.17 649.95 938.26 619.9 907.36"/>
      <polygon class="st0" points="619.9 956.81 649.95 925.9 680 895 710.05 925.9 740.1 956.81 740.1 974.29 740.1 991.77 722.5 991.77 704.9 991.77 692.45 1004.14 680 1016.5 667.55 1004.14 655.1 991.77 637.5 991.77 619.9 991.77 619.9 974.29 619.9 956.81"/>
    </g>
  </g>
  <g>
    <polyline class="st0" points="740.1 112.64 740.1 147.61 704.9 147.61 680 172.33"/>
    <polyline class="st0" points="680 3.5 704.9 28.23 740.1 28.23 740.1 63.19"/>
    <polyline class="st0" points="740.1 63.19 740.1 28.22 704.9 28.22 680 3.5 655.1 28.23"/>
    <polyline class="st0" points="680 172.33 704.9 147.61 740.1 147.61 740.1 112.64"/>
    <g>
      <polygon class="st0" points="619.9 232.02 619.9 214.54 619.9 197.06 637.5 197.06 655.1 197.06 667.55 184.7 680 172.33 692.45 184.7 704.9 197.06 722.5 197.06 740.1 197.06 740.1 214.54 740.1 232.02 710.05 262.93 680 293.84 649.95 262.93 619.9 232.02"/>
      <polygon class="st0" points="619.9 281.48 649.95 250.57 680 219.66 710.05 250.57 740.1 281.47 740.1 298.96 740.1 316.44 722.5 316.44 704.9 316.44 692.45 328.8 680 341.17 667.55 328.8 655.1 316.44 637.5 316.44 619.9 316.44 619.9 298.96 619.9 281.48"/>
    </g>
  </g>
  <polyline class="st0" points="400.1 316.44 547.34 316.44 547.34 293.84 510.14 293.84 510.14 219.66 472.66 219.66 472.66 197.06 619.9 197.06"/>
  <polyline class="st0" points="449.9 147.61 449.9 293.84 472.66 293.84 472.66 256.75 546.28 256.75 546.28 220.72 570.1 220.72 570.1 365.89"/>
  <polyline class="st0" points="400.1 654.11 547.34 654.11 547.34 631.5 510.14 631.5 510.14 557.33 472.66 557.33 472.66 534.73 619.9 534.73"/>
  <polyline class="st0" points="449.9 485.27 449.9 631.5 472.66 631.5 472.66 594.42 546.28 594.42 546.28 558.39 570.1 558.39 570.1 703.56"/>
  <polyline class="st0" points="400.1 991.77 547.34 991.77 547.34 969.17 510.14 969.17 510.14 895 472.66 895 472.66 872.39 619.9 872.39"/>
  <polyline class="st0" points="449.9 822.94 449.9 969.17 472.66 969.17 472.66 932.08 546.28 932.08 546.28 896.06 570.1 896.06 570.1 1020"/>
  <line class="st0" x1="570.1" y1="0" x2="570.1" y2="27.65"/>
  <g>
    <g>
      <g>
        <polygon class="st0" points="825.1 365.89 807.5 365.89 789.9 365.89 789.9 383.38 789.9 400.86 777.45 413.22 765 425.58 777.45 437.95 789.9 450.31 789.9 467.79 789.9 485.27 807.5 485.27 825.1 485.27 856.22 455.43 887.34 425.58 856.22 395.74 825.1 365.89"/>
        <polygon class="st0" points="874.9 365.89 843.78 395.74 812.66 425.58 843.78 455.43 874.9 485.27 892.5 485.27 910.1 485.27 910.1 467.79 910.1 450.31 922.55 437.95 935 425.58 922.55 413.22 910.1 400.86 910.1 383.38 910.1 365.89 892.5 365.89 874.9 365.89"/>
      </g>
      <polyline class="st0" points="740.1 485.27 740.1 450.31 765 425.58 740.1 400.86"/>
      <path class="st0" d="M740.1,316.44"/>
      <polyline class="st0" points="740.1 450.31 765 425.58 740.1 400.86 740.1 365.89"/>
      <g>
        <polyline class="st0" points="740.1 534.73 740.1 552.21 740.1 569.69"/>
        <polyline class="st0" points="740.1 619.14 740.1 636.63 740.1 654.11 722.5 654.11"/>
      </g>
    </g>
    <g>
      <g>
        <polygon class="st0" points="874.9 365.89 892.5 365.89 910.1 365.89 910.1 383.38 910.1 400.86 922.55 413.22 935 425.58 922.55 437.95 910.1 450.31 910.1 467.79 910.1 485.28 892.5 485.28 874.9 485.28 843.78 455.43 812.66 425.58 843.78 395.74 874.9 365.89"/>
        <polygon class="st0" points="825.1 365.89 856.22 395.74 887.34 425.58 856.22 455.43 825.1 485.28 807.5 485.28 789.9 485.28 789.9 467.79 789.9 450.31 777.45 437.95 765 425.58 777.45 413.22 789.9 400.86 789.9 383.38 789.9 365.89 807.5 365.89 825.1 365.89"/>
      </g>
      <polyline class="st0" points="1020 341.17 995.1 365.89 959.9 365.89 959.9 400.86 935 425.58 959.9 450.31 959.9 485.28 995.1 485.28 1020 510"/>
      <g>
        <polyline class="st0" points="1020 341.17 1007.55 328.8 995.1 316.44 977.5 316.44 959.9 316.44 959.9 298.96 959.9 281.48 989.95 250.57 1020 219.66"/>
        <path class="st0" d="M1020,172.33"/>
        <polyline class="st0" points="1020 293.84 989.95 262.93 959.9 232.03 959.9 214.54 959.9 197.06 977.5 197.06 995.1 197.06 1020 172.33 995.1 147.61"/>
      </g>
      <polyline class="st0" points="1020 510 995.1 485.27 959.9 485.27 959.9 450.31 935 425.58 959.9 400.86 959.9 365.89 995.1 365.89 1020 341.17"/>
      <g>
        <polyline class="st0" points="995.1 534.73 977.5 534.73 959.9 534.73 959.9 552.21 959.9 569.69 989.95 600.6 1020 631.5"/>
        <path class="st0" d="M1020,510"/>
        <path class="st0" d="M1020,678.83"/>
        <polyline class="st0" points="1020 557.33 989.95 588.24 959.9 619.14 959.9 636.63 959.9 654.11 977.5 654.11 995.1 654.11 1020 678.83 995.1 703.56"/>
      </g>
    </g>
    <g>
      <path class="st0" d="M1020,510"/>
      <path class="st0" d="M1020,341.17"/>
      <g>
        <polyline class="st0" points="1020 219.66 989.95 250.57 959.9 281.48 959.9 298.96 959.9 316.44 977.5 316.44 995.1 316.44 1007.55 328.8 1020 341.17"/>
        <polyline class="st0" points="995.1 197.06 977.5 197.06 959.9 197.06 959.9 214.54 959.9 232.02 989.95 262.93 1020 293.84"/>
        <path class="st0" d="M1020,172.33"/>
      </g>
      <path class="st0" d="M1020,341.17"/>
      <path class="st0" d="M1020,510"/>
      <g>
        <path class="st0" d="M1020,510"/>
        <polyline class="st0" points="1020 631.5 989.95 600.6 959.9 569.69 959.9 552.21 959.9 534.73 977.5 534.73 995.1 534.73"/>
        <polyline class="st0" points="995.1 654.11 977.5 654.11 959.9 654.11 959.9 636.63 959.9 619.14 989.95 588.24 1020 557.33"/>
        <path class="st0" d="M1020,678.83"/>
      </g>
    </g>
  </g>
  <g>
    <g>
      <g>
        <polygon class="st0" points="825.1 703.56 807.5 703.56 789.9 703.56 789.9 721.04 789.9 738.52 777.45 750.89 765 763.25 777.45 775.61 789.9 787.98 789.9 805.46 789.9 822.94 807.5 822.94 825.1 822.94 856.22 793.1 887.34 763.25 856.22 733.4 825.1 703.56"/>
        <polygon class="st0" points="874.9 703.56 843.78 733.4 812.66 763.25 843.78 793.1 874.9 822.94 892.5 822.94 910.1 822.94 910.1 805.46 910.1 787.98 922.55 775.61 935 763.25 922.55 750.89 910.1 738.52 910.1 721.04 910.1 703.56 892.5 703.56 874.9 703.56"/>
      </g>
      <path class="st0" d="M680,847.67"/>
      <polyline class="st0" points="740.1 822.94 740.1 787.98 765 763.25 740.1 787.98 765 763.25 740.1 738.52 740.1 703.56"/>
      <g>
        <polyline class="st0" points="722.5 654.11 740.1 654.11 740.1 636.63 740.1 619.14"/>
        <polyline class="st0" points="740.1 569.69 740.1 552.21 740.1 534.73"/>
      </g>
      <polyline class="st0" points="740.1 787.98 765 763.25 740.1 738.52"/>
      <path class="st0" d="M692.45,860.03"/>
    </g>
    <g>
      <g>
        <polygon class="st0" points="874.9 703.56 892.5 703.56 910.1 703.56 910.1 721.04 910.1 738.53 922.55 750.89 935 763.25 922.55 775.61 910.1 787.98 910.1 805.46 910.1 822.94 892.5 822.94 874.9 822.94 843.78 793.1 812.66 763.25 843.78 733.4 874.9 703.56"/>
        <polygon class="st0" points="825.1 703.56 856.22 733.4 887.34 763.25 856.22 793.1 825.1 822.94 807.5 822.94 789.9 822.94 789.9 805.46 789.9 787.98 777.45 775.61 765 763.25 777.45 750.89 789.9 738.52 789.9 721.04 789.9 703.56 807.5 703.56 825.1 703.56"/>
      </g>
      <polyline class="st0" points="1020 678.83 995.1 703.56 959.9 703.56 959.9 738.52 935 763.25 959.9 787.98 959.9 822.94 995.1 822.94 1020 847.67"/>
      <g>
        <polyline class="st0" points="995.1 654.11 977.5 654.11 959.9 654.11 959.9 636.63 959.9 619.14 989.95 588.24 1020 557.33"/>
        <path class="st0" d="M1020,678.83"/>
        <path class="st0" d="M1020,510"/>
        <polyline class="st0" points="1020 631.5 989.95 600.6 959.9 569.69 959.9 552.21 959.9 534.73 977.5 534.73 995.1 534.73"/>
      </g>
      <polyline class="st0" points="1020 847.67 995.1 822.94 959.9 822.94 959.9 787.98 935 763.25 959.9 738.52 959.9 703.56 995.1 703.56 1020 678.83"/>
      <g>
        <polyline class="st0" points="995.1 872.39 977.5 872.39 959.9 872.39 959.9 889.88 959.9 907.36 989.95 938.26 1020 969.17"/>
        <path class="st0" d="M1020,847.67"/>
        <polyline class="st0" points="1020 895 989.95 925.9 959.9 956.81 959.9 974.29 959.9 991.77 977.5 991.77 995.1 991.77 1007.55 1004.14 1020 1016.5"/>
      </g>
    </g>
    <g>
      <path class="st0" d="M1020,847.67"/>
      <path class="st0" d="M1020,678.83"/>
      <g>
        <path class="st0" d="M1020,678.83"/>
        <polyline class="st0" points="1020 557.33 989.95 588.24 959.9 619.14 959.9 636.63 959.9 654.11 977.5 654.11 995.1 654.11"/>
        <polyline class="st0" points="995.1 534.73 977.5 534.73 959.9 534.73 959.9 552.21 959.9 569.69 989.95 600.6 1020 631.5"/>
      </g>
      <path class="st0" d="M1020,678.83"/>
      <path class="st0" d="M1020,847.67"/>
      <g>
        <path class="st0" d="M1020,847.67"/>
        <polyline class="st0" points="1020 969.17 989.95 938.26 959.9 907.36 959.9 889.88 959.9 872.39 977.5 872.39 995.1 872.39 1020 847.67 995.1 822.94"/>
        <polyline class="st0" points="1020 1016.5 1007.55 1004.14 995.1 991.77 977.5 991.77 959.9 991.77 959.9 974.29 959.9 956.81 989.95 925.9 1020 895"/>
      </g>
    </g>
  </g>
  <g>
    <g>
      <g>
        <polygon class="st0" points="825.1 28.23 807.5 28.23 789.9 28.23 789.9 45.71 789.9 63.19 777.45 75.55 765 87.92 777.45 100.28 789.9 112.64 789.9 130.13 789.9 147.61 807.5 147.61 825.1 147.61 856.22 117.76 887.34 87.92 856.22 58.07 825.1 28.23"/>
        <polygon class="st0" points="874.9 28.23 843.78 58.07 812.66 87.92 843.78 117.76 874.9 147.61 892.5 147.61 910.1 147.61 910.1 130.13 910.1 112.64 922.55 100.28 935 87.92 922.55 75.55 910.1 63.19 910.1 45.71 910.1 28.23 892.5 28.23 874.9 28.23"/>
      </g>
      <polyline class="st0" points="740.1 28.23 740.1 63.19 765 87.92 740.1 112.64 740.1 147.61"/>
      <polyline class="st0" points="740.1 112.64 765 87.92 740.1 63.19 740.1 28.23"/>
      <path class="st0" d="M740.1,316.44"/>
    </g>
    <g>
      <g>
        <polygon class="st0" points="874.9 28.23 892.5 28.23 910.1 28.23 910.1 45.71 910.1 63.19 922.55 75.55 935 87.92 922.55 100.28 910.1 112.64 910.1 130.13 910.1 147.61 892.5 147.61 874.9 147.61 843.78 117.76 812.66 87.92 843.78 58.07 874.9 28.23"/>
        <polygon class="st0" points="825.1 28.23 856.22 58.07 887.34 87.92 856.22 117.76 825.1 147.61 807.5 147.61 789.9 147.61 789.9 130.13 789.9 112.64 777.45 100.28 765 87.92 777.45 75.55 789.9 63.19 789.9 45.71 789.9 28.23 807.5 28.23 825.1 28.23"/>
      </g>
      <polyline class="st0" points="1020 3.5 995.1 28.23 959.9 28.23 959.9 63.19 935 87.92 959.9 112.64 959.9 147.61 995.1 147.61 1020 172.33"/>
      <polyline class="st0" points="1020 172.33 995.1 147.61 959.9 147.61 959.9 112.64 935 87.92 959.9 63.19 959.9 28.23 995.1 28.23 1022.85 .67"/>
      <g>
        <polyline class="st0" points="995.1 197.06 977.5 197.06 959.9 197.06 959.9 214.54 959.9 232.02 989.95 262.93 1020 293.84"/>
        <path class="st0" d="M1020,172.33"/>
        <polyline class="st0" points="1020 219.66 989.95 250.57 959.9 281.48 959.9 298.96 959.9 316.44 977.5 316.44 995.1 316.44 1007.55 328.8 1020 341.17"/>
      </g>
    </g>
    <g>
      <path class="st0" d="M1020,172.33"/>
      <path class="st0" d="M1020,3.5"/>
      <path class="st0" d="M1020,3.5"/>
      <path class="st0" d="M1020,172.33"/>
      <g>
        <path class="st0" d="M1020,172.33"/>
        <polyline class="st0" points="1020 293.84 989.95 262.93 959.9 232.02 959.9 214.54 959.9 197.06 977.5 197.06 995.1 197.06"/>
        <polyline class="st0" points="1020 341.17 1007.55 328.8 995.1 316.44 977.5 316.44 959.9 316.44 959.9 298.96 959.9 281.48 989.95 250.57 1020 219.66"/>
      </g>
    </g>
  </g>
  <g>
    <path class="st0" d="M1020,510"/>
    <path class="st0" d="M1020,341.17"/>
    <g>
      <polyline class="st0" points="1020 219.66 989.95 250.57 959.9 281.48 959.9 298.96 959.9 316.44 977.5 316.44 995.1 316.44 1007.55 328.8 1020 341.17"/>
      <polyline class="st0" points="995.1 197.06 977.5 197.06 959.9 197.06 959.9 214.54 959.9 232.02 989.95 262.93 1020 293.84"/>
      <path class="st0" d="M1020,172.33"/>
    </g>
    <path class="st0" d="M1020,341.17"/>
    <path class="st0" d="M1020,510"/>
    <g>
      <polyline class="st0" points="1020 631.5 989.95 600.6 959.9 569.69 959.9 552.21 959.9 534.73 977.5 534.73 995.1 534.73"/>
      <polyline class="st0" points="995.1 654.11 977.5 654.11 959.9 654.11 959.9 636.63 959.9 619.14 989.95 588.24 1020 557.33"/>
      <path class="st0" d="M1020,678.83"/>
    </g>
  </g>
  <g>
    <path class="st0" d="M1020,678.83"/>
    <g>
      <polyline class="st0" points="1023.09 554.15 989.95 588.24 959.9 619.14 959.9 636.63 959.9 654.11 977.5 654.11 995.1 654.11"/>
      <polyline class="st0" points="1022.36 633.94 989.95 600.6 959.9 569.69 959.9 552.21 959.9 534.73 977.5 534.73 995.1 534.73 1020 510 995.1 485.28"/>
    </g>
    <g>
      <polyline class="st0" points="1022.32 971.56 989.95 938.26 959.9 907.36 959.9 889.87 959.9 872.39 977.5 872.39 995.1 872.39"/>
      <polyline class="st0" points="1022.37 1018.85 1007.55 1004.14 995.1 991.77 977.5 991.77 959.9 991.77 959.9 974.29 959.9 956.81 989.95 925.9 1022.37 892.56"/>
    </g>
  </g>
  <g>
    <path class="st0" d="M1020,172.33"/>
    <path class="st0" d="M1020,3.5"/>
    <path class="st0" d="M1020,3.5"/>
    <g>
      <polyline class="st0" points="1023.56 297.49 989.95 262.93 959.9 232.02 959.9 214.54 959.9 197.06 977.5 197.06 995.1 197.06"/>
      <polyline class="st0" points="1022.85 216.73 989.95 250.57 959.9 281.48 959.9 298.96 959.9 316.44 977.5 316.44 995.1 316.44 1007.55 328.8 1020 341.17 995.1 365.89"/>
    </g>
  </g>
  <polyline class="st0" points="740.1 316.44 887.34 316.44 887.34 293.84 850.14 293.84 850.14 219.66 812.66 219.66 812.66 197.06 959.9 197.06"/>
  <polyline class="st0" points="789.9 147.61 789.9 293.84 812.66 293.84 812.66 256.75 886.28 256.75 886.28 220.72 910.1 220.72 910.1 365.89"/>
  <polyline class="st0" points="740.1 654.11 887.34 654.11 887.34 631.5 850.14 631.5 850.14 557.33 812.66 557.33 812.66 534.73 959.9 534.73"/>
  <polyline class="st0" points="789.9 485.28 789.9 631.5 812.66 631.5 812.66 594.42 886.28 594.42 886.28 558.39 910.1 558.39 910.1 703.56"/>
  <polyline class="st0" points="740.1 991.77 887.34 991.77 887.34 969.17 850.14 969.17 850.14 895 812.66 895 812.66 872.39 959.9 872.39"/>
  <polyline class="st0" points="789.9 822.94 789.9 969.17 812.66 969.17 812.66 932.08 886.28 932.08 886.28 896.06 910.1 896.06 910.1 1020"/>
  <line class="st0" x1="910.1" y1="0" x2="910.1" y2="27.65"/>
</svg>