<?xml version="1.0" encoding="UTF-8"?>
<svg id="Layer_1" data-name="Layer 1" xmlns="http://www.w3.org/2000/svg" viewBox="0 0 624.62 133.18">
  <defs>
    <style>
      .cls-1 {
        fill: none;
        stroke: #0e0a01;
        stroke-miterlimit: 10;
        stroke-width: 4px;
      }

      .cls-2 {
        fill: #b79d5d;
      }
    </style>
  </defs>
  <path class="cls-2" d="M575.19,21.15c20.75,0,47.12,45.44,47.12,45.44,0,0-26.37,45.44-47.12,45.44h-10.64v19.15H60.07v-19.15h-10.65c-20.75,0-47.11-45.44-47.11-45.44,0,0,26.36-45.44,47.11-45.44h10.65V2h504.47v19.15h10.65ZM13.27,66.23s22.85,34.92,36.07,35.86h20.38v19.26l484.84-.36v-18.54h20.38c13.22-.94,36.08-35.86,36.08-35.86,0,0-22.86-34.92-36.08-35.86h-20.38V12.19l-484.84-.36v18.54h-20.38c-13.22.94-36.07,35.86-36.07,35.86Z"/>
  <g>
    <path class="cls-1" d="M564.55,131.18v-19.15h10.64c20.75,0,47.12-45.44,47.12-45.44,0,0-26.37-45.44-47.12-45.44h-10.65V2H60.07v19.15h-10.65C28.67,21.15,2.31,66.59,2.31,66.59c0,0,26.36,45.44,47.11,45.44h10.65v19.15h504.48Z"/>
    <path class="cls-1" d="M554.56,120.99v-18.54h20.38c13.22-.94,36.08-35.86,36.08-35.86,0,0-22.86-34.92-36.08-35.86h-20.38V12.19l-484.84-.36v18.54h-20.38c-13.22.94-36.07,35.86-36.07,35.86,0,0,22.85,34.92,36.07,35.86h20.38v19.26l484.84-.36Z"/>
  </g>
</svg>