<?xml version="1.0" encoding="UTF-8"?>
<svg id="Layer_1" data-name="Layer 1" xmlns="http://www.w3.org/2000/svg" viewBox="0 0 1213.09 136.36">
  <defs>
    <style>
      .cls-1 {
        fill: #100b01;
      }

      .cls-2 {
        fill: #b69d5c;
      }
    </style>
  </defs>
  <path class="cls-1" d="M0,67.37c8.64-14.99,18.32-31.42,33.19-41.09,2.82-1.84,10.87-6.18,13.97-6.18h9V.54h1100.23v19.56h9c13.3,0,32.64,23.31,39.21,33.73,1.33,2.11,8.05,13.39,7.95,14.86-7.79,15.35-18.48,32.38-33.18,41.94-2.82,1.84-10.87,6.18-13.97,6.18h-9v19.56H56.16v-19.56h-9c-3.11,0-11.15-4.34-13.97-6.18-14.87-9.67-24.55-26.1-33.19-41.09v-2.17ZM1152.57,4.35H59.97v19.56h-12.27c-3,0-11.94,5.19-14.63,7.15-12.38,9.03-22.19,23.87-28.59,37.58,6.78,13.59,16.16,28.14,28.59,37.21,2.69,1.96,11.63,7.15,14.63,7.15h12.27v19.56h1092.6v-19.56h12.27c3,0,11.94-5.19,14.63-7.15,12.38-9.03,22.19-23.87,28.59-37.58-6.78-13.59-16.16-28.14-28.59-37.21-2.69-1.96-11.63-7.15-14.63-7.15h-12.27V4.35Z"/>
  <path class="cls-2" d="M1152.57,4.35v19.56h12.27c3,0,11.94,5.19,14.63,7.15,12.43,9.07,21.81,23.62,28.59,37.21-6.41,13.7-16.22,28.55-28.59,37.58-2.69,1.96-11.63,7.15-14.63,7.15h-12.27v19.56H59.97v-19.56h-12.27c-3,0-11.94-5.19-14.63-7.15-12.43-9.07-21.81-23.62-28.59-37.21,6.41-13.7,16.22-28.55,28.59-37.58,2.69-1.96,11.63-7.15,14.63-7.15h12.27V4.35h1092.6ZM1146.58,9.24H65.97v19.56h-14.99c-3,0-11.94,5.19-14.63,7.15-10.88,7.94-19.56,20.36-24.78,32.69,5.56,12.19,13.85,24.35,24.78,32.32,2.69,1.96,11.63,7.15,14.63,7.15h14.99v19.56h1080.61v-19.56h14.99c3,0,11.94-5.19,14.63-7.15,10.88-7.94,19.56-20.36,24.78-32.69-5.56-12.19-13.85-24.35-24.78-32.32-2.69-1.96-11.63-7.15-14.63-7.15h-14.99V9.24Z"/>
  <path class="cls-1" d="M1146.58,9.24v19.56h14.99c3,0,11.94,5.19,14.63,7.15,10.93,7.97,19.22,20.13,24.78,32.32-5.21,12.33-13.89,24.75-24.78,32.69-2.69,1.96-11.63,7.15-14.63,7.15h-14.99v19.56H65.97v-19.56h-14.99c-3,0-11.94-5.19-14.63-7.15-10.93-7.97-19.22-20.13-24.78-32.32,5.21-12.33,13.89-24.75,24.78-32.69,2.69-1.96,11.63-7.15,14.63-7.15h14.99V9.24h1080.61ZM1142.76,13.04H69.79v19.56h-17.72c-11.16,0-32.09,23.75-35.28,33.83-1.06,3.36.67,5.47,2.21,8.36,4.79,9.05,22.11,29.52,33.08,29.52h17.72v19.56h1072.97v-19.56h17.72c11.16,0,32.09-23.75,35.28-33.83,1.06-3.36-.67-5.47-2.21-8.36-4.79-9.05-22.11-29.52-33.08-29.52h-17.72V13.04Z"/>
</svg>