<?xml version="1.0" encoding="UTF-8"?>
<svg id="Layer_1" xmlns="http://www.w3.org/2000/svg" version="1.1" viewBox="0 0 1213.09 136.36">
  <!-- Generator: Adobe Illustrator 29.5.1, SVG Export Plug-In . SVG Version: 2.1.0 Build 141)  -->
  <defs>
    <style>
      .st0 {
        fill: none;
        stroke: #70654a;
        stroke-miterlimit: 10;
        stroke-width: 4px;
      }
    </style>
  </defs>
  <g id="Layer_2">
    <path class="st0" d="M1152.33,133.65v-19.17h10.65c20.77,0,47.16-45.48,47.16-45.48,0,0-26.39-45.48-47.16-45.48h-10.66V4.35H60.82v19.17h-10.66C29.39,23.52,3,69,3,69c0,0,26.39,45.48,47.16,45.48h10.66v19.17h1091.51Z"/>
  </g>
  <g id="Layer_2_copy">
    <path class="st0" d="M70.48,14.19l1071.85.36v18.56h20.4c13.23.94,36.11,35.89,36.11,35.89,0,0-22.88,34.95-36.11,35.89h-20.4v18.56l-1071.85.36v-19.28h-20.4c-13.23-.94-36.11-35.89-36.11-35.89,0,0,22.88-34.95,36.11-35.89h20.4V14.19h0Z"/>
  </g>
</svg>