<?xml version="1.0" encoding="UTF-8"?>
<svg id="Layer_8_copy" xmlns="http://www.w3.org/2000/svg" version="1.1" viewBox="0 0 742.36 82.36">
  <!-- Generator: Adobe Illustrator 29.5.1, SVG Export Plug-In . SVG Version: 2.1.0 Build 141)  -->
  <defs>
    <style>
      .st0 {
        stroke-width: 4.5px;
      }

      .st0, .st1, .st2, .st3, .st4, .st5, .st6 {
        stroke: #70654a;
        stroke-miterlimit: 10;
      }

      .st0, .st3, .st4 {
        fill: #050505;
      }

      .st0, .st5 {
        stroke-linecap: round;
      }

      .st1 {
        fill: #70654a;
      }

      .st1, .st4, .st5 {
        stroke-width: 3px;
      }

      .st2 {
        stroke-width: 4px;
      }

      .st2, .st5, .st6 {
        fill: none;
      }

      .st3 {
        stroke-width: .5px;
      }
    </style>
  </defs>
  <g>
    <line class="st4" x1="80.08" y1="44.62" x2="80.08" y2="37.75"/>
    <g>
      <circle class="st4" cx="77.94" cy="44.62" r="2.13"/>
      <circle class="st4" cx="77.94" cy="37.75" r="2.13"/>
      <path class="st3" d="M75.81,37.75"/>
      <line class="st4" x1="75.81" y1="44.62" x2="75.81" y2="37.75"/>
    </g>
  </g>
  <g>
    <g>
      <g>
        <path class="st2" d="M17.12,41.18v-.07c8.39-4.6,8.71-15.5,18.69-13.32-2.77-7.34,4.82-13.69,12.85-8.75,1.21.74,2.27,1.7,3.2,2.77,6.17,7.11,12.22,16.42,20.27,19"/>
        <path class="st6" d="M35.81,27.8c-.85-7.62,9.88-8.79,12.65-2.5,1.34,3.04.39,7.25,3.21,9.56,3.12,2.56,9.08.43,7.59-4.13"/>
        <circle class="st4" cx="27.11" cy="35.09" r="2.13"/>
        <circle class="st4" cx="3.65" cy="41.18" r="2.13"/>
      </g>
      <g>
        <path class="st2" d="M17.12,41.18v.07c8.39,4.6,8.71,15.5,18.69,13.32-2.77,7.34,4.82,13.69,12.85,8.75,1.21-.74,2.27-1.7,3.2-2.77,6.17-7.11,12.22-16.42,20.27-19"/>
        <path class="st6" d="M35.81,54.57c-.85,7.62,9.88,8.79,12.65,2.5,1.34-3.04.39-7.25,3.21-9.56,3.12-2.56,9.08-.43,7.59,4.13"/>
        <circle class="st4" cx="27.11" cy="47.28" r="2.13"/>
      </g>
    </g>
    <line class="st0" x1="39.75" y1="41.18" x2="740.11" y2="41.18"/>
    <line class="st0" x1="10.71" y1="41.18" x2="18.18" y2="41.18"/>
  </g>
  <g>
    <line class="st4" x1="80.08" y1="44.62" x2="80.08" y2="37.75"/>
    <g>
      <circle class="st1" cx="77.94" cy="44.62" r="2.13"/>
      <circle class="st1" cx="77.94" cy="37.75" r="2.13"/>
      <path class="st3" d="M75.81,37.75"/>
      <line class="st4" x1="75.81" y1="44.62" x2="75.81" y2="37.75"/>
    </g>
  </g>
  <g>
    <g>
      <path class="st5" d="M94.59,59.34V23.08c0-.07-.1-.09-.1-.02.1,3.63-3.51,12.51-8.15,12.51"/>
      <path class="st5" d="M99.42,23.02v36.27c0,.07.1.09.1.02-.1-3.63,3.51-12.51,8.15-12.51"/>
    </g>
    <path class="st5" d="M36.34,21.6s2.36-2.41,6.57-2.29,10.27,2.78,17.68,12.93"/>
    <path class="st5" d="M57.7,33.63s-6.42-13.13-16.34-14.52"/>
    <path class="st5" d="M55.88,34.44s-5.73-9.34-7.81-13.19"/>
    <polyline class="st5" points="54.07 34.44 50.06 26.37 52.38 33.63"/>
    <path class="st2" d="M17.12,41.18v.07c8.39,4.6,8.71,15.5,18.69,13.32-2.77,7.34,4.82,13.69,12.85,8.75,1.21-.74,2.27-1.7,3.2-2.77,6.17-7.11,12.22-16.42,20.27-19"/>
    <path class="st6" d="M35.81,54.57c-.85,7.62,9.88,8.79,12.65,2.5,1.34-3.04.39-7.25,3.21-9.56,3.12-2.56,9.08-.43,7.59,4.13"/>
    <circle class="st1" cx="27.11" cy="47.28" r="2.13"/>
    <circle class="st1" cx="3.65" cy="41.18" r="2.13"/>
    <path class="st2" d="M17.12,41.18v-.07c8.39-4.6,8.71-15.5,18.69-13.32-2.77-7.34,4.82-13.69,12.85-8.75,1.21.74,2.27,1.7,3.2,2.77,6.17,7.11,12.22,16.42,20.27,19"/>
    <path class="st6" d="M35.81,27.8c-.85-7.62,9.88-8.79,12.65-2.5,1.34,3.04.39,7.25,3.21,9.56,3.12,2.56,9.08.43,7.59-4.13"/>
    <circle class="st1" cx="27.11" cy="35.09" r="2.13"/>
    <line class="st0" x1="10.71" y1="41.18" x2="18.18" y2="41.18"/>
    <path class="st5" d="M36.34,60.76s2.36,2.41,6.57,2.29,10.27-2.78,17.68-12.93"/>
    <path class="st5" d="M57.7,48.73s-6.42,13.13-16.34,14.52"/>
    <path class="st5" d="M55.88,47.93s-5.73,9.34-7.81,13.19"/>
    <polyline class="st5" points="54.07 47.93 50.06 55.99 52.38 48.73"/>
  </g>
</svg>