<?xml version="1.0" encoding="UTF-8"?>
<svg id="Layer_1" xmlns="http://www.w3.org/2000/svg" version="1.1" viewBox="0 0 1101.66 1101.66">
  <!-- Generator: Adobe Illustrator 29.5.1, SVG Export Plug-In . SVG Version: 2.1.0 Build 141)  -->
  <defs>
    <style>
      .st0, .st1, .st2 {
        stroke: #ad0f0e;
      }

      .st0, .st2, .st3 {
        fill: #ad0f0e;
      }

      .st4 {
        fill: #d32012;
      }

      .st4, .st5, .st1, .st6, .st7, .st8, .st9, .st10, .st11, .st12, .st13, .st14, .st15, .st2, .st16, .st3 {
        stroke-miterlimit: 10;
      }

      .st4, .st5, .st6, .st8, .st9, .st10, .st12, .st13, .st14, .st16, .st3 {
        stroke: #fff;
      }

      .st4, .st5, .st6, .st8, .st9, .st10, .st12, .st13, .st16, .st3 {
        stroke-width: 3px;
      }

      .st5, .st14 {
        fill: #fff;
      }

      .st1 {
        stroke-width: 13px;
      }

      .st1, .st6, .st11, .st17 {
        fill: none;
      }

      .st18, .st7, .st12 {
        fill: #bd9d52;
      }

      .st7, .st11, .st17 {
        stroke: #bd9d52;
      }

      .st8 {
        fill: #1fb53a;
      }

      .st9 {
        fill: #007a36;
      }

      .st17 {
        stroke-linecap: round;
        stroke-linejoin: round;
        stroke-width: .5px;
      }

      .st13 {
        fill: #0099b5;
      }

      .st15 {
        stroke: #297309;
      }

      .st15, .st16 {
        fill: #297309;
      }
    </style>
  </defs>
  <g id="Layer_14_copy_2">
    <g>
      <path class="st15" d="M717.78,476.02c.62-7.83-6.35-13.47-13.72-10.9-6.4,2.39-12.68,9.83-17.1,15.61-3.14,4.03-4.82,7.47-8.39,10.62-7.27,6.7-19.63,5.27-24.86-3.26-5.56-8.22-1.15-18.94,6.74-24.03,7.15-4.62,26.22-12.23,44.17-4.52,7.21,3.1,15.1,9.41,13.17,16.48"/>
      <path class="st15" d="M717.08,477.57c-3.79,6.07-13.29.8-10.12-5.6,3.59-7.18,14.06-1.27,10.23,5.41l-.11.19Z"/>
      <path class="st15" d="M700.04,657.25c7.09-3.39,8.49-12.22,2.58-17.33-5.27-4.35-14.85-6.07-22.07-7-5.06-.7-8.88-.44-13.39-1.95-9.44-2.95-14.38-14.36-9.61-23.16,4.34-8.93,15.84-10.47,24.18-6.19,7.56,3.88,23.7,16.58,26,35.99.93,7.8-.6,17.77-7.69,19.65"/>
      <path class="st15" d="M698.36,657.41c-7.15-.26-7.35-11.11-.21-11.56,8.01-.48,8.13,11.54.43,11.56h-.23s0,0,0,0Z"/>
      <path class="st15" d="M569.7,370.04c-6.48-4.46-14.84-1.24-16.3,6.43-1.13,6.74,2.16,15.89,4.97,22.61,1.92,4.73,4.06,7.91,5,12.58,2.17,9.65-5.25,19.63-15.25,19.9-9.9.71-16.99-8.48-17.45-17.86-.42-8.5,2.51-28.81,18.17-40.5,6.29-4.69,15.7-8.37,20.87-3.16"/>
      <path class="st15" d="M570.69,371.42c3.35,6.31-5.96,11.92-9.9,5.96-4.42-6.7,5.93-12.81,9.8-6.15l.11.19h0Z"/>
    </g>
    <g>
      <path class="st15" d="M383.88,625.64c-.62,7.83,6.35,13.47,13.72,10.9,6.4-2.39,12.68-9.83,17.1-15.61,3.14-4.03,4.82-7.47,8.39-10.62,7.27-6.7,19.63-5.27,24.86,3.26,5.56,8.22,1.15,18.94-6.74,24.03-7.15,4.62-26.22,12.23-44.17,4.52-7.21-3.1-15.1-9.41-13.17-16.48"/>
      <path class="st15" d="M384.58,624.09c3.79-6.07,13.29-.8,10.12,5.6-3.59,7.18-14.06,1.27-10.23-5.41l.11-.19Z"/>
      <path class="st15" d="M401.62,444.41c-7.09,3.39-8.49,12.22-2.58,17.33,5.27,4.35,14.85,6.07,22.07,7,5.06.7,8.88.44,13.39,1.95,9.44,2.95,14.38,14.36,9.61,23.16-4.34,8.93-15.84,10.47-24.18,6.19-7.56-3.88-23.7-16.58-26-35.99-.93-7.8.6-17.77,7.69-19.65"/>
      <path class="st15" d="M403.3,444.25c7.15.26,7.35,11.11.21,11.56-8.01.48-8.13-11.54-.43-11.56h.23s0,0,0,0Z"/>
      <path class="st15" d="M531.96,731.62c6.48,4.46,14.84,1.24,16.3-6.43,1.13-6.74-2.16-15.89-4.97-22.61-1.92-4.73-4.06-7.91-5-12.58-2.17-9.65,5.25-19.63,15.25-19.9,9.9-.71,16.99,8.48,17.45,17.86.42,8.5-2.51,28.81-18.17,40.5-6.29,4.69-15.7,8.37-20.87,3.16"/>
      <path class="st15" d="M530.97,730.24c-3.35-6.31,5.96-11.92,9.9-5.96,4.42,6.7-5.93,12.81-9.8,6.15l-.11-.19h0Z"/>
    </g>
  </g>
  <g id="Layer_4">
    <g>
      <g>
        <path class="st2" d="M559.66,344.15s-16.94-14.01-11.69-35.32c0,0,24.75,35.32,46.55,35.32"/>
        <path class="st2" d="M559.66,344.15s-16.94-14.01-11.69-35.32c0,0,24.75,35.32,46.55,35.32"/>
        <path class="st2" d="M559.66,344.15s-16.94-14.01-11.69-35.32c0,0,24.75,35.32,46.55,35.32"/>
        <path class="st0" d="M559.66,344.15s-16.94-14.01-11.69-35.32c0,0,24.75,35.32,46.55,35.32"/>
      </g>
      <g>
        <path class="st2" d="M595.41,348.83s-14.25-16.74-5.38-36.82c0,0,18.24,39.09,39.7,42.87"/>
        <path class="st2" d="M595.41,348.83s-14.25-16.74-5.38-36.82c0,0,18.24,39.09,39.7,42.87"/>
        <path class="st2" d="M595.41,348.83s-14.25-16.74-5.38-36.82c0,0,18.24,39.09,39.7,42.87"/>
        <path class="st0" d="M595.41,348.83s-14.25-16.74-5.38-36.82c0,0,18.24,39.09,39.7,42.87"/>
      </g>
      <g>
        <path class="st2" d="M629.81,359.64s-11.13-18.96,1.09-37.19c0,0,11.17,41.66,31.66,49.11"/>
        <path class="st2" d="M629.81,359.64s-11.13-18.96,1.09-37.19c0,0,11.17,41.66,31.66,49.11"/>
        <path class="st2" d="M629.81,359.64s-11.13-18.96,1.09-37.19c0,0,11.17,41.66,31.66,49.11"/>
        <path class="st0" d="M629.81,359.64s-11.13-18.96,1.09-37.19c0,0,11.17,41.66,31.66,49.11"/>
      </g>
      <g>
        <path class="st2" d="M661.81,376.26s-7.67-20.61,7.53-36.44c0,0,3.77,42.97,22.65,53.86"/>
        <path class="st2" d="M661.81,376.26s-7.67-20.61,7.53-36.44c0,0,3.77,42.97,22.65,53.86"/>
        <path class="st2" d="M661.81,376.26s-7.67-20.61,7.53-36.44c0,0,3.77,42.97,22.65,53.86"/>
        <path class="st0" d="M661.81,376.26s-7.67-20.61,7.53-36.44c0,0,3.77,42.97,22.65,53.86"/>
      </g>
      <g>
        <path class="st2" d="M690.44,398.18s-3.97-21.63,13.75-34.58c0,0-3.75,42.97,12.95,56.98"/>
        <path class="st2" d="M690.44,398.18s-3.97-21.63,13.75-34.58c0,0-3.75,42.97,12.95,56.98"/>
        <path class="st2" d="M690.44,398.18s-3.97-21.63,13.75-34.58c0,0-3.75,42.97,12.95,56.98"/>
        <path class="st0" d="M690.44,398.18s-3.97-21.63,13.75-34.58c0,0-3.75,42.97,12.95,56.98"/>
      </g>
      <g>
        <path class="st2" d="M714.83,424.75s-.16-21.99,19.54-31.66c0,0-11.15,41.66,2.86,58.36"/>
        <path class="st2" d="M714.83,424.75s-.16-21.99,19.54-31.66c0,0-11.15,41.66,2.86,58.36"/>
        <path class="st2" d="M714.83,424.75s-.16-21.99,19.54-31.66c0,0-11.15,41.66,2.86,58.36"/>
        <path class="st0" d="M714.83,424.75s-.16-21.99,19.54-31.66c0,0-11.15,41.66,2.86,58.36"/>
      </g>
      <g>
        <path class="st2" d="M734.23,455.14s3.67-21.68,24.74-27.79c0,0-18.22,39.09-7.32,57.97"/>
        <path class="st2" d="M734.23,455.14s3.67-21.68,24.74-27.79c0,0-18.22,39.09-7.32,57.97"/>
        <path class="st2" d="M734.23,455.14s3.67-21.68,24.74-27.79c0,0-18.22,39.09-7.32,57.97"/>
        <path class="st0" d="M734.23,455.14s3.67-21.68,24.74-27.79c0,0-18.22,39.09-7.32,57.97"/>
      </g>
      <g>
        <path class="st2" d="M748.06,488.44s7.37-20.71,29.19-23.07c0,0-24.73,35.34-17.27,55.82"/>
        <path class="st2" d="M748.06,488.44s7.37-20.71,29.19-23.07c0,0-24.73,35.34-17.27,55.82"/>
        <path class="st2" d="M748.06,488.44s7.37-20.71,29.19-23.07c0,0-24.73,35.34-17.27,55.82"/>
        <path class="st0" d="M748.06,488.44s7.37-20.71,29.19-23.07c0,0-24.73,35.34-17.27,55.82"/>
      </g>
      <g>
        <path class="st2" d="M755.9,523.64s10.86-19.12,32.76-17.65c0,0-30.49,30.51-26.71,51.97"/>
        <path class="st2" d="M755.9,523.64s10.86-19.12,32.76-17.65c0,0-30.49,30.51-26.71,51.97"/>
        <path class="st2" d="M755.9,523.64s10.86-19.12,32.76-17.65c0,0-30.49,30.51-26.71,51.97"/>
        <path class="st0" d="M755.9,523.64s10.86-19.12,32.76-17.65c0,0-30.49,30.51-26.71,51.97"/>
      </g>
      <g>
        <path class="st2" d="M757.51,559.66s14.01-16.94,35.32-11.69c0,0-35.32,24.75-35.32,46.55"/>
        <path class="st2" d="M757.51,559.66s14.01-16.94,35.32-11.69c0,0-35.32,24.75-35.32,46.55"/>
        <path class="st2" d="M757.51,559.66s14.01-16.94,35.32-11.69c0,0-35.32,24.75-35.32,46.55"/>
        <path class="st0" d="M757.51,559.66s14.01-16.94,35.32-11.69c0,0-35.32,24.75-35.32,46.55"/>
      </g>
      <g>
        <path class="st2" d="M752.83,595.41s16.74-14.25,36.82-5.38c0,0-39.09,18.24-42.87,39.7"/>
        <path class="st2" d="M752.83,595.41s16.74-14.25,36.82-5.38c0,0-39.09,18.24-42.87,39.7"/>
        <path class="st2" d="M752.83,595.41s16.74-14.25,36.82-5.38c0,0-39.09,18.24-42.87,39.7"/>
        <path class="st0" d="M752.83,595.41s16.74-14.25,36.82-5.38c0,0-39.09,18.24-42.87,39.7"/>
      </g>
      <g>
        <path class="st2" d="M742.02,629.81s18.96-11.13,37.19,1.09c0,0-41.66,11.17-49.11,31.66"/>
        <path class="st2" d="M742.02,629.81s18.96-11.13,37.19,1.09c0,0-41.66,11.17-49.11,31.66"/>
        <path class="st2" d="M742.02,629.81s18.96-11.13,37.19,1.09c0,0-41.66,11.17-49.11,31.66"/>
        <path class="st0" d="M742.02,629.81s18.96-11.13,37.19,1.09c0,0-41.66,11.17-49.11,31.66"/>
      </g>
      <g>
        <path class="st2" d="M725.4,661.81s20.61-7.67,36.44,7.53c0,0-42.97,3.77-53.86,22.65"/>
        <path class="st2" d="M725.4,661.81s20.61-7.67,36.44,7.53c0,0-42.97,3.77-53.86,22.65"/>
        <path class="st2" d="M725.4,661.81s20.61-7.67,36.44,7.53c0,0-42.97,3.77-53.86,22.65"/>
        <path class="st0" d="M725.4,661.81s20.61-7.67,36.44,7.53c0,0-42.97,3.77-53.86,22.65"/>
      </g>
      <g>
        <path class="st2" d="M703.48,690.44s21.63-3.97,34.58,13.75c0,0-42.97-3.75-56.98,12.95"/>
        <path class="st2" d="M703.48,690.44s21.63-3.97,34.58,13.75c0,0-42.97-3.75-56.98,12.95"/>
        <path class="st2" d="M703.48,690.44s21.63-3.97,34.58,13.75c0,0-42.97-3.75-56.98,12.95"/>
        <path class="st0" d="M703.48,690.44s21.63-3.97,34.58,13.75c0,0-42.97-3.75-56.98,12.95"/>
      </g>
      <g>
        <path class="st2" d="M676.92,714.83s21.99-.16,31.66,19.54c0,0-41.66-11.15-58.36,2.86"/>
        <path class="st2" d="M676.92,714.83s21.99-.16,31.66,19.54c0,0-41.66-11.15-58.36,2.86"/>
        <path class="st2" d="M676.92,714.83s21.99-.16,31.66,19.54c0,0-41.66-11.15-58.36,2.86"/>
        <path class="st0" d="M676.92,714.83s21.99-.16,31.66,19.54c0,0-41.66-11.15-58.36,2.86"/>
      </g>
      <g>
        <path class="st2" d="M646.52,734.23s21.68,3.67,27.79,24.74c0,0-39.09-18.22-57.97-7.32"/>
        <path class="st2" d="M646.52,734.23s21.68,3.67,27.79,24.74c0,0-39.09-18.22-57.97-7.32"/>
        <path class="st2" d="M646.52,734.23s21.68,3.67,27.79,24.74c0,0-39.09-18.22-57.97-7.32"/>
        <path class="st0" d="M646.52,734.23s21.68,3.67,27.79,24.74c0,0-39.09-18.22-57.97-7.32"/>
      </g>
      <g>
        <path class="st2" d="M613.22,748.06s20.71,7.37,23.07,29.19c0,0-35.34-24.73-55.82-17.27"/>
        <path class="st2" d="M613.22,748.06s20.71,7.37,23.07,29.19c0,0-35.34-24.73-55.82-17.27"/>
        <path class="st2" d="M613.22,748.06s20.71,7.37,23.07,29.19c0,0-35.34-24.73-55.82-17.27"/>
        <path class="st0" d="M613.22,748.06s20.71,7.37,23.07,29.19c0,0-35.34-24.73-55.82-17.27"/>
      </g>
      <g>
        <path class="st2" d="M578.02,755.9s19.12,10.86,17.65,32.76c0,0-30.51-30.49-51.97-26.71"/>
        <path class="st2" d="M578.02,755.9s19.12,10.86,17.65,32.76c0,0-30.51-30.49-51.97-26.71"/>
        <path class="st2" d="M578.02,755.9s19.12,10.86,17.65,32.76c0,0-30.51-30.49-51.97-26.71"/>
        <path class="st0" d="M578.02,755.9s19.12,10.86,17.65,32.76c0,0-30.51-30.49-51.97-26.71"/>
      </g>
      <g>
        <path class="st2" d="M542,757.51s16.94,14.01,11.69,35.32c0,0-24.75-35.32-46.55-35.32"/>
        <path class="st2" d="M542,757.51s16.94,14.01,11.69,35.32c0,0-24.75-35.32-46.55-35.32"/>
        <path class="st2" d="M542,757.51s16.94,14.01,11.69,35.32c0,0-24.75-35.32-46.55-35.32"/>
        <path class="st0" d="M542,757.51s16.94,14.01,11.69,35.32c0,0-24.75-35.32-46.55-35.32"/>
      </g>
      <g>
        <path class="st2" d="M506.25,752.83s14.25,16.74,5.38,36.82c0,0-18.24-39.09-39.7-42.87"/>
        <path class="st2" d="M506.25,752.83s14.25,16.74,5.38,36.82c0,0-18.24-39.09-39.7-42.87"/>
        <path class="st2" d="M506.25,752.83s14.25,16.74,5.38,36.82c0,0-18.24-39.09-39.7-42.87"/>
        <path class="st0" d="M506.25,752.83s14.25,16.74,5.38,36.82c0,0-18.24-39.09-39.7-42.87"/>
      </g>
      <g>
        <path class="st2" d="M471.85,742.02s11.13,18.96-1.09,37.19c0,0-11.17-41.66-31.66-49.11"/>
        <path class="st2" d="M471.85,742.02s11.13,18.96-1.09,37.19c0,0-11.17-41.66-31.66-49.11"/>
        <path class="st2" d="M471.85,742.02s11.13,18.96-1.09,37.19c0,0-11.17-41.66-31.66-49.11"/>
        <path class="st0" d="M471.85,742.02s11.13,18.96-1.09,37.19c0,0-11.17-41.66-31.66-49.11"/>
      </g>
      <g>
        <path class="st2" d="M439.85,725.4s7.67,20.61-7.53,36.44c0,0-3.77-42.97-22.65-53.86"/>
        <path class="st2" d="M439.85,725.4s7.67,20.61-7.53,36.44c0,0-3.77-42.97-22.65-53.86"/>
        <path class="st2" d="M439.85,725.4s7.67,20.61-7.53,36.44c0,0-3.77-42.97-22.65-53.86"/>
        <path class="st0" d="M439.85,725.4s7.67,20.61-7.53,36.44c0,0-3.77-42.97-22.65-53.86"/>
      </g>
      <g>
        <path class="st2" d="M411.22,703.48s3.97,21.63-13.75,34.58c0,0,3.75-42.97-12.95-56.98"/>
        <path class="st2" d="M411.22,703.48s3.97,21.63-13.75,34.58c0,0,3.75-42.97-12.95-56.98"/>
        <path class="st2" d="M411.22,703.48s3.97,21.63-13.75,34.58c0,0,3.75-42.97-12.95-56.98"/>
        <path class="st0" d="M411.22,703.48s3.97,21.63-13.75,34.58c0,0,3.75-42.97-12.95-56.98"/>
      </g>
      <g>
        <path class="st2" d="M386.83,676.92s.16,21.99-19.54,31.66c0,0,11.15-41.66-2.86-58.36"/>
        <path class="st2" d="M386.83,676.92s.16,21.99-19.54,31.66c0,0,11.15-41.66-2.86-58.36"/>
        <path class="st2" d="M386.83,676.92s.16,21.99-19.54,31.66c0,0,11.15-41.66-2.86-58.36"/>
        <path class="st0" d="M386.83,676.92s.16,21.99-19.54,31.66c0,0,11.15-41.66-2.86-58.36"/>
      </g>
      <g>
        <path class="st2" d="M367.43,646.52s-3.67,21.68-24.74,27.79c0,0,18.22-39.09,7.32-57.97"/>
        <path class="st2" d="M367.43,646.52s-3.67,21.68-24.74,27.79c0,0,18.22-39.09,7.32-57.97"/>
        <path class="st2" d="M367.43,646.52s-3.67,21.68-24.74,27.79c0,0,18.22-39.09,7.32-57.97"/>
        <path class="st0" d="M367.43,646.52s-3.67,21.68-24.74,27.79c0,0,18.22-39.09,7.32-57.97"/>
      </g>
      <g>
        <path class="st2" d="M353.6,613.22s-7.37,20.71-29.19,23.07c0,0,24.73-35.34,17.27-55.82"/>
        <path class="st2" d="M353.6,613.22s-7.37,20.71-29.19,23.07c0,0,24.73-35.34,17.27-55.82"/>
        <path class="st2" d="M353.6,613.22s-7.37,20.71-29.19,23.07c0,0,24.73-35.34,17.27-55.82"/>
        <path class="st0" d="M353.6,613.22s-7.37,20.71-29.19,23.07c0,0,24.73-35.34,17.27-55.82"/>
      </g>
      <g>
        <path class="st2" d="M345.76,578.02s-10.86,19.12-32.76,17.65c0,0,30.49-30.51,26.71-51.97"/>
        <path class="st2" d="M345.76,578.02s-10.86,19.12-32.76,17.65c0,0,30.49-30.51,26.71-51.97"/>
        <path class="st2" d="M345.76,578.02s-10.86,19.12-32.76,17.65c0,0,30.49-30.51,26.71-51.97"/>
        <path class="st0" d="M345.76,578.02s-10.86,19.12-32.76,17.65c0,0,30.49-30.51,26.71-51.97"/>
      </g>
      <g>
        <path class="st2" d="M344.15,542s-14.01,16.94-35.32,11.69c0,0,35.32-24.75,35.32-46.55"/>
        <path class="st2" d="M344.15,542s-14.01,16.94-35.32,11.69c0,0,35.32-24.75,35.32-46.55"/>
        <path class="st2" d="M344.15,542s-14.01,16.94-35.32,11.69c0,0,35.32-24.75,35.32-46.55"/>
        <path class="st0" d="M344.15,542s-14.01,16.94-35.32,11.69c0,0,35.32-24.75,35.32-46.55"/>
      </g>
      <g>
        <path class="st2" d="M348.83,506.25s-16.74,14.25-36.82,5.38c0,0,39.09-18.24,42.87-39.7"/>
        <path class="st2" d="M348.83,506.25s-16.74,14.25-36.82,5.38c0,0,39.09-18.24,42.87-39.7"/>
        <path class="st2" d="M348.83,506.25s-16.74,14.25-36.82,5.38c0,0,39.09-18.24,42.87-39.7"/>
        <path class="st0" d="M348.83,506.25s-16.74,14.25-36.82,5.38c0,0,39.09-18.24,42.87-39.7"/>
      </g>
      <g>
        <path class="st2" d="M359.64,471.85s-18.96,11.13-37.19-1.09c0,0,41.66-11.17,49.11-31.66"/>
        <path class="st2" d="M359.64,471.85s-18.96,11.13-37.19-1.09c0,0,41.66-11.17,49.11-31.66"/>
        <path class="st2" d="M359.64,471.85s-18.96,11.13-37.19-1.09c0,0,41.66-11.17,49.11-31.66"/>
        <path class="st0" d="M359.64,471.85s-18.96,11.13-37.19-1.09c0,0,41.66-11.17,49.11-31.66"/>
      </g>
      <g>
        <path class="st2" d="M376.26,439.85s-20.61,7.67-36.44-7.53c0,0,42.97-3.77,53.86-22.65"/>
        <path class="st2" d="M376.26,439.85s-20.61,7.67-36.44-7.53c0,0,42.97-3.77,53.86-22.65"/>
        <path class="st2" d="M376.26,439.85s-20.61,7.67-36.44-7.53c0,0,42.97-3.77,53.86-22.65"/>
        <path class="st0" d="M376.26,439.85s-20.61,7.67-36.44-7.53c0,0,42.97-3.77,53.86-22.65"/>
      </g>
      <g>
        <path class="st2" d="M398.18,411.22s-21.63,3.97-34.58-13.75c0,0,42.97,3.75,56.98-12.95"/>
        <path class="st2" d="M398.18,411.22s-21.63,3.97-34.58-13.75c0,0,42.97,3.75,56.98-12.95"/>
        <path class="st2" d="M398.18,411.22s-21.63,3.97-34.58-13.75c0,0,42.97,3.75,56.98-12.95"/>
        <path class="st0" d="M398.18,411.22s-21.63,3.97-34.58-13.75c0,0,42.97,3.75,56.98-12.95"/>
      </g>
      <g>
        <path class="st2" d="M424.75,386.83s-21.99.16-31.66-19.54c0,0,41.66,11.15,58.36-2.86"/>
        <path class="st2" d="M424.75,386.83s-21.99.16-31.66-19.54c0,0,41.66,11.15,58.36-2.86"/>
        <path class="st2" d="M424.75,386.83s-21.99.16-31.66-19.54c0,0,41.66,11.15,58.36-2.86"/>
        <path class="st0" d="M424.75,386.83s-21.99.16-31.66-19.54c0,0,41.66,11.15,58.36-2.86"/>
      </g>
      <g>
        <path class="st2" d="M455.14,367.43s-21.68-3.67-27.79-24.74c0,0,39.09,18.22,57.97,7.32"/>
        <path class="st2" d="M455.14,367.43s-21.68-3.67-27.79-24.74c0,0,39.09,18.22,57.97,7.32"/>
        <path class="st2" d="M455.14,367.43s-21.68-3.67-27.79-24.74c0,0,39.09,18.22,57.97,7.32"/>
        <path class="st0" d="M455.14,367.43s-21.68-3.67-27.79-24.74c0,0,39.09,18.22,57.97,7.32"/>
      </g>
      <g>
        <path class="st2" d="M488.44,353.6s-20.71-7.37-23.07-29.19c0,0,35.34,24.73,55.82,17.27"/>
        <path class="st2" d="M488.44,353.6s-20.71-7.37-23.07-29.19c0,0,35.34,24.73,55.82,17.27"/>
        <path class="st2" d="M488.44,353.6s-20.71-7.37-23.07-29.19c0,0,35.34,24.73,55.82,17.27"/>
        <path class="st0" d="M488.44,353.6s-20.71-7.37-23.07-29.19c0,0,35.34,24.73,55.82,17.27"/>
      </g>
      <g>
        <path class="st2" d="M523.64,345.76s-19.12-10.86-17.65-32.76c0,0,30.51,30.49,51.97,26.71"/>
        <path class="st2" d="M523.64,345.76s-19.12-10.86-17.65-32.76c0,0,30.51,30.49,51.97,26.71"/>
        <path class="st2" d="M523.64,345.76s-19.12-10.86-17.65-32.76c0,0,30.51,30.49,51.97,26.71"/>
        <path class="st0" d="M523.64,345.76s-19.12-10.86-17.65-32.76c0,0,30.51,30.49,51.97,26.71"/>
      </g>
      <g>
        <path class="st2" d="M559.66,344.15s-16.94-14.01-11.69-35.32c0,0,24.75,35.32,46.55,35.32"/>
        <path class="st2" d="M559.66,344.15s-16.94-14.01-11.69-35.32c0,0,24.75,35.32,46.55,35.32"/>
        <path class="st2" d="M559.66,344.15s-16.94-14.01-11.69-35.32c0,0,24.75,35.32,46.55,35.32"/>
        <path class="st0" d="M559.66,344.15s-16.94-14.01-11.69-35.32c0,0,24.75,35.32,46.55,35.32"/>
      </g>
    </g>
    <circle class="st1" cx="550.83" cy="550.83" r="204"/>
  </g>
  <g id="Layer_2">
    <g>
      <path class="st18" d="M48.79,703.12c-9.8-1.21-30.57-7.69-37.1-40.54,0,0,8.95,7.99,18.75,6.04,7.59-1.51,12.52-8.89,11.01-16.47-1.51-7.59-8.88-12.52-16.47-11.01-9.81,1.95-15.02,12.76-15.02,12.76-6.53-32.84,10.17-46.78,18.76-51.65-9.37-3.1-28.47-13.52-28.47-47,0,0,7.22,9.58,17.21,9.58,7.74,0,14.01-6.27,14.01-14s-6.27-14.01-14.01-14.01c-9.99,0-17.21,9.58-17.21,9.58,0-33.48,19.1-43.9,28.47-47-8.59-4.87-25.29-18.81-18.76-51.64,0,0,5.21,10.8,15.02,12.75,7.59,1.51,14.96-3.42,16.47-11.01,1.51-7.58-3.42-14.96-11.01-16.47-9.8-1.95-18.75,6.04-18.75,6.04,6.53-32.85,27.3-39.33,37.1-40.54-7.48-6.44-21.14-23.38-8.33-54.31,0,0,3.01,11.61,12.24,15.44,7.15,2.96,15.34-.44,18.3-7.58,2.96-7.15-.43-15.34-7.58-18.3-9.23-3.83-19.57,2.26-19.57,2.26,12.81-30.92,34.44-33.25,44.29-32.53-6.08-7.79-16.15-27.07,2.43-54.89,0,0,.69,11.98,9,17.53,6.43,4.3,15.13,2.57,19.43-3.86,4.29-6.44,2.56-15.13-3.87-19.43-8.16-5.46-19.22-1.74-19.63-1.61,18.6-27.83,40.28-25.88,49.79-23.25-4.45-8.83-10.58-29.7,13.09-53.36,0,0-1.67,11.88,5.4,18.95,5.47,5.47,14.34,5.47,19.81,0s5.47-14.34,0-19.81c-7.07-7.07-18.95-5.4-18.95-5.4,23.66-23.67,44.53-17.54,53.36-13.09-2.63-9.51-4.58-31.19,23.25-49.79-.13.41-3.85,11.47,1.61,19.63,4.3,6.43,12.99,8.16,19.43,3.87,6.43-4.3,8.16-13,3.86-19.43-5.55-8.31-17.53-9-17.53-9,27.82-18.58,47.1-8.51,54.89-2.43-.72-9.85,1.61-31.48,32.53-44.29,0,0-6.09,10.34-2.26,19.57,2.96,7.15,11.15,10.54,18.3,7.58,7.14-2.96,10.54-11.15,7.58-18.3-3.83-9.23-15.44-12.24-15.44-12.24,30.93-12.81,47.87.85,54.31,8.33,1.21-9.8,7.69-30.57,40.54-37.1,0,0-7.99,8.95-6.04,18.75,1.51,7.59,8.89,12.52,16.47,11.01,7.59-1.51,12.52-8.88,11.01-16.47-1.95-9.81-12.75-15.02-12.75-15.02,32.83-6.53,46.77,10.17,51.64,18.76,3.1-9.37,13.52-28.47,47-28.47,0,0-9.58,7.22-9.58,17.21,0,7.74,6.27,14.01,14.01,14.01s14-6.27,14-14.01c0-9.99-9.58-17.21-9.58-17.21,33.48,0,43.9,19.1,47,28.47,4.87-8.59,18.81-25.29,51.65-18.76,0,0-10.81,5.21-12.76,15.02-1.51,7.59,3.42,14.96,11.01,16.47,7.58,1.51,14.96-3.42,16.47-11.01,1.95-9.8-6.04-18.75-6.04-18.75,32.85,6.53,39.33,27.3,40.54,37.1,6.44-7.48,23.38-21.14,54.31-8.33,0,0-11.61,3.01-15.44,12.24-2.96,7.15.44,15.34,7.58,18.3,7.15,2.96,15.35-.43,18.31-7.58,3.82-9.23-2.27-19.57-2.27-19.57,30.92,12.81,33.25,34.44,32.53,44.29,7.79-6.08,27.07-16.15,54.89,2.43,0,0-11.98.69-17.53,9-4.3,6.43-2.57,15.13,3.86,19.43,6.44,4.29,15.13,2.56,19.43-3.87,5.46-8.16,1.74-19.22,1.61-19.63,27.83,18.6,25.88,40.28,23.25,49.79,8.83-4.45,29.7-10.58,53.36,13.09,0,0-11.88-1.67-18.94,5.4-5.47,5.47-5.47,14.34,0,19.81s14.33,5.47,19.8,0c7.07-7.07,5.41-18.95,5.41-18.95,23.67,23.67,17.53,44.54,13.09,53.36,9.52-2.63,31.19-4.57,49.78,23.25-.41-.13-11.47-3.85-19.63,1.61-6.43,4.3-8.16,12.99-3.87,19.43,4.3,6.43,13,8.16,19.43,3.86,8.31-5.55,9-17.53,9-17.53,18.59,27.82,8.51,47.1,2.43,54.89,9.85-.72,31.48,1.6,44.29,32.53,0,0-10.34-6.09-19.57-2.26-7.15,2.96-10.54,11.15-7.58,18.3,2.96,7.14,11.15,10.54,18.3,7.58,9.23-3.83,12.24-15.44,12.24-15.44,12.81,30.93-.85,47.87-8.33,54.31,9.8,1.21,30.57,7.69,37.1,40.54,0,0-8.95-7.99-18.75-6.04-7.59,1.51-12.52,8.89-11.01,16.47,1.51,7.59,8.89,12.52,16.47,11.01,9.81-1.95,15.02-12.75,15.02-12.75,6.53,32.83-10.17,46.77-18.76,51.64,9.37,3.1,28.48,13.52,28.48,47,0,0-7.22-9.58-17.22-9.58-7.74,0-14.01,6.27-14.01,14.01s6.27,14,14.01,14c10,0,17.22-9.58,17.22-9.58,0,33.48-19.11,43.9-28.48,47,8.59,4.87,25.29,18.81,18.76,51.65,0,0-5.21-10.81-15.02-12.76-7.58-1.51-14.96,3.42-16.47,11.01-1.51,7.58,3.42,14.96,11.01,16.47,9.8,1.95,18.75-6.04,18.75-6.04-6.53,32.85-27.3,39.33-37.1,40.54,7.48,6.44,21.14,23.38,8.33,54.31,0,0-3.01-11.61-12.24-15.44-7.15-2.96-15.34.44-18.3,7.58-2.96,7.15.43,15.35,7.58,18.31,9.23,3.82,19.57-2.27,19.57-2.27-12.81,30.93-34.44,33.25-44.29,32.53,6.08,7.79,16.16,27.07-2.43,54.89,0,0-.69-11.98-9-17.53-6.43-4.3-15.13-2.57-19.43,3.86-4.29,6.44-2.56,15.13,3.87,19.43,8.16,5.46,19.22,1.74,19.63,1.61-18.59,27.82-40.26,25.88-49.78,23.25,4.44,8.82,10.58,29.69-13.09,53.36,0,0,1.66-11.88-5.41-18.94-5.47-5.47-14.33-5.47-19.8,0s-5.47,14.33,0,19.8c7.06,7.07,18.94,5.41,18.94,5.41-23.67,23.67-44.54,17.53-53.36,13.09,2.63,9.52,4.57,31.19-23.25,49.78.13-.41,3.85-11.47-1.61-19.63-4.3-6.43-12.99-8.16-19.43-3.87-6.43,4.3-8.16,13-3.86,19.43,5.55,8.31,17.53,9,17.53,9-27.82,18.59-47.1,8.51-54.89,2.43.72,9.85-1.6,31.48-32.53,44.29,0,0,6.09-10.34,2.27-19.57-2.96-7.15-11.16-10.54-18.31-7.58-7.14,2.96-10.54,11.15-7.58,18.3,3.83,9.23,15.44,12.24,15.44,12.24-30.93,12.81-47.87-.85-54.31-8.33-1.21,9.8-7.69,30.57-40.54,37.1,0,0,7.99-8.95,6.04-18.75-1.51-7.59-8.89-12.52-16.47-11.01-7.59,1.51-12.52,8.89-11.01,16.47,1.95,9.81,12.76,15.02,12.76,15.02-32.84,6.53-46.78-10.17-51.65-18.76-3.1,9.37-13.52,28.48-47,28.48,0,0,9.58-7.22,9.58-17.22,0-7.74-6.27-14.01-14-14.01s-14.01,6.27-14.01,14.01c0,10,9.58,17.22,9.58,17.22-33.48,0-43.9-19.11-47-28.48-4.87,8.59-18.81,25.29-51.64,18.76,0,0,10.8-5.21,12.75-15.02,1.51-7.58-3.42-14.96-11.01-16.47-7.58-1.51-14.96,3.42-16.47,11.01-1.95,9.8,6.04,18.75,6.04,18.75-32.85-6.53-39.33-27.3-40.54-37.1-6.44,7.48-23.38,21.14-54.31,8.33,0,0,11.61-3.01,15.44-12.24,2.96-7.15-.44-15.34-7.58-18.3-7.15-2.96-15.34.43-18.3,7.58-3.83,9.23,2.26,19.57,2.26,19.57-30.93-12.81-33.25-34.44-32.53-44.29-7.79,6.08-27.07,16.16-54.89-2.43,0,0,11.98-.69,17.53-9,4.3-6.43,2.57-15.13-3.86-19.43-6.44-4.29-15.13-2.56-19.43,3.87-5.46,8.16-1.74,19.22-1.61,19.63-27.82-18.59-25.88-40.26-23.25-49.78-8.82,4.44-29.69,10.58-53.36-13.09,0,0,11.88,1.66,18.95-5.41,5.47-5.47,5.47-14.33,0-19.8s-14.34-5.47-19.81,0c-7.07,7.06-5.4,18.94-5.4,18.94-23.67-23.66-17.54-44.53-13.09-53.36-9.51,2.63-31.19,4.58-49.79-23.25.41.13,11.47,3.85,19.63-1.61,6.43-4.3,8.16-12.99,3.87-19.43-4.3-6.43-13-8.16-19.43-3.86-8.31,5.55-9,17.53-9,17.53-18.58-27.82-8.51-47.1-2.43-54.89-9.85.72-31.48-1.61-44.29-32.53,0,0,10.34,6.09,19.57,2.27,7.15-2.96,10.54-11.16,7.58-18.31-2.96-7.14-11.15-10.54-18.3-7.58-9.23,3.83-12.24,15.44-12.24,15.44-12.81-30.93.85-47.87,8.33-54.31h0ZM1048.33,550.83c0-274.77-222.74-497.5-497.5-497.5S53.33,276.06,53.33,550.83s222.73,497.5,497.5,497.5,497.5-222.74,497.5-497.5h0Z"/>
      <g>
        <path class="st17" d="M398.3,54s-.17-2.02.23-5.21c1.21-9.8,7.69-30.57,40.54-37.1,0,0-7.99,8.95-6.04,18.75"/>
        <path class="st17" d="M501.61,33.45s-.62-1.94-2.21-4.73c-4.87-8.59-18.81-25.29-51.64-18.76,0,0,10.8,5.21,12.75,15.02"/>
        <path class="st17" d="M433.03,30.44c1.51,7.59,8.89,12.52,16.47,11.01,7.59-1.51,12.52-8.88,11.01-16.47"/>
        <path class="st17" d="M600.04,1068.2s.62,1.94,2.21,4.73c4.87,8.59,18.81,25.29,51.65,18.76,0,0-10.81-5.21-12.76-15.02"/>
        <path class="st17" d="M703.35,1047.65s.17,2.02-.23,5.21c-1.21,9.8-7.69,30.57-40.54,37.1,0,0,7.99-8.95,6.04-18.75"/>
        <path class="st17" d="M641.14,1076.67c-1.51-7.58,3.42-14.96,11.01-16.47,7.58-1.51,14.96,3.42,16.47,11.01"/>
        <path class="st17" d="M54,703.35s-2.02.17-5.21-.23c-9.8-1.21-30.57-7.69-37.1-40.54,0,0,8.95,7.99,18.75,6.04"/>
        <path class="st17" d="M33.45,600.04s-1.94.62-4.73,2.21c-8.59,4.87-25.29,18.81-18.76,51.65,0,0,5.21-10.81,15.02-12.76"/>
        <path class="st17" d="M30.44,668.62c7.59-1.51,12.52-8.89,11.01-16.47-1.51-7.59-8.88-12.52-16.47-11.01"/>
        <path class="st17" d="M1068.2,501.61s1.94-.62,4.73-2.21c8.59-4.87,25.29-18.81,18.76-51.64,0,0-5.21,10.8-15.02,12.75"/>
        <path class="st17" d="M1047.65,398.3s2.02-.17,5.21.23c9.8,1.21,30.57,7.69,37.1,40.54,0,0-8.95-7.99-18.75-6.04"/>
        <path class="st17" d="M1076.67,460.51c-7.58,1.51-14.96-3.42-16.47-11.01-1.51-7.58,3.42-14.96,11.01-16.47"/>
        <path class="st17" d="M498.16,33.79s.23-2.02,1.24-5.07c3.1-9.37,13.52-28.47,47-28.47,0,0-9.58,7.22-9.58,17.21"/>
        <path class="st17" d="M564.83,17.46c0,7.74-6.27,14.01-14,14.01s-14.01-6.27-14.01-14.01"/>
        <path class="st17" d="M603.49,33.79s-.23-2.02-1.24-5.07c-3.1-9.37-13.52-28.47-47-28.47,0,0,9.58,7.22,9.58,17.21"/>
        <path class="st17" d="M498.16,1067.86s.23,2.02,1.24,5.07c3.1,9.37,13.52,28.48,47,28.48,0,0-9.58-7.22-9.58-17.22"/>
        <path class="st17" d="M564.83,1084.19c0-7.74-6.27-14.01-14-14.01s-14.01,6.27-14.01,14.01"/>
        <path class="st17" d="M603.49,1067.86s-.23,2.02-1.24,5.07c-3.1,9.37-13.52,28.48-47,28.48,0,0,9.58-7.22,9.58-17.22"/>
        <path class="st17" d="M33.79,603.49s-2.02-.23-5.07-1.24c-9.37-3.1-28.47-13.52-28.47-47,0,0,7.22,9.58,17.21,9.58"/>
        <path class="st17" d="M17.46,536.82c7.74,0,14.01,6.27,14.01,14.01s-6.27,14-14.01,14"/>
        <path class="st17" d="M.25,546.4s7.22-9.58,17.21-9.58"/>
        <path class="st17" d="M1067.86,603.49s2.02-.23,5.07-1.24c9.37-3.1,28.48-13.52,28.48-47,0,0-7.22,9.58-17.22,9.58"/>
        <path class="st17" d="M1084.19,536.82c-7.74,0-14.01,6.27-14.01,14.01s6.27,14,14.01,14"/>
        <path class="st17" d="M1067.86,498.16s2.02.23,5.07,1.24c9.37,3.1,28.48,13.52,28.48,47,0,0-7.22-9.58-17.22-9.58"/>
        <path class="st17" d="M304.31,93.31s-.56-1.96-.8-5.17c-.72-9.85,1.61-31.48,32.53-44.29,0,0-6.09,10.34-2.26,19.57"/>
        <path class="st17" d="M401.62,53s-.99-1.78-3.09-4.21c-6.44-7.48-23.38-21.14-54.31-8.33,0,0,11.61,3.01,15.44,12.24"/>
        <path class="st17" d="M333.78,63.42c2.96,7.15,11.15,10.54,18.3,7.58,7.14-2.96,10.54-11.15,7.58-18.3"/>
        <path class="st17" d="M700.03,1048.65s.99,1.78,3.09,4.21c6.44,7.48,23.38,21.14,54.31,8.33,0,0-11.61-3.01-15.44-12.24"/>
        <path class="st17" d="M797.34,1008.35s.56,1.95.8,5.16c.72,9.85-1.6,31.48-32.53,44.29,0,0,6.09-10.34,2.27-19.57"/>
        <path class="st17" d="M741.99,1048.95c-2.96-7.15.44-15.34,7.58-18.3,7.15-2.96,15.35.43,18.31,7.58"/>
        <path class="st17" d="M93.31,797.34s-1.96.56-5.17.8c-9.85.72-31.48-1.61-44.29-32.53,0,0,10.34,6.09,19.57,2.27"/>
        <path class="st17" d="M53,700.03s-1.78.99-4.21,3.09c-7.48,6.44-21.14,23.38-8.33,54.31,0,0,3.01-11.61,12.24-15.44"/>
        <path class="st17" d="M63.42,767.88c7.15-2.96,10.54-11.16,7.58-18.31-2.96-7.14-11.15-10.54-18.3-7.58"/>
        <path class="st17" d="M1048.65,401.62s1.78-.99,4.21-3.09c7.48-6.44,21.14-23.38,8.33-54.31,0,0-3.01,11.61-12.24,15.44"/>
        <path class="st17" d="M1008.35,304.31s1.95-.56,5.16-.8c9.85-.72,31.48,1.6,44.29,32.53,0,0-10.34-6.09-19.57-2.26"/>
        <path class="st17" d="M1048.95,359.66c-7.15,2.96-15.34-.44-18.3-7.58-2.96-7.15.43-15.34,7.58-18.3"/>
        <path class="st17" d="M241.26,95.49h0c-.13.42-3.85,11.48,1.61,19.64"/>
        <path class="st17" d="M219.79,150.19s-.93-1.81-1.79-4.9c-2.63-9.51-4.58-31.19,23.25-49.79"/>
        <path class="st17" d="M307.37,91.67s-1.32-1.55-3.86-3.53c-7.79-6.08-27.07-16.15-54.89,2.43,0,0,11.98.69,17.53,9"/>
        <path class="st17" d="M242.86,115.13c4.3,6.43,12.99,8.16,19.43,3.87,6.43-4.3,8.16-13,3.86-19.43"/>
        <path class="st17" d="M794.28,1009.98s1.32,1.56,3.86,3.53c7.79,6.08,27.07,16.16,54.89-2.43,0,0-11.98-.69-17.53-9"/>
        <path class="st17" d="M860.4,1006.15c.13-.41,3.85-11.47-1.61-19.63"/>
        <path class="st17" d="M881.86,951.46s.93,1.81,1.79,4.91c2.63,9.52,4.57,31.19-23.25,49.78,0,.01-.01.01-.01.01"/>
        <path class="st17" d="M835.5,1002.08c-4.3-6.43-2.57-15.13,3.86-19.43,6.44-4.29,15.13-2.56,19.43,3.87"/>
        <path class="st17" d="M95.5,860.4c.41.13,11.47,3.85,19.63-1.61"/>
        <path class="st17" d="M150.19,881.86s-1.81.93-4.9,1.79c-9.51,2.63-31.19,4.58-49.79-23.25-.01,0-.01-.01-.01-.01"/>
        <path class="st17" d="M91.67,794.28s-1.55,1.32-3.53,3.86c-6.08,7.79-16.15,27.07,2.43,54.89,0,0,.69-11.98,9-17.53"/>
        <path class="st17" d="M115.13,858.79c6.43-4.3,8.16-12.99,3.87-19.43-4.3-6.43-13-8.16-19.43-3.86"/>
        <path class="st17" d="M1009.98,307.37s1.56-1.32,3.53-3.86c6.08-7.79,16.16-27.07-2.43-54.89,0,0-.69,11.98-9,17.53"/>
        <path class="st17" d="M1006.16,241.26s0,0-.01,0c-.41-.13-11.47-3.85-19.63,1.61"/>
        <path class="st17" d="M951.46,219.79s1.81-.93,4.91-1.79c9.52-2.63,31.19-4.57,49.78,23.25"/>
        <path class="st17" d="M1002.08,266.15c-6.43,4.3-15.13,2.57-19.43-3.86-4.29-6.44-2.56-15.13,3.87-19.43"/>
        <path class="st17" d="M147.99,222.47s-1.27-1.6-2.7-4.47c-4.45-8.83-10.58-29.7,13.09-53.36,0,0-1.67,11.88,5.4,18.95"/>
        <path class="st17" d="M222.47,147.99s-1.6-1.27-4.47-2.7c-8.83-4.45-29.7-10.58-53.36,13.09,0,0,11.88-1.67,18.95,5.4"/>
        <path class="st17" d="M163.78,183.59c5.47,5.47,14.34,5.47,19.81,0s5.47-14.34,0-19.81"/>
        <path class="st17" d="M879.18,953.66s1.6,1.27,4.47,2.71c8.82,4.44,29.69,10.58,53.36-13.09,0,0-11.88,1.66-18.94-5.41"/>
        <path class="st17" d="M953.66,879.18s1.27,1.6,2.71,4.47c4.44,8.82,10.58,29.69-13.09,53.36,0,0,1.66-11.88-5.41-18.94"/>
        <path class="st17" d="M918.07,937.87c-5.47-5.47-5.47-14.33,0-19.8s14.33-5.47,19.8,0"/>
        <path class="st17" d="M222.47,953.66s-1.6,1.27-4.47,2.71c-8.82,4.44-29.69,10.58-53.36-13.09,0,0,11.88,1.66,18.95-5.41"/>
        <path class="st17" d="M147.99,879.18s-1.27,1.6-2.7,4.47c-4.45,8.83-10.58,29.7,13.09,53.36,0,0-1.67-11.88,5.4-18.94"/>
        <path class="st17" d="M183.59,937.87c5.47-5.47,5.47-14.33,0-19.8s-14.34-5.47-19.81,0"/>
        <path class="st17" d="M953.66,222.47s1.27-1.6,2.71-4.47c4.44-8.82,10.58-29.69-13.09-53.36,0,0,1.66,11.88-5.41,18.95"/>
        <path class="st17" d="M879.18,147.99s1.6-1.27,4.47-2.7c8.83-4.45,29.7-10.58,53.36,13.09,0,0-11.88-1.67-18.94,5.4"/>
        <path class="st17" d="M937.87,183.59c-5.47,5.47-14.33,5.47-19.8,0s-5.47-14.34,0-19.81"/>
        <path class="st17" d="M91.67,307.37s-1.55-1.32-3.53-3.86c-6.08-7.79-16.15-27.07,2.43-54.89,0,0,.69,11.98,9,17.53"/>
        <path class="st17" d="M95.49,241.26h.01c.41-.14,11.47-3.86,19.63,1.6"/>
        <path class="st17" d="M150.19,219.79s-1.81-.93-4.9-1.79c-9.51-2.63-31.19-4.58-49.79,23.25"/>
        <path class="st17" d="M99.57,266.15c6.43,4.3,15.13,2.57,19.43-3.86,4.29-6.44,2.56-15.13-3.87-19.43"/>
        <path class="st17" d="M1006.16,860.39s0,.01-.01.01c-.41.13-11.47,3.85-19.63-1.61"/>
        <path class="st17" d="M951.46,881.86s1.81.93,4.91,1.79c9.52,2.63,31.19,4.57,49.78-23.25"/>
        <path class="st17" d="M1009.98,794.28s1.56,1.32,3.53,3.86c6.08,7.79,16.16,27.07-2.43,54.89,0,0-.69-11.98-9-17.53"/>
        <path class="st17" d="M986.52,858.79c-6.43-4.3-8.16-12.99-3.87-19.43,4.3-6.43,13-8.16,19.43-3.86"/>
        <path class="st17" d="M307.37,1009.98s-1.32,1.56-3.86,3.53c-7.79,6.08-27.07,16.16-54.89-2.43,0,0,11.98-.69,17.53-9"/>
        <path class="st17" d="M241.26,1006.16s0,0,0-.01c-.13-.41-3.85-11.47,1.61-19.63"/>
        <path class="st17" d="M219.79,951.46s-.93,1.81-1.79,4.91c-2.63,9.52-4.57,31.19,23.25,49.78"/>
        <path class="st17" d="M266.15,1002.08c4.3-6.43,2.57-15.13-3.86-19.43-6.44-4.29-15.13-2.56-19.43,3.87"/>
        <path class="st17" d="M860.4,95.5c.13.41,3.85,11.47-1.61,19.63"/>
        <path class="st17" d="M881.86,150.19s.93-1.81,1.79-4.9c2.63-9.51,4.58-31.19-23.25-49.79,0-.01-.01-.01-.01-.01"/>
        <path class="st17" d="M794.28,91.67s1.32-1.55,3.86-3.53c7.79-6.08,27.07-16.15,54.89,2.43,0,0-11.98.69-17.53,9"/>
        <path class="st17" d="M858.79,115.13c-4.3,6.43-12.99,8.16-19.43,3.87-6.43-4.3-8.16-13-3.86-19.43"/>
        <path class="st17" d="M53,401.62s-1.78-.99-4.21-3.09c-7.48-6.44-21.14-23.38-8.33-54.31,0,0,3.01,11.61,12.24,15.44"/>
        <path class="st17" d="M93.31,304.31s-1.96-.56-5.17-.8c-9.85-.72-31.48,1.61-44.29,32.53,0,0,10.34-6.09,19.57-2.26"/>
        <path class="st17" d="M52.7,359.66c7.15,2.96,15.34-.44,18.3-7.58,2.96-7.15-.43-15.34-7.58-18.3"/>
        <path class="st17" d="M1008.35,797.34s1.95.56,5.16.8c9.85.72,31.48-1.6,44.29-32.53,0,0-10.34,6.09-19.57,2.27"/>
        <path class="st17" d="M1048.65,700.03s1.78.99,4.21,3.09c7.48,6.44,21.14,23.38,8.33,54.31,0,0-3.01-11.61-12.24-15.44"/>
        <path class="st17" d="M1038.23,767.88c-7.15-2.96-10.54-11.16-7.58-18.31,2.96-7.14,11.15-10.54,18.3-7.58"/>
        <path class="st17" d="M401.62,1048.65s-.99,1.78-3.09,4.21c-6.44,7.48-23.38,21.14-54.31,8.33,0,0,11.61-3.01,15.44-12.24"/>
        <path class="st17" d="M304.31,1008.35s-.56,1.95-.8,5.16c-.72,9.85,1.6,31.48,32.53,44.29,0,0-6.09-10.34-2.26-19.57"/>
        <path class="st17" d="M359.66,1048.95c2.96-7.15-.44-15.34-7.58-18.3-7.15-2.96-15.34.43-18.3,7.58"/>
        <path class="st17" d="M797.34,93.31s.56-1.96.8-5.17c.72-9.85-1.61-31.48-32.53-44.29,0,0,6.09,10.34,2.27,19.57"/>
        <path class="st17" d="M700.03,53s.99-1.78,3.09-4.21c6.44-7.48,23.38-21.14,54.31-8.33,0,0-11.61,3.01-15.44,12.24"/>
        <path class="st17" d="M767.88,63.42c-2.96,7.15-11.16,10.54-18.31,7.58-7.14-2.96-10.54-11.15-7.58-18.3"/>
        <path class="st17" d="M33.79,498.16s-2.02.23-5.07,1.24c-9.37,3.1-28.47,13.52-28.47,47"/>
        <path class="st17" d="M33.45,501.61s-1.94-.62-4.73-2.21c-8.59-4.87-25.29-18.81-18.76-51.64,0,0,5.21,10.8,15.02,12.75"/>
        <path class="st17" d="M54,398.3s-2.02-.17-5.21.23c-9.8,1.21-30.57,7.69-37.1,40.54,0,0,8.95-7.99,18.75-6.04"/>
        <path class="st17" d="M24.98,460.51c7.59,1.51,14.96-3.42,16.47-11.01,1.51-7.58-3.42-14.96-11.01-16.47"/>
        <path class="st17" d="M1047.65,703.35s2.02.17,5.21-.23c9.8-1.21,30.57-7.69,37.1-40.54,0,0-8.95,7.99-18.75,6.04"/>
        <path class="st17" d="M1068.2,600.04s1.94.62,4.73,2.21c8.59,4.87,25.29,18.81,18.76,51.65,0,0-5.21-10.81-15.02-12.76"/>
        <path class="st17" d="M1071.21,668.62c-7.59-1.51-12.52-8.89-11.01-16.47,1.51-7.59,8.89-12.52,16.47-11.01"/>
        <path class="st17" d="M501.61,1068.2s-.62,1.94-2.21,4.73c-4.87,8.59-18.81,25.29-51.64,18.76,0,0,10.8-5.21,12.75-15.02"/>
        <path class="st17" d="M398.3,1047.65s-.17,2.02.23,5.21c1.21,9.8,7.69,30.57,40.54,37.1,0,0-7.99-8.95-6.04-18.75"/>
        <path class="st17" d="M460.51,1076.67c1.51-7.58-3.42-14.96-11.01-16.47-7.58-1.51-14.96,3.42-16.47,11.01"/>
        <path class="st17" d="M703.35,54s.17-2.02-.23-5.21c-1.21-9.8-7.69-30.57-40.54-37.1,0,0,7.99,8.95,6.04,18.75"/>
        <path class="st17" d="M600.04,33.45s.62-1.94,2.21-4.73c4.87-8.59,18.81-25.29,51.65-18.76,0,0-10.81,5.21-12.76,15.02"/>
        <path class="st17" d="M668.62,30.44c-1.51,7.59-8.89,12.52-16.47,11.01-7.59-1.51-12.52-8.88-11.01-16.47"/>
        <path class="st11" d="M550.83,53.33c-274.77,0-497.5,222.73-497.5,497.5s222.73,497.5,497.5,497.5,497.5-222.74,497.5-497.5S825.59,53.33,550.83,53.33Z"/>
      </g>
    </g>
  </g>
  <g id="Layer_10_copy">
    <path class="st7" d="M529.94,588.4s-34.25,14.51-37.93,51.45c0,0-14.76-10.03-9.04-31.47,0,0-20.01,10.46-31.42,1.79-2.3-14.15,16.33-26.91,16.33-26.91-21.62-5.01-23.54-22.76-23.54-22.76,34.34,14.09,63.23-9.34,63.23-9.34v-.33s-28.89-23.43-63.23-9.34c0,0,1.92-17.74,23.54-22.76,0,0-18.63-12.76-16.33-26.91,11.41-8.67,31.42,1.79,31.42,1.79-5.72-21.44,9.04-31.47,9.04-31.47,3.69,36.93,37.93,51.45,37.93,51.45l-.83,1.83s5.2-36.83-24.56-59.01c0,0,16.2-7.49,31.63,8.46,0,0,1.34-22.54,14.65-27.86,13.31,5.31,14.65,27.86,14.65,27.86,15.43-15.95,31.63-8.46,31.63-8.46-29.76,22.18-24.56,59.01-24.56,59.01,0,0-5.2-36.83,24.56-59.01,0,0-16.2-7.49-31.63,8.46,0,0-1.34-22.54-14.65-27.86-13.31,5.31-14.65,27.86-14.65,27.86-15.43-15.95-31.63-8.46-31.63-8.46,29.76,22.18,24.56,59.01,24.56,59.01,0,0,5.2-36.83-24.56-59.01,0,0,16.2-7.49,31.63,8.46,0,0,1.34-22.54,14.65-27.86,13.31,5.31,14.65,27.86,14.65,27.86,15.43-15.95,31.63-8.46,31.63-8.46-29.76,22.18-24.56,59.01-24.56,59.01l-.83-1.83s34.25-14.51,37.93-51.45c0,0,14.76,10.03,9.04,31.47,0,0,20.01-10.46,31.42-1.79,2.3,14.15-16.33,26.91-16.33,26.91,21.62,5.01,23.54,22.76,23.54,22.76-34.34-14.09-63.23,9.34-63.23,9.34v.33s28.89,23.43,63.23,9.34c0,0-1.92,17.74-23.54,22.76,0,0,18.63,12.76,16.33,26.91-11.41,8.67-31.42-1.79-31.42-1.79,5.72,21.44-9.04,31.47-9.04,31.47-3.69-36.93-37.93-51.45-37.93-51.45l.83-1.83s-5.2,36.83,24.56,59.01c0,0-16.2,7.49-31.63-8.46,0,0-1.34,22.54-14.65,27.86-13.31-5.31-14.65-27.86-14.65-27.86-15.43,15.95-31.63,8.46-31.63,8.46,29.76-22.18,24.56-59.01,24.56-59.01,0,0,5.2,36.83-24.56,59.01,0,0,16.2,7.49,31.63-8.46,0,0,1.34,22.54,14.65,27.86,13.31-5.31,14.65-27.86,14.65-27.86,15.43,15.95,31.63,8.46,31.63,8.46-29.76-22.18-24.56-59.01-24.56-59.01,0,0-5.2,36.83,24.56,59.01,0,0-16.2,7.49-31.63-8.46,0,0-1.34,22.54-14.65,27.86-13.31-5.31-14.65-27.86-14.65-27.86-15.43,15.95-31.63,8.46-31.63,8.46,29.76-22.18,24.56-59.01,24.56-59.01"/>
    <circle class="st2" cx="550.83" cy="551.28" r="19.56"/>
  </g>
  <g id="Layer_11_copy_3">
    <g>
      <g>
        <g>
          <path class="st14" d="M277.28,349.29s-3.19,16.39,14.68,9.45c0,0-17.65,40.54-39.62,12.27,0,0-12.39,8.52-14.93-6.04l-.71-17.82,40.57,2.14h.01Z"/>
          <path class="st15" d="M247.07,407.48c-16.54,10.39-9.13,22.47-9.13,22.47,6.97-7.83,21.41-8.51,21.41-8.51,70.19-5.93,75.96-45.97,75.96-45.97,0,0-17.94,18.61-53.75,19.38-20.88.45-40.08-7.99-58.91-17.04-31.7-15.24-84.94-40.42-112-7.61,0,0,35.75-9.85,53.59,5.36l2.92-2.47c-8.45,1.8-17.92,8.12-16.31,17.95,8.18-4.34,18.29-1.98,26.78.03,9.63,2.27,19.03,4.35,28.96,4.69l-5.09-.78c-7.88,3.77-15.55,12-11.61,21.29,4.86-4.12,10.89-6.13,17.6-6.13,16.09,0,31.5-.67,46.64-4.73"/>
          <g>
            <path class="st14" d="M341.16,285.41s16.39-3.19,9.45,14.68c0,0,40.54-17.65,12.27-39.62,0,0,8.52-12.39-6.04-14.93l-17.82-.71,2.14,40.57h0Z"/>
            <path class="st15" d="M399.35,255.2c10.39-16.54,22.47-9.13,22.47-9.13-7.83,6.97-8.51,21.41-8.51,21.41-5.93,70.19-45.97,75.96-45.97,75.96,0,0,18.61-17.94,19.38-53.75.45-20.88-7.99-40.08-17.04-58.91-15.24-31.7-40.42-84.94-7.61-112,0,0-9.85,35.75,5.36,53.59l-2.47,2.92c1.8-8.45,8.12-17.92,17.95-16.31-4.34,8.18-1.98,18.29.03,26.78,2.27,9.63,4.35,19.03,4.69,28.96l-.78-5.09c3.77-7.88,12-15.55,21.29-11.61-4.12,4.86-6.13,10.89-6.13,17.6,0,16.09-.67,31.5-4.73,46.64"/>
          </g>
          <path class="st2" d="M247.39,235.14c25.38-25.38,63.35-28.56,84.81-7.1,21.46,21.46,18.28,59.43-7.1,84.81l-20.35,20.35c-25.38,25.38-63.35,28.56-84.81,7.1s-18.28-59.43,7.1-84.81l-11.08,14.99c-8.81-5.71-18.79-.02-22.71,6.78-3.44-9.93-.33-20.78,10.51-23.97-8.57-5.84-4.79-18.98,5.51-19.44-6.33-6.33-2.75-19.23-2.75-19.23,0,0,12.9-3.58,19.23,2.75.46-10.3,13.6-14.08,19.44-5.51,3.19-10.84,14.04-13.95,23.97-10.51-6.8,3.91-12.5,13.9-6.78,22.71"/>
        </g>
        <path class="st7" d="M228.21,290.14c26.25-1.62,22.6,22.6,22.6,22.6,0,0-24.22,3.65-22.6-22.6Z"/>
        <path class="st7" d="M246.16,272.2c26.25-1.62,22.6,22.6,22.6,22.6,0,0-24.22,3.65-22.6-22.6Z"/>
        <path class="st7" d="M264.1,254.25c26.25-1.62,22.6,22.6,22.6,22.6,0,0-24.22,3.65-22.6-22.6Z"/>
        <path class="st7" d="M282.05,236.31c26.25-1.62,22.6,22.6,22.6,22.6,0,0-24.22,3.65-22.6-22.6Z"/>
        <path class="st7" d="M259.78,303.76c26.25-1.62,22.6,22.6,22.6,22.6,0,0-24.22,3.65-22.6-22.6Z"/>
        <path class="st7" d="M277.73,285.82c26.25-1.62,22.6,22.6,22.6,22.6,0,0-24.22,3.65-22.6-22.6Z"/>
        <path class="st7" d="M295.67,267.88c26.25-1.62,22.6,22.6,22.6,22.6,0,0-24.22,3.65-22.6-22.6Z"/>
      </g>
      <g>
        <g>
          <path class="st14" d="M824.38,349.29s3.19,16.39-14.68,9.45c0,0,17.65,40.54,39.62,12.27,0,0,12.39,8.52,14.93-6.04l.71-17.82-40.57,2.14h-.01Z"/>
          <path class="st15" d="M854.59,407.48c16.54,10.39,9.13,22.47,9.13,22.47-6.97-7.83-21.41-8.51-21.41-8.51-70.19-5.93-75.96-45.97-75.96-45.97,0,0,17.94,18.61,53.75,19.38,20.88.45,40.08-7.99,58.91-17.04,31.7-15.24,84.94-40.42,112-7.61,0,0-35.75-9.85-53.59,5.36l-2.92-2.47c8.45,1.8,17.92,8.12,16.31,17.95-8.18-4.34-18.29-1.98-26.78.03-9.63,2.27-19.03,4.35-28.96,4.69l5.09-.78c7.88,3.77,15.55,12,11.61,21.29-4.86-4.12-10.89-6.13-17.6-6.13-16.09,0-31.5-.67-46.64-4.73"/>
          <g>
            <path class="st14" d="M760.5,285.41s-16.39-3.19-9.45,14.68c0,0-40.54-17.65-12.27-39.62,0,0-8.52-12.39,6.04-14.93l17.82-.71-2.14,40.57h0Z"/>
            <path class="st15" d="M702.31,255.2c-10.39-16.54-22.47-9.13-22.47-9.13,7.83,6.97,8.51,21.41,8.51,21.41,5.93,70.19,45.97,75.96,45.97,75.96,0,0-18.61-17.94-19.38-53.75-.45-20.88,7.99-40.08,17.04-58.91,15.24-31.7,40.42-84.94,7.61-112,0,0,9.85,35.75-5.36,53.59l2.47,2.92c-1.8-8.45-8.12-17.92-17.95-16.31,4.34,8.18,1.98,18.29-.03,26.78-2.27,9.63-4.35,19.03-4.69,28.96l.78-5.09c-3.77-7.88-12-15.55-21.29-11.61,4.12,4.86,6.13,10.89,6.13,17.6,0,16.09.67,31.5,4.73,46.64"/>
          </g>
          <path class="st2" d="M854.27,235.14c-25.38-25.38-63.35-28.56-84.81-7.1-21.46,21.46-18.28,59.43,7.1,84.81l20.35,20.35c25.38,25.38,63.35,28.56,84.81,7.1s18.28-59.43-7.1-84.81l11.08,14.99c8.81-5.71,18.79-.02,22.71,6.78,3.44-9.93.33-20.78-10.51-23.97,8.57-5.84,4.79-18.98-5.51-19.44,6.33-6.33,2.75-19.23,2.75-19.23,0,0-12.9-3.58-19.23,2.75-.46-10.3-13.6-14.08-19.44-5.51-3.19-10.84-14.04-13.95-23.97-10.51,6.8,3.91,12.5,13.9,6.78,22.71"/>
        </g>
        <path class="st7" d="M873.45,290.14c-26.25-1.62-22.6,22.6-22.6,22.6,0,0,24.22,3.65,22.6-22.6Z"/>
        <path class="st7" d="M855.5,272.2c-26.25-1.62-22.6,22.6-22.6,22.6,0,0,24.22,3.65,22.6-22.6Z"/>
        <path class="st7" d="M837.56,254.25c-26.25-1.62-22.6,22.6-22.6,22.6,0,0,24.22,3.65,22.6-22.6Z"/>
        <path class="st7" d="M819.61,236.31c-26.25-1.62-22.6,22.6-22.6,22.6,0,0,24.22,3.65,22.6-22.6Z"/>
        <path class="st7" d="M841.88,303.76c-26.25-1.62-22.6,22.6-22.6,22.6,0,0,24.22,3.65,22.6-22.6Z"/>
        <path class="st7" d="M823.93,285.82c-26.25-1.62-22.6,22.6-22.6,22.6,0,0,24.22,3.65,22.6-22.6Z"/>
        <path class="st7" d="M805.99,267.88c-26.25-1.62-22.6,22.6-22.6,22.6,0,0,24.22,3.65,22.6-22.6Z"/>
      </g>
      <g>
        <g>
          <path class="st14" d="M349.29,824.38s16.39,3.19,9.45-14.68c0,0,40.54,17.65,12.27,39.62,0,0,8.52,12.39-6.04,14.93l-17.82.71,2.14-40.57h0Z"/>
          <path class="st15" d="M407.48,854.59c10.39,16.54,22.47,9.13,22.47,9.13-7.83-6.97-8.51-21.41-8.51-21.41-5.93-70.19-45.97-75.96-45.97-75.96,0,0,18.61,17.94,19.38,53.75.45,20.88-7.99,40.08-17.04,58.91-15.24,31.7-40.42,84.94-7.61,112,0,0-9.85-35.75,5.36-53.59l-2.47-2.92c1.8,8.45,8.12,17.92,17.95,16.31-4.34-8.18-1.98-18.29.03-26.78,2.27-9.63,4.35-19.03,4.69-28.96l-.78,5.09c3.77,7.88,12,15.55,21.29,11.61-4.12-4.86-6.13-10.89-6.13-17.6,0-16.09-.67-31.5-4.73-46.64"/>
          <g>
            <path class="st14" d="M285.41,760.5s-3.19-16.39,14.68-9.45c0,0-17.65-40.54-39.62-12.27,0,0-12.39-8.52-14.93,6.04l-.71,17.82,40.57-2.14h.01Z"/>
            <path class="st15" d="M255.2,702.31c-16.54-10.39-9.13-22.47-9.13-22.47,6.97,7.83,21.41,8.51,21.41,8.51,70.19,5.93,75.96,45.97,75.96,45.97,0,0-17.94-18.61-53.75-19.38-20.88-.45-40.08,7.99-58.91,17.04-31.7,15.24-84.94,40.42-112,7.61,0,0,35.75,9.85,53.59-5.36l2.92,2.47c-8.45-1.8-17.92-8.12-16.31-17.95,8.18,4.34,18.29,1.98,26.78-.03,9.63-2.27,19.03-4.35,28.96-4.69l-5.09.78c-7.88-3.77-15.55-12-11.61-21.29,4.86,4.12,10.89,6.13,17.6,6.13,16.09,0,31.5.67,46.64,4.73"/>
          </g>
          <path class="st2" d="M235.14,854.27c-25.38-25.38-28.56-63.35-7.1-84.81,21.46-21.46,59.43-18.28,84.81,7.1l20.35,20.35c25.38,25.38,28.56,63.35,7.1,84.81s-59.43,18.28-84.81-7.1l14.99,11.08c-5.71,8.81-.02,18.79,6.78,22.71-9.93,3.44-20.78.33-23.97-10.51-5.84,8.57-18.98,4.79-19.44-5.51-6.33,6.33-19.23,2.75-19.23,2.75,0,0-3.58-12.9,2.75-19.23-10.3-.46-14.08-13.6-5.51-19.44-10.84-3.19-13.95-14.04-10.51-23.97,3.91,6.8,13.9,12.5,22.71,6.78"/>
        </g>
        <path class="st7" d="M290.14,873.45c-1.62-26.25,22.6-22.6,22.6-22.6,0,0,3.65,24.22-22.6,22.6Z"/>
        <path class="st7" d="M272.2,855.5c-1.62-26.25,22.6-22.6,22.6-22.6,0,0,3.65,24.22-22.6,22.6Z"/>
        <path class="st7" d="M254.25,837.56c-1.62-26.25,22.6-22.6,22.6-22.6,0,0,3.65,24.22-22.6,22.6Z"/>
        <path class="st7" d="M236.31,819.61c-1.62-26.25,22.6-22.6,22.6-22.6,0,0,3.65,24.22-22.6,22.6Z"/>
        <path class="st7" d="M303.76,841.88c-1.62-26.25,22.6-22.6,22.6-22.6,0,0,3.65,24.22-22.6,22.6Z"/>
        <path class="st7" d="M285.82,823.93c-1.62-26.25,22.6-22.6,22.6-22.6,0,0,3.65,24.22-22.6,22.6Z"/>
        <path class="st7" d="M267.88,805.99c-1.62-26.25,22.6-22.6,22.6-22.6,0,0,3.65,24.22-22.6,22.6Z"/>
      </g>
      <g>
        <g>
          <path class="st14" d="M752.38,824.38s-16.39,3.19-9.45-14.68c0,0-40.54,17.65-12.27,39.62,0,0-8.52,12.39,6.04,14.93l17.82.71-2.14-40.57h0Z"/>
          <path class="st15" d="M694.18,854.59c-10.39,16.54-22.47,9.13-22.47,9.13,7.83-6.97,8.51-21.41,8.51-21.41,5.93-70.19,45.97-75.96,45.97-75.96,0,0-18.61,17.94-19.38,53.75-.45,20.88,7.99,40.08,17.04,58.91,15.24,31.7,40.42,84.94,7.61,112,0,0,9.85-35.75-5.36-53.59l2.47-2.92c-1.8,8.45-8.12,17.92-17.95,16.31,4.34-8.18,1.98-18.29-.03-26.78-2.27-9.63-4.35-19.03-4.69-28.96l.78,5.09c-3.77,7.88-12,15.55-21.29,11.61,4.12-4.86,6.13-10.89,6.13-17.6,0-16.09.67-31.5,4.73-46.64"/>
          <g>
            <path class="st14" d="M816.25,760.5s3.19-16.39-14.68-9.45c0,0,17.65-40.54,39.62-12.27,0,0,12.39-8.52,14.93,6.04l.71,17.82-40.57-2.14h-.01Z"/>
            <path class="st15" d="M846.46,702.31c16.54-10.39,9.13-22.47,9.13-22.47-6.97,7.83-21.41,8.51-21.41,8.51-70.19,5.93-75.96,45.97-75.96,45.97,0,0,17.94-18.61,53.75-19.38,20.88-.45,40.08,7.99,58.91,17.04,31.7,15.24,84.94,40.42,112,7.61,0,0-35.75,9.85-53.59-5.36l-2.92,2.47c8.45-1.8,17.92-8.12,16.31-17.95-8.18,4.34-18.29,1.98-26.78-.03-9.63-2.27-19.03-4.35-28.96-4.69l5.09.78c7.88-3.77,15.55-12,11.61-21.29-4.86,4.12-10.89,6.13-17.6,6.13-16.09,0-31.5.67-46.64,4.73"/>
          </g>
          <path class="st2" d="M866.52,854.27c25.38-25.38,28.56-63.35,7.1-84.81s-59.43-18.28-84.81,7.1l-20.35,20.35c-25.38,25.38-28.56,63.35-7.1,84.81s59.43,18.28,84.81-7.1l-14.99,11.08c5.71,8.81.02,18.79-6.78,22.71,9.93,3.44,20.78.33,23.97-10.51,5.84,8.57,18.98,4.79,19.44-5.51,6.33,6.33,19.23,2.75,19.23,2.75,0,0,3.58-12.9-2.75-19.23,10.3-.46,14.08-13.6,5.51-19.44,10.84-3.19,13.95-14.04,10.51-23.97-3.91,6.8-13.9,12.5-22.71,6.78"/>
        </g>
        <path class="st7" d="M811.52,873.45c1.62-26.25-22.6-22.6-22.6-22.6,0,0-3.65,24.22,22.6,22.6Z"/>
        <path class="st7" d="M829.46,855.5c1.62-26.25-22.6-22.6-22.6-22.6,0,0-3.65,24.22,22.6,22.6Z"/>
        <path class="st7" d="M847.41,837.56c1.62-26.25-22.6-22.6-22.6-22.6,0,0-3.65,24.22,22.6,22.6Z"/>
        <path class="st7" d="M865.35,819.61c1.62-26.25-22.6-22.6-22.6-22.6,0,0-3.65,24.22,22.6,22.6Z"/>
        <path class="st7" d="M797.9,841.88c1.62-26.25-22.6-22.6-22.6-22.6,0,0-3.65,24.22,22.6,22.6Z"/>
        <path class="st7" d="M815.84,823.93c1.62-26.25-22.6-22.6-22.6-22.6,0,0-3.65,24.22,22.6,22.6Z"/>
        <path class="st7" d="M833.78,805.99c1.62-26.25-22.6-22.6-22.6-22.6,0,0-3.65,24.22,22.6,22.6Z"/>
      </g>
      <g>
        <path class="st16" d="M558.67,252c3.17,4.4,3.73,12.33-7.81,26.3-11.48-13.89-11.05-21.81-8-26.22,3.85-5.56,11.85-5.56,15.81-.08h0Z"/>
        <g>
          <path class="st16" d="M502.63,259.32c-6.24,1.4-10.35,4.06-10.68,4.23-5.57,2.94-8.46,9.98-5.38,15.58,4.9,8.88,14.19,6.98,14.19,6.98,5.98,21.3,25.73,18.59,25.73,18.59-20.13-31.13,9.05-45.62,14.11-47.84.26-.12.65-4.53.38-4.63"/>
          <path class="st16" d="M528.46,235.32c-51.5-9.6-71.71,31.04-71.71,31.04,14.24-23.94,56.45,10.64,87.47-18.53"/>
          <path class="st16" d="M525.5,212.84c-12.62-11.16-51.4-25.76-74.58-11.75-6.57,3.28-14.03,12.98-6.94,19.78-11.83,4.6-7.99,23.72,5.97,21.5-3.71,5.27-3.76,18.48,6.79,23.99,0,0,20.21-40.64,71.71-31.04"/>
          <path class="st16" d="M599.03,259.32c6.24,1.4,10.35,4.06,10.68,4.23,5.57,2.94,8.46,9.98,5.38,15.58-4.9,8.88-14.19,6.98-14.19,6.98-5.98,21.3-25.73,18.59-25.73,18.59,20.13-31.13-9.05-45.62-14.11-47.84-.26-.12-.65-4.53-.38-4.63"/>
          <path class="st16" d="M573.2,235.32c51.5-9.6,71.71,31.04,71.71,31.04-14.24-23.94-56.45,10.64-87.47-18.53"/>
          <path class="st16" d="M576.16,212.84c12.62-11.16,51.4-25.76,74.58-11.75,6.57,3.28,14.03,12.98,6.94,19.78,11.83,4.6,7.99,23.72-5.97,21.5,3.71,5.27,3.76,18.48-6.79,23.99,0,0-20.21-40.64-71.71-31.04"/>
        </g>
        <path id="side" class="st5" d="M540.1,192.05c.03-1.58-22.93-52.59-59.72-59.3-11.04-1.78-18.14,1.64-18.02,13.83-14.2-4.82-21.88,15.17-8.1,21.1,0,0-22.07,6.34-11.15,30.01,0,0,26.98-34.9,84.09,8.65"/>
        <path id="side-2" class="st5" d="M574.47,206.35c57.11-43.55,84.09-8.65,84.09-8.65,10.92-23.67-11.15-30.01-11.15-30.01,13.78-5.93,6.1-25.92-8.1-21.1.12-12.19-6.98-15.61-18.02-13.83-36.79,6.71-59.76,57.71-59.72,59.3"/>
        <path id="flower" class="st3" d="M561.56,192.05c-1.46-69.14,65.56-68.34,65.56-68.34,0,0-17.82-24.33-42.61-9.96,0,0,4.91-6.62,3.57-13.61-.87-4.5-5.29-7.98-9.87-7.99-9.35-.02-14.98,10.19-14.98,10.19,0,0,1.28-18.46-8.12-26.56-2.29-1.97-5.63-1.98-7.93-.02-9.53,8.09-8.74,26.58-8.74,26.58,0,0-5.62-10.21-14.98-10.19-4.58.01-9.01,3.49-9.87,7.99-1.34,6.98,3.57,13.61,3.57,13.61-24.8-14.37-42.61,9.96-42.61,9.96,0,0,67.01-.8,65.56,68.34"/>
        <ellipse class="st12" cx="550.83" cy="219.4" rx="27" ry="28.44"/>
        <path class="st6" d="M558.52,219.37c3.17,4.4,3.73,12.33-7.81,26.3-11.48-13.89-11.05-21.81-8-26.22,3.85-5.56,11.85-5.56,15.81-.08Z"/>
      </g>
      <g>
        <path class="st9" d="M252,542.99c4.4-3.17,12.33-3.73,26.3,7.81-13.89,11.48-21.81,11.05-26.22,8-5.56-3.85-5.56-11.85-.08-15.81h0Z"/>
        <g>
          <path class="st9" d="M259.32,599.03c1.4,6.24,4.06,10.35,4.23,10.68,2.94,5.57,9.98,8.46,15.58,5.38,8.88-4.9,6.98-14.19,6.98-14.19,21.3-5.98,18.59-25.73,18.59-25.73-31.13,20.13-45.62-9.05-47.84-14.11-.12-.26-4.53-.65-4.63-.38"/>
          <path class="st9" d="M235.32,573.2c-9.6,51.5,31.04,71.71,31.04,71.71-23.94-14.24,10.64-56.45-18.53-87.47"/>
          <path class="st5" d="M212.84,576.16c-11.16,12.62-25.76,51.4-11.75,74.58,3.28,6.57,12.98,14.03,19.78,6.94,4.6,11.83,23.72,7.99,21.5-5.97,5.27,3.71,18.48,3.76,23.99-6.79,0,0-40.64-20.21-31.04-71.71"/>
          <path class="st9" d="M259.32,502.63c1.4-6.24,4.06-10.35,4.23-10.68,2.94-5.57,9.98-8.46,15.58-5.38,8.88,4.9,6.98,14.19,6.98,14.19,21.3,5.98,18.59,25.73,18.59,25.73-31.13-20.13-45.62,9.05-47.84,14.11-.12.26-4.53.65-4.63.38"/>
          <path class="st9" d="M235.32,528.46c-9.6-51.5,31.04-71.71,31.04-71.71-23.94,14.24,10.64,56.45-18.53,87.47"/>
          <path class="st5" d="M212.84,525.5c-11.16-12.62-25.76-51.4-11.75-74.58,3.28-6.57,12.98-14.03,19.78-6.94,4.6-11.83,23.72-7.99,21.5,5.97,5.27-3.71,18.48-3.76,23.99,6.79,0,0-40.64,20.21-31.04,71.71"/>
        </g>
        <path id="side-3" class="st4" d="M192.05,561.56c-1.58-.03-52.59,22.93-59.3,59.72-1.78,11.04,1.64,18.14,13.83,18.02-4.82,14.2,15.17,21.88,21.1,8.1,0,0,6.34,22.07,30.01,11.15,0,0-34.9-26.98,8.65-84.09"/>
        <path id="side-4" class="st4" d="M206.35,527.19c-43.55-57.11-8.65-84.09-8.65-84.09-23.67-10.92-30.01,11.15-30.01,11.15-5.93-13.78-25.92-6.1-21.1,8.1-12.19-.12-15.61,6.98-13.83,18.02,6.71,36.79,57.71,59.76,59.3,59.72"/>
        <path id="flower-2" class="st10" d="M192.05,540.1c-69.14,1.46-68.34-65.56-68.34-65.56,0,0-24.33,17.82-9.96,42.61,0,0-6.62-4.91-13.61-3.57-4.5.87-7.98,5.29-7.99,9.87-.02,9.35,10.19,14.98,10.19,14.98,0,0-18.8-1.3-26.78,8.38-1.76,2.13-1.76,5.27-.02,7.42,7.97,9.8,26.8,9,26.8,9,0,0-10.21,5.62-10.19,14.98.01,4.58,3.49,9.01,7.99,9.87,6.98,1.34,13.61-3.57,13.61-3.57-14.37,24.8,9.96,42.61,9.96,42.61,0,0-.8-67.01,68.34-65.56"/>
        <ellipse class="st4" cx="219.4" cy="550.83" rx="28.44" ry="27"/>
        <path class="st5" d="M219.37,543.14c4.4-3.17,12.33-3.73,26.3,7.81-13.89,11.48-21.81,11.05-26.22,8-5.56-3.85-5.56-11.85-.08-15.81Z"/>
      </g>
      <g>
        <path class="st8" d="M849.67,542.99c-4.4-3.17-12.33-3.73-26.3,7.81,13.89,11.48,21.81,11.05,26.22,8,5.56-3.85,5.56-11.85.08-15.81Z"/>
        <g>
          <path class="st8" d="M842.34,599.03c-1.4,6.24-4.06,10.35-4.23,10.68-2.94,5.57-9.98,8.46-15.58,5.38-8.88-4.9-6.98-14.19-6.98-14.19-21.3-5.98-18.59-25.73-18.59-25.73,31.13,20.13,45.62-9.05,47.84-14.11.12-.26,4.53-.65,4.63-.38"/>
          <path class="st8" d="M866.34,573.2c9.6,51.5-31.04,71.71-31.04,71.71,23.94-14.24-10.64-56.45,18.53-87.47"/>
          <path class="st5" d="M888.82,576.16c11.16,12.62,25.76,51.4,11.75,74.58-3.28,6.57-12.98,14.03-19.78,6.94-4.6,11.83-23.72,7.99-21.5-5.97-5.27,3.71-18.48,3.76-23.99-6.79,0,0,40.64-20.21,31.04-71.71"/>
          <path class="st8" d="M842.34,502.63c-1.4-6.24-4.06-10.35-4.23-10.68-2.94-5.57-9.98-8.46-15.58-5.38-8.88,4.9-6.98,14.19-6.98,14.19-21.3,5.98-18.59,25.73-18.59,25.73,31.13-20.13,45.62,9.05,47.84,14.11.12.26,4.53.65,4.63.38"/>
          <path class="st8" d="M866.34,528.46c9.6-51.5-31.04-71.71-31.04-71.71,23.94,14.24-10.64,56.45,18.53,87.47"/>
          <path class="st5" d="M888.82,525.5c11.16-12.62,25.76-51.4,11.75-74.58-3.28-6.57-12.98-14.03-19.78-6.94-4.6-11.83-23.72-7.99-21.5,5.97-5.27-3.71-18.48-3.76-23.99,6.79,0,0,40.64,20.21,31.04,71.71"/>
        </g>
        <path id="side-5" class="st3" d="M909.61,561.56c1.58-.03,52.59,22.93,59.3,59.72,1.78,11.04-1.64,18.14-13.83,18.02,4.82,14.2-15.17,21.88-21.1,8.1,0,0-6.34,22.07-30.01,11.15,0,0,34.9-26.98-8.65-84.09"/>
        <path id="side-6" class="st3" d="M895.31,527.19c43.55-57.11,8.65-84.09,8.65-84.09,23.67-10.92,30.01,11.15,30.01,11.15,5.93-13.78,25.92-6.1,21.1,8.1,12.19-.12,15.61,6.98,13.83,18.02-6.71,36.79-57.71,59.76-59.3,59.72"/>
        <path id="flower-3" class="st13" d="M909.61,540.1c69.14,1.46,68.34-65.56,68.34-65.56,0,0,24.33,17.82,9.96,42.61,0,0,6.62-4.91,13.61-3.57,4.5.87,7.98,5.29,7.99,9.87.02,9.35-10.19,14.98-10.19,14.98,0,0,18.79-1.3,26.77,8.37,1.76,2.14,1.77,5.28.02,7.43-7.97,9.8-26.79,9-26.79,9,0,0,10.21,5.62,10.19,14.98-.01,4.58-3.49,9.01-7.99,9.87-6.98,1.34-13.61-3.57-13.61-3.57,14.37,24.8-9.96,42.61-9.96,42.61,0,0,.8-67.01-68.34-65.56"/>
        <ellipse class="st3" cx="882.26" cy="550.83" rx="28.44" ry="27"/>
        <path class="st5" d="M882.29,543.14c-4.4-3.17-12.33-3.73-26.3,7.81,13.89,11.48,21.81,11.05,26.22,8,5.56-3.85,5.56-11.85.08-15.81Z"/>
      </g>
      <g>
        <path class="st12" d="M542.99,849.67c-3.17-4.4-3.73-12.33,7.81-26.3,11.48,13.89,11.05,21.81,8,26.22-3.85,5.56-11.85,5.56-15.81.08Z"/>
        <g>
          <path class="st3" d="M599.03,842.34c6.24-1.4,10.35-4.06,10.68-4.23,5.57-2.94,8.46-9.98,5.38-15.58-4.9-8.88-14.19-6.98-14.19-6.98-5.98-21.3-25.73-18.59-25.73-18.59,20.13,31.13-9.05,45.62-14.11,47.84-.26.12-.65,4.53-.38,4.63"/>
          <path class="st3" d="M573.2,866.34c51.5,9.6,71.71-31.04,71.71-31.04-14.24,23.94-56.45-10.64-87.47,18.53"/>
          <path class="st3" d="M576.16,888.82c12.62,11.16,51.4,25.76,74.58,11.75,6.57-3.28,14.03-12.98,6.94-19.78,11.83-4.6,7.99-23.72-5.97-21.5,3.71-5.27,3.76-18.48-6.79-23.99,0,0-20.21,40.64-71.71,31.04"/>
          <path class="st3" d="M502.63,842.34c-6.24-1.4-10.35-4.06-10.68-4.23-5.57-2.94-8.46-9.98-5.38-15.58,4.9-8.88,14.19-6.98,14.19-6.98,5.98-21.3,25.73-18.59,25.73-18.59-20.13,31.13,9.05,45.62,14.11,47.84.26.12.65,4.53.38,4.63"/>
          <path class="st3" d="M528.46,866.34c-51.5,9.6-71.71-31.04-71.71-31.04,14.24,23.94,56.45-10.64,87.47,18.53"/>
          <path class="st3" d="M525.5,888.82c-12.62,11.16-51.4,25.76-74.58,11.75-6.57-3.28-14.03-12.98-6.94-19.78-11.83-4.6-7.99-23.72,5.97-21.5-3.71-5.27-3.76-18.48,6.79-23.99,0,0,20.21,40.64,71.71,31.04"/>
        </g>
        <path id="side-7" class="st3" d="M561.56,909.61c-.03,1.58,22.93,52.59,59.72,59.3,11.04,1.78,18.14-1.64,18.02-13.83,14.2,4.82,21.88-15.17,8.1-21.1,0,0,22.07-6.34,11.15-30.01,0,0-26.98,34.9-84.09-8.65"/>
        <path id="side-8" class="st3" d="M527.19,895.31c-57.11,43.55-84.09,8.65-84.09,8.65-10.92,23.67,11.15,30.01,11.15,30.01-13.78,5.93-6.1,25.92,8.1,21.1-.12,12.19,6.98,15.61,18.02,13.83,36.79-6.71,59.76-57.71,59.72-59.3"/>
        <path id="flower-4" class="st3" d="M540.1,909.61c1.46,69.14-65.56,68.34-65.56,68.34,0,0,17.82,24.33,42.61,9.96,0,0-4.91,6.62-3.57,13.61.87,4.5,5.29,7.98,9.87,7.99,9.35.02,14.98-10.19,14.98-10.19,0,0-1.3,18.79,8.38,26.78,2.14,1.76,5.27,1.76,7.42.02,9.8-7.97,9-26.79,9-26.79,0,0,5.62,10.21,14.98,10.19,4.58-.01,9.01-3.49,9.87-7.99,1.34-6.98-3.57-13.61-3.57-13.61,24.8,14.37,42.61-9.96,42.61-9.96,0,0-67.01.8-65.56-68.34"/>
        <ellipse class="st12" cx="550.83" cy="882.26" rx="27" ry="28.44"/>
        <path class="st3" d="M543.14,882.29c-3.17-4.4-3.73-12.33,7.81-26.3,11.48,13.89,11.05,21.81,8,26.22-3.85,5.56-11.85,5.56-15.81.08Z"/>
      </g>
    </g>
  </g>
</svg>