<?xml version="1.0" encoding="UTF-8"?>
<svg id="Capa_1" xmlns="http://www.w3.org/2000/svg" xmlns:svg="http://www.w3.org/2000/svg" version="1.1" viewBox="0 0 512 512">
  <!-- Generator: Adobe Illustrator 29.5.1, SVG Export Plug-In . SVG Version: 2.1.0 Build 141)  -->
  <defs>
    <style>
      .st0 {
        fill: #959595;
      }
    </style>
  </defs>
  <circle class="st0" cx="256" cy="256" r="85.33"/>
  <path class="st0" d="M510.46,150.44c-1.81-39.57-12.84-78.89-41.43-107.48S401,3.33,361.56,1.54c-27.31-1.24-36.03-1.54-105.56-1.54s-78.25.3-105.56,1.54c-39.57,1.81-78.87,12.82-107.48,41.43C14.25,71.68,3.35,110.89,1.54,150.44c-1.24,27.31-1.54,36.03-1.54,105.56s.3,78.25,1.54,105.56c1.81,39.53,12.86,78.93,41.43,107.48,28.69,28.69,67.97,39.62,107.48,41.43,27.31,1.24,36.03,1.54,105.56,1.54s78.25-.3,105.56-1.54c39.55-1.81,78.89-12.84,107.48-41.43s39.62-67.93,41.43-107.48c1.24-27.31,1.54-36.03,1.54-105.56s-.3-78.25-1.54-105.56h-.02ZM256,387.46c-72.6,0-131.46-58.86-131.46-131.46s58.86-131.46,131.46-131.46,131.46,58.86,131.46,131.46-58.86,131.46-131.46,131.46ZM392.66,150.06c-16.97,0-30.72-13.75-30.72-30.72s13.75-30.72,30.72-30.72,30.72,13.75,30.72,30.72-13.75,30.72-30.72,30.72Z"/>
</svg>